<?xml version="1.0" encoding="UTF-8" standalone="no"?>
<!-- Created with Inkscape (http://www.inkscape.org/) -->

<svg
   width="31.8008mm"
   height="31.8008mm"
   viewBox="0 0 31.8008 31.8008"
   version="1.1"
   id="svg31243"
   inkscape:version="1.2.2 (b0a8486541, 2022-12-01)"
   sodipodi:docname="cap.svg"
   xmlns:inkscape="http://www.inkscape.org/namespaces/inkscape"
   xmlns:sodipodi="http://sodipodi.sourceforge.net/DTD/sodipodi-0.dtd"
   xmlns="http://www.w3.org/2000/svg"
   xmlns:svg="http://www.w3.org/2000/svg">
  <sodipodi:namedview
     id="namedview31245"
     pagecolor="#ffffff"
     bordercolor="#eeeeee"
     borderopacity="1"
     inkscape:showpageshadow="0"
     inkscape:pageopacity="0"
     inkscape:pagecheckerboard="0"
     inkscape:deskcolor="#f0f0f0"
     inkscape:document-units="mm"
     showgrid="false"
     inkscape:zoom="2.2601823"
     inkscape:cx="55.968937"
     inkscape:cy="13.052045"
     inkscape:window-width="1265"
     inkscape:window-height="1034"
     inkscape:window-x="1285"
     inkscape:window-y="36"
     inkscape:window-maximized="1"
     inkscape:current-layer="layer1" />
  <defs
     id="defs31240" />
  <g
     inkscape:label="Layer 1"
     inkscape:groupmode="layer"
     id="layer1"
     transform="translate(-46.347091,-50.651439)">
    <g
       id="g19407"
       transform="translate(30.034753,39.20798)">
      <g
         id="g14432"
         transform="matrix(0.79029718,0,0,0.78797515,3.4761517,2.5742105)">
        <circle
           style="fill:none;stroke:#000000;stroke-width:0.508;stroke-linecap:square;stroke-linejoin:bevel;stroke-dasharray:none;stroke-opacity:1;paint-order:stroke fill markers"
           id="path117"
           cy="-22.628927"
           cx="-42.405655"
           r="19.049999"
           transform="rotate(-167.24246)" />
        <g
           aria-label="COLLUM.COLLUM."
           id="text6585"
           style="font-size:7.40833px;line-height:1.25;font-family:Roboto;-inkscape-font-specification:Roboto;letter-spacing:4.23333px;word-spacing:0px;stroke-width:0.264583">
          <path
             d="m 23.706567,24.613456 q 0.752114,0.376966 1.002776,1.022136 0.248496,0.640535 -0.04531,1.449781 -0.318491,0.87725 -1.140103,1.179305 -0.820377,0.298654 -1.874437,-0.08403 L 21.17347,28.007824 q -0.69024,-0.250596 -1.124988,-0.685517 -0.433514,-0.438321 -0.548146,-0.991773 -0.118033,-0.554686 0.098,-1.14972 0.286395,-0.788845 0.901245,-1.104392 0.61145,-0.316781 1.418487,-0.112294 l -0.238252,0.656238 q -0.622495,-0.129792 -0.991405,0.05954 -0.367675,0.185928 -0.552844,0.695957 -0.227142,0.625636 0.105666,1.150543 0.334042,0.521507 1.187491,0.831357 l 0.479427,0.174059 q 0.805846,0.292568 1.404085,0.128773 0.598239,-0.163794 0.817973,-0.769028 0.197514,-0.544031 0.05763,-0.921929 -0.14205,-0.382532 -0.71952,-0.699941 z"
             id="path45783" />
          <path
             d="m 27.808796,18.915929 q 0.52108,0.572474 0.718065,1.175808 0.19455,0.600659 0.04597,1.146782 -0.148578,0.546123 -0.619397,0.974675 -0.460119,0.418812 -1.020444,0.517952 -0.562761,0.09647 -1.140572,-0.140665 -0.577571,-0.242241 -1.084522,-0.788443 l -0.25567,-0.280886 q -0.51134,-0.561773 -0.708085,-1.170217 -0.196745,-0.608445 -0.04793,-1.159678 0.149059,-0.556343 0.609177,-0.975155 0.468144,-0.426117 1.030905,-0.522582 0.563001,-0.101575 1.147636,0.153801 0.582201,0.2527 1.100846,0.822498 z m -0.739831,0.213617 q -0.630654,-0.692854 -1.244889,-0.808783 -0.61667,-0.118605 -1.116915,0.336732 -0.48687,0.443161 -0.429298,1.070672 0.05781,0.6224 0.648787,1.287782 l 0.26054,0.286236 q 0.611173,0.671452 1.242693,0.800998 0.63176,0.124435 1.126655,-0.326032 0.497571,-0.452901 0.441713,-1.062406 -0.05829,-0.61218 -0.666311,-1.296288 z"
             id="path45785" />
          <path
             d="m 32.099588,19.006618 2.399107,-0.688588 0.156679,0.545884 -3.070162,0.881193 -1.45302,-5.062464 0.671054,-0.192605 z"
             id="path45787" />
          <path
             d="m 37.706479,18.371005 2.46854,0.36903 -0.08397,0.561682 -3.159015,-0.472251 0.778707,-5.208975 0.690475,0.103221 z"
             id="path45789" />
          <path
             d="m 47.943185,17.754119 -2.008884,2.964659 q -0.421005,0.614859 -1.073131,0.745388 -0.649132,0.132559 -1.340411,-0.265946 l -0.156784,-0.0975 q -0.71571,-0.484973 -0.87918,-1.15942 -0.16347,-0.674447 0.289134,-1.355286 l 2.012943,-2.970647 0.568975,0.385543 -2.000768,2.95268 q -0.32061,0.473148 -0.238647,0.913211 0.08399,0.437069 0.566124,0.763766 0.488121,0.330756 0.922195,0.244735 0.437069,-0.08399 0.757679,-0.55714 l 2.002796,-2.955675 z"
             id="path45791" />
          <path
             d="m 51.584931,22.018472 -3.093466,3.44427 4.615871,-0.355344 0.398192,0.807923 -4.72424,2.328383 -0.30704,-0.622977 1.839728,-0.906726 2.014523,-0.920284 -4.589866,0.334462 -0.235077,-0.476966 3.05293,-3.428325 -1.94562,1.03554 -1.839728,0.906726 -0.307039,-0.622977 4.72424,-2.328383 z"
             id="path45793" />
          <path
             d="m 49.259461,30.790456 q 0.173617,-0.0024 0.290734,0.09736 0.117166,0.103325 0.119959,0.309495 0.0028,0.20617 -0.11153,0.312632 -0.114275,0.110078 -0.287891,0.112431 -0.166383,0.0023 -0.279981,-0.104738 -0.113549,-0.103374 -0.116342,-0.309544 -0.0028,-0.20617 0.107913,-0.312582 0.110756,-0.102796 0.277138,-0.10505 z"
             id="path45795" />
          <path
             d="m 48.761256,38.711917 q -0.737916,-0.404053 -0.964963,-1.057907 -0.225052,-0.649144 0.09797,-1.447177 0.350165,-0.865094 1.182213,-1.137087 0.83069,-0.268641 1.870144,0.1521 l 0.469431,0.190012 q 0.680676,0.275517 1.09933,0.725952 0.417296,0.453788 0.511737,1.01104 0.09779,0.55861 -0.13972,1.145399 -0.314877,0.777914 -0.940789,1.070906 -0.622559,0.294348 -1.421631,0.06066 l 0.261945,-0.647144 q 0.617367,0.15233 0.992914,-0.02347 0.37419,-0.172441 0.577774,-0.675403 0.24973,-0.616967 -0.06378,-1.153623 -0.314867,-0.533304 -1.15649,-0.873968 l -0.472784,-0.191369 q -0.79468,-0.321663 -1.398477,-0.17972 -0.603796,0.141943 -0.845383,0.738791 -0.217156,0.536493 -0.0911,0.919225 0.128053,0.387443 0.693605,0.72563 z"
             id="path45797" />
          <path
             d="m 44.453282,44.25589 q -0.499975,-0.590995 -0.674949,-1.201076 -0.172638,-0.60732 -0.0044,-1.147695 0.168287,-0.540375 0.654339,-0.95157 0.475005,-0.40185 1.038557,-0.480603 0.565889,-0.07599 1.13472,0.181939 0.568405,0.263028 1.055214,0.827256 l 0.245315,0.289975 q 0.49063,0.579948 0.665179,1.195127 0.174548,0.615179 0.0058,1.160653 -0.169137,0.550571 -0.644142,0.95242 -0.483291,0.408859 -1.049179,0.48485 -0.566315,0.08109 -1.141304,-0.195321 -0.572653,-0.273649 -1.070292,-0.861882 z m 0.747093,-0.186644 q 0.60511,0.71527 1.214737,0.8534 0.611962,0.140891 1.128392,-0.296003 0.502622,-0.425213 0.467846,-1.054398 -0.0352,-0.624088 -0.601655,-1.310465 l -0.249988,-0.295497 q -0.58642,-0.693176 -1.212826,-0.84554 -0.626831,-0.147266 -1.137738,0.284956 -0.513668,0.434558 -0.479952,1.045688 0.03605,0.613892 0.618859,1.3196 z"
             id="path45799" />
          <path
             d="m 40.170013,44.009725 -2.422622,0.600641 -0.136668,-0.551234 3.100254,-0.768647 1.267441,5.112084 -0.677632,0.168006 z"
             id="path45801" />
          <path
             d="m 34.541154,44.439411 -2.453648,-0.45769 0.104141,-0.558293 3.139958,0.58571 -0.965792,5.177553 -0.68631,-0.128021 z"
             id="path45803" />
          <path
             d="m 24.291153,44.684435 2.115988,-2.889189 q 0.443214,-0.599048 1.099679,-0.705635 0.653546,-0.108724 1.329785,0.314801 l 0.153112,0.103169 q 0.697491,0.510829 0.836181,1.190804 0.138689,0.679976 -0.338518,1.343803 l -2.120262,2.895025 -0.554491,-0.406098 2.107438,-2.877516 q 0.337703,-0.461103 0.271892,-0.90387 -0.06795,-0.439849 -0.537806,-0.783964 -0.475694,-0.34839 -0.912625,-0.278304 -0.439849,0.06795 -0.777552,0.529051 l -2.109575,2.880433 z"
             id="path45805" />
          <path
             d="m 20.805899,40.290765 3.216263,-3.329893 -4.625717,0.187821 -0.368649,-0.821824 4.805522,-2.155635 0.28426,0.633695 -1.871381,0.839454 -2.046553,0.846669 4.598973,-0.167895 0.217636,0.485173 -3.175176,3.315427 1.981872,-0.964345 1.871382,-0.839455 0.284259,0.633696 -4.805522,2.155635 z"
             id="path45807" />
          <path
             d="m 23.449661,31.610584 q -0.173587,-0.004 -0.286977,-0.107929 -0.113307,-0.107543 -0.108554,-0.313677 0.0048,-0.206134 0.122894,-0.308341 0.118226,-0.105824 0.291812,-0.101822 0.166354,0.0038 0.275961,0.114911 0.10969,0.10746 0.104938,0.313594 -0.0048,0.206134 -0.119278,0.308425 -0.114443,0.09867 -0.280796,0.09484 z"
             id="path45809" />
        </g>
        <g
           style="opacity:1;fill:none;fill-rule:nonzero;stroke:none;stroke-width:0;stroke-linecap:butt;stroke-linejoin:miter;stroke-miterlimit:10;stroke-dasharray:none"
           transform="matrix(0.19591342,0,0,0.19591342,27.45797,24.173499)"
           id="g13521">
          <path
             d="M 11.596,27.637 C 5.202,27.637 0,22.436 0,16.042 0,9.648 5.202,4.445 11.596,4.445 H 45 c 0.552,0 1,0.448 1,1 0,0.552 -0.448,1 -1,1 H 11.596 C 6.305,6.445 2,10.75 2,16.042 c 0,5.291 4.305,9.596 9.596,9.596 0.552,0 1,0.448 1,1 0,0.552 -0.448,0.999 -1,0.999 z"
             style="opacity:1;fill:#000000;fill-rule:nonzero;stroke:none;stroke-width:1;stroke-linecap:butt;stroke-linejoin:miter;stroke-miterlimit:10;stroke-dasharray:none"
             stroke-linecap="round"
             id="path13487" />
          <path
             d="m 11.638,27.637 c -0.552,0 -1,-0.448 -1,-1 0,-0.552 0.448,-1 1,-1 4.574,0 8.295,-3.721 8.295,-8.294 0,-0.552 0.448,-1 1,-1 0.552,0 1,0.448 1,1 0,5.676 -4.619,10.294 -10.295,10.294 z"
             style="opacity:1;fill:#000000;fill-rule:nonzero;stroke:none;stroke-width:1;stroke-linecap:butt;stroke-linejoin:miter;stroke-miterlimit:10;stroke-dasharray:none"
             stroke-linecap="round"
             id="path13489" />
          <path
             d="M 69.067,18.343 H 20.933 c -0.552,0 -1,-0.448 -1,-1 0,-3.549 -2.887,-6.436 -6.436,-6.436 -0.552,0 -1,-0.448 -1,-1 0,-0.552 0.448,-1 1,-1 4.313,0 7.88,3.254 8.376,7.436 h 46.252 c 0.496,-4.182 4.064,-7.436 8.377,-7.436 0.553,0 1,0.448 1,1 0,0.552 -0.447,1 -1,1 -3.549,0 -6.436,2.887 -6.436,6.436 10e-4,0.552 -0.446,1 -0.999,1 z"
             style="opacity:1;fill:#000000;fill-rule:nonzero;stroke:none;stroke-width:1;stroke-linecap:butt;stroke-linejoin:miter;stroke-miterlimit:10;stroke-dasharray:none"
             stroke-linecap="round"
             id="path13491" />
          <path
             d="m 6.805,17.599 c -0.552,0 -1,-0.448 -1,-1 0,-4.242 3.451,-7.692 7.692,-7.692 0.552,0 1,0.448 1,1 0,0.552 -0.448,1 -1,1 -3.139,0 -5.692,2.554 -5.692,5.692 0,0.552 -0.448,1 -1,1 z"
             style="opacity:1;fill:#000000;fill-rule:nonzero;stroke:none;stroke-width:1;stroke-linecap:butt;stroke-linejoin:miter;stroke-miterlimit:10;stroke-dasharray:none"
             stroke-linecap="round"
             id="path13493" />
          <path
             d="m 9.091,21.9 c -0.192,0 -0.387,-0.055 -0.559,-0.171 -1.708,-1.154 -2.728,-3.071 -2.728,-5.13 0,-0.552 0.448,-1 1,-1 0.552,0 1,0.448 1,1 0,1.393 0.69,2.691 1.847,3.473 0.458,0.309 0.578,0.931 0.269,1.388 -0.193,0.286 -0.508,0.44 -0.829,0.44 z"
             style="opacity:1;fill:#000000;fill-rule:nonzero;stroke:none;stroke-width:1;stroke-linecap:butt;stroke-linejoin:miter;stroke-miterlimit:10;stroke-dasharray:none"
             stroke-linecap="round"
             id="path13495" />
          <path
             d="m 78.404,27.637 c -0.553,0 -1,-0.448 -1,-1 0,-0.552 0.447,-1 1,-1 5.291,0 9.596,-4.305 9.596,-9.596 0,-5.292 -4.305,-9.596 -9.596,-9.596 H 45 c -0.552,0 -1,-0.448 -1,-1 0,-0.552 0.448,-1 1,-1 H 78.404 C 84.798,4.445 90,9.647 90,16.042 90,22.437 84.798,27.637 78.404,27.637 Z"
             style="opacity:1;fill:#000000;fill-rule:nonzero;stroke:none;stroke-width:1;stroke-linecap:butt;stroke-linejoin:miter;stroke-miterlimit:10;stroke-dasharray:none"
             stroke-linecap="round"
             id="path13497" />
          <path
             d="m 78.362,27.637 c -5.677,0 -10.295,-4.618 -10.295,-10.294 0,-0.552 0.447,-1 1,-1 0.553,0 1,0.448 1,1 0,4.574 3.721,8.294 8.295,8.294 0.553,0 1,0.448 1,1 0,0.552 -0.447,1 -1,1 z"
             style="opacity:1;fill:#000000;fill-rule:nonzero;stroke:none;stroke-width:1;stroke-linecap:butt;stroke-linejoin:miter;stroke-miterlimit:10;stroke-dasharray:none"
             stroke-linecap="round"
             id="path13499" />
          <path
             d="m 83.195,17.599 c -0.553,0 -1,-0.448 -1,-1 0,-3.139 -2.554,-5.692 -5.692,-5.692 -0.553,0 -1,-0.448 -1,-1 0,-0.552 0.447,-1 1,-1 4.241,0 7.692,3.451 7.692,7.692 0,0.552 -0.447,1 -1,1 z"
             style="opacity:1;fill:#000000;fill-rule:nonzero;stroke:none;stroke-width:1;stroke-linecap:butt;stroke-linejoin:miter;stroke-miterlimit:10;stroke-dasharray:none"
             stroke-linecap="round"
             id="path13501" />
          <path
             d="m 80.909,21.9 c -0.321,0 -0.637,-0.154 -0.83,-0.44 -0.309,-0.458 -0.188,-1.079 0.27,-1.388 1.156,-0.781 1.847,-2.08 1.847,-3.473 0,-0.552 0.447,-1 1,-1 0.553,0 1,0.448 1,1 0,2.059 -1.02,3.976 -2.728,5.13 -0.172,0.116 -0.366,0.171 -0.559,0.171 z"
             style="opacity:1;fill:#000000;fill-rule:nonzero;stroke:none;stroke-width:1;stroke-linecap:butt;stroke-linejoin:miter;stroke-miterlimit:10;stroke-dasharray:none"
             stroke-linecap="round"
             id="path13503" />
          <path
             d="M 71.627,24.736 H 18.373 c -0.552,0 -1,-0.448 -1,-1 0,-0.552 0.448,-1 1,-1 h 53.254 c 0.553,0 1,0.448 1,1 0,0.552 -0.447,1 -1,1 z"
             style="opacity:1;fill:#000000;fill-rule:nonzero;stroke:none;stroke-width:1;stroke-linecap:butt;stroke-linejoin:miter;stroke-miterlimit:10;stroke-dasharray:none"
             stroke-linecap="round"
             id="path13505" />
          <path
             d="M 66.422,68.65 H 23.579 c -0.552,0 -1,-0.447 -1,-1 V 23.736 c 0,-0.552 0.448,-1 1,-1 h 42.843 c 0.553,0 1,0.448 1,1 V 67.65 c 0,0.553 -0.447,1 -1,1 z m -41.843,-2 H 65.422 V 24.736 H 24.579 Z"
             style="opacity:1;fill:#000000;fill-rule:nonzero;stroke:none;stroke-width:1;stroke-linecap:butt;stroke-linejoin:miter;stroke-miterlimit:10;stroke-dasharray:none"
             stroke-linecap="round"
             id="path13507" />
          <path
             d="M 74.49,76.378 H 15.509 c -0.552,0 -1,-0.447 -1,-1 0,-4.813 3.916,-8.728 8.728,-8.728 h 43.525 c 4.813,0 8.728,3.915 8.728,8.728 0,0.553 -0.447,1 -1,1 z m -57.907,-2 H 73.416 C 72.932,71.141 70.133,68.65 66.763,68.65 H 23.237 c -3.37,0 -6.169,2.491 -6.654,5.728 z"
             style="opacity:1;fill:#000000;fill-rule:nonzero;stroke:none;stroke-width:1;stroke-linecap:butt;stroke-linejoin:miter;stroke-miterlimit:10;stroke-dasharray:none"
             stroke-linecap="round"
             id="path13509" />
          <path
             d="M 78.362,85.555 H 11.638 c -0.552,0 -1,-0.447 -1,-1 v -9.177 c 0,-0.553 0.448,-1 1,-1 h 66.725 c 0.553,0 1,0.447 1,1 v 9.177 c -0.001,0.552 -0.448,1 -1.001,1 z m -65.724,-2 H 77.363 V 76.378 H 12.638 Z"
             style="opacity:1;fill:#000000;fill-rule:nonzero;stroke:none;stroke-width:1;stroke-linecap:butt;stroke-linejoin:miter;stroke-miterlimit:10;stroke-dasharray:none"
             stroke-linecap="round"
             id="path13511" />
          <path
             d="m 40.711,68.65 h -9.423 c -0.552,0 -1,-0.447 -1,-1 V 34.644 c 0,-3.149 2.562,-5.711 5.711,-5.711 3.149,0 5.711,2.562 5.711,5.711 V 67.65 c 10e-4,0.553 -0.446,1 -0.999,1 z m -8.422,-2 h 7.423 V 34.644 c 0,-2.046 -1.665,-3.711 -3.711,-3.711 -2.046,0 -3.711,1.665 -3.711,3.711 V 66.65 Z"
             style="opacity:1;fill:#000000;fill-rule:nonzero;stroke:none;stroke-width:1;stroke-linecap:butt;stroke-linejoin:miter;stroke-miterlimit:10;stroke-dasharray:none"
             stroke-linecap="round"
             id="path13513" />
          <path
             d="m 58.712,68.65 h -9.424 c -0.553,0 -1,-0.447 -1,-1 V 34.644 c 0,-3.149 2.563,-5.711 5.712,-5.711 3.149,0 5.712,2.562 5.712,5.711 V 67.65 c 0,0.553 -0.447,1 -1,1 z m -8.424,-2 h 7.424 V 34.644 c 0,-2.046 -1.665,-3.711 -3.712,-3.711 -2.047,0 -3.712,1.665 -3.712,3.711 z"
             style="opacity:1;fill:#000000;fill-rule:nonzero;stroke:none;stroke-width:1;stroke-linecap:butt;stroke-linejoin:miter;stroke-miterlimit:10;stroke-dasharray:none"
             stroke-linecap="round"
             id="path13515" />
          <circle
             cx="13.495"
             cy="16.305"
             r="1.265"
             style="opacity:1;fill:#000000;fill-rule:nonzero;stroke:none;stroke-width:1;stroke-linecap:butt;stroke-linejoin:miter;stroke-miterlimit:10;stroke-dasharray:none"
             id="circle13517" />
          <circle
             cx="76.495003"
             cy="16.305"
             r="1.265"
             style="opacity:1;fill:#000000;fill-rule:nonzero;stroke:none;stroke-width:1;stroke-linecap:butt;stroke-linejoin:miter;stroke-miterlimit:10;stroke-dasharray:none"
             id="circle13519" />
        </g>
        <g
           id="g13529"
           transform="matrix(0.05353665,0,0,0.05353665,59.202085,11.351571)"
           style="fill:none;fill-opacity:1;stroke:#000000;stroke-width:2.80181;stroke-dasharray:none;stroke-opacity:1">
          <path
             style="opacity:1;fill:none;fill-opacity:1;stroke:#000000;stroke-width:4.3371;stroke-linecap:round;stroke-linejoin:round;stroke-miterlimit:4;stroke-dasharray:none;stroke-dashoffset:0;stroke-opacity:1"
             d="m -502.72679,243.66457 a 33.838039,45.392488 57.156649 0 1 -1.20844,-2.08737 c 0.89063,-0.2218 2.51629,-1.87419 4.88925,-4.95131 7.62465,-9.88701 14.48353,-13.34802 24.75052,-12.48394 33.5475,2.82326 37.73685,1.84407 44.47819,-10.40654 2.91375,-5.29497 4.90655,-14.54574 4.32554,-17.65047 a 33.838039,45.392488 57.156649 0 1 -20.74589,51.39082 33.838039,45.392488 57.156649 0 1 -56.4892,-3.81117 z m -1.98541,-3.86599 a 33.838039,45.392488 57.156649 0 1 21.77076,-49.18161 33.838039,45.392488 57.156649 0 1 56.48878,3.81055 33.838039,45.392488 57.156649 0 1 0.36056,0.62258 c -0.18918,-0.0546 -0.41802,0.002 -0.69074,0.1887 -0.90529,0.62114 -2.90319,3.32736 -4.43836,6.01315 -5.57532,9.75431 -12.57971,11.98818 -33.45427,10.68133 -16.62459,-1.04081 -20.88396,-0.50842 -26.84933,3.3424 -5.53415,3.57248 -7.85697,6.83659 -10.58545,14.87763 -1.56643,4.61643 -2.43373,7.82153 -2.60213,9.64541 z"
             id="path13527"
             inkscape:connector-curvature="0" />
          <path
             style="opacity:1;fill:none;fill-opacity:1;stroke:#000000;stroke-width:4.3371;stroke-linecap:round;stroke-linejoin:round;stroke-miterlimit:4;stroke-dasharray:none;stroke-dashoffset:0;stroke-opacity:1"
             d="m -372.40099,255.39898 a 45.392488,33.838039 73.996786 0 1 -2.34796,0.5519 c 0.0457,-0.91669 -1.06485,-2.95132 -3.32256,-6.11399 -7.25413,-10.16196 -8.57968,-17.72938 -4.7783,-27.30575 12.42098,-31.29098 12.69744,-35.58435 2.92517,-45.58563 -4.22379,-4.32276 -12.50053,-8.91008 -15.64045,-9.25342 a 45.392488,33.838039 73.996786 0 1 43.17688,34.74427 45.392488,33.838039 73.996786 0 1 -20.01277,52.96266 z m -4.2754,0.78028 a 45.392488,33.838039 73.996786 0 1 -40.76549,-35.08518 45.392488,33.838039 73.996786 0 1 20.01207,-52.96243 45.392488,33.838039 73.996786 0 1 0.70033,-0.16475 c -0.10709,0.16525 -0.11995,0.40047 -0.0196,0.7158 0.33224,1.04642 2.34362,3.74263 4.46949,5.99005 7.72083,8.16208 7.82971,15.51326 0.53149,35.11405 -5.81235,15.61015 -6.53674,19.84111 -4.57924,26.66624 1.81602,6.33178 4.26722,9.50061 11.173,14.44159 3.96467,2.83666 6.78106,4.59529 8.47794,5.28485 z"
             id="path13531"
             inkscape:connector-curvature="0" />
        </g>
      </g>
      <circle
         style="fill:none;fill-opacity:1;stroke:#000000;stroke-width:0.0508;stroke-linecap:square;stroke-linejoin:bevel;stroke-dasharray:none;stroke-opacity:1;paint-order:stroke fill markers"
         id="path14436"
         cx="32.212738"
         cy="27.343859"
         r="15.875" />
    </g>
  </g>
</svg>
