<?xml version="1.0" encoding="UTF-8" standalone="no"?>
<!-- Created with Inkscape (http://www.inkscape.org/) -->

<svg
   width="31.75mm"
   height="31.75mm"
   viewBox="0 0 31.75 31.75"
   version="1.1"
   id="svg31243"
   inkscape:version="1.2.2 (b0a8486541, 2022-12-01)"
   sodipodi:docname="cap.svg"
   inkscape:export-filename="cap.png"
   inkscape:export-xdpi="300"
   inkscape:export-ydpi="300"
   xmlns:inkscape="http://www.inkscape.org/namespaces/inkscape"
   xmlns:sodipodi="http://sodipodi.sourceforge.net/DTD/sodipodi-0.dtd"
   xmlns="http://www.w3.org/2000/svg"
   xmlns:svg="http://www.w3.org/2000/svg">
  <sodipodi:namedview
     id="namedview31245"
     pagecolor="#ffffff"
     bordercolor="#eeeeee"
     borderopacity="1"
     inkscape:showpageshadow="0"
     inkscape:pageopacity="0"
     inkscape:pagecheckerboard="true"
     inkscape:deskcolor="#f0f0f0"
     inkscape:document-units="mm"
     showgrid="false"
     inkscape:zoom="6.3927609"
     inkscape:cx="58.112607"
     inkscape:cy="60.615438"
     inkscape:window-width="2540"
     inkscape:window-height="1034"
     inkscape:window-x="10"
     inkscape:window-y="36"
     inkscape:window-maximized="1"
     inkscape:current-layer="g19407">
    <inkscape:grid
       type="xygrid"
       id="grid5948"
       originx="-0.025400037"
       originy="-0.025399719" />
  </sodipodi:namedview>
  <defs
     id="defs31240" />
  <g
     inkscape:label="Layer 1"
     inkscape:groupmode="layer"
     id="layer1"
     transform="translate(-46.372491,-50.676839)">
    <g
       id="g19407"
       transform="translate(30.034753,39.20798)">
      <g
         id="g14432"
         transform="matrix(0.79029718,0,0,0.78797515,3.4761517,2.5742105)" />
      <g
         id="g11659">
        <path
           id="path117"
           style="fill:#ffffff;stroke:#000000;stroke-width:1.5;stroke-linecap:square;stroke-linejoin:bevel;paint-order:stroke fill markers"
           transform="matrix(-0.97545283,-0.22020847,0.22144466,-0.97517294,0,0)"
           d="M -22.415164,-19.579142 A 15.053006,15.013086 0 0 1 -37.46817,-4.5660553 15.053006,15.013086 0 0 1 -52.521176,-19.579142 15.053006,15.013086 0 0 1 -37.46817,-34.592228 15.053006,15.013086 0 0 1 -22.415164,-19.579142 Z" />
        <path
           d="m 22.211385,21.969002 q 0.594394,0.29704 0.792491,0.805418 0.196386,0.504726 -0.03581,1.142391 -0.251703,0.691252 -0.901021,0.929263 -0.648341,0.235332 -1.481362,-0.06621 L 20.209486,24.64368 q -0.545495,-0.197464 -0.889075,-0.540171 -0.342605,-0.345386 -0.433199,-0.781492 -0.09328,-0.437079 0.07745,-0.905951 0.226337,-0.62159 0.712251,-0.870233 0.483227,-0.249616 1.121026,-0.08848 l -0.18829,0.517099 q -0.491956,-0.102273 -0.783504,0.04692 -0.290573,0.146507 -0.436911,0.548397 -0.17951,0.492986 0.08351,0.906599 0.263993,0.410935 0.938471,0.655089 l 0.37889,0.137154 q 0.636858,0.230536 1.109644,0.10147 0.472787,-0.129066 0.646442,-0.605975 0.156095,-0.428683 0.04555,-0.726457 -0.112262,-0.301426 -0.568635,-0.551536 z"
           id="path45783"
           style="font-size:7.40833px;line-height:1.25;font-family:Roboto;-inkscape-font-specification:Roboto;letter-spacing:4.23333px;word-spacing:0px;stroke-width:0.208792" />
        <path
           d="m 25.453365,17.479492 q 0.411808,0.451096 0.567485,0.926508 0.153752,0.473304 0.03633,0.903636 -0.117421,0.430331 -0.489508,0.768019 -0.363631,0.330014 -0.806454,0.408134 -0.444748,0.07602 -0.901391,-0.110841 -0.456453,-0.19088 -0.857095,-0.621273 l -0.202055,-0.221332 q -0.40411,-0.442663 -0.559597,-0.922101 -0.155487,-0.47944 -0.03788,-0.913798 0.117801,-0.438384 0.481431,-0.768398 0.369972,-0.335769 0.814721,-0.411781 0.444938,-0.08004 0.906973,0.121191 0.460112,0.199121 0.869996,0.648108 z m -0.584686,0.168325 q -0.498404,-0.545951 -0.983833,-0.637301 -0.487352,-0.09346 -0.882694,0.265337 -0.384772,0.3492 -0.339273,0.843663 0.04569,0.490436 0.512734,1.01474 l 0.205904,0.225547 q 0.483008,0.529087 0.982097,0.631166 0.499278,0.09805 0.890392,-0.256905 0.393229,-0.356874 0.349085,-0.837149 -0.04607,-0.482383 -0.526584,-1.021443 z"
           id="path45785"
           style="font-size:7.40833px;line-height:1.25;font-family:Roboto;-inkscape-font-specification:Roboto;letter-spacing:4.23333px;word-spacing:0px;stroke-width:0.208792" />
        <path
           d="m 28.844366,17.550953 1.896007,-0.54259 0.123823,0.430143 -2.42634,0.694358 L 27.289538,14.143768 27.81987,13.992 Z"
           id="path45787"
           style="font-size:7.40833px;line-height:1.25;font-family:Roboto;-inkscape-font-specification:Roboto;letter-spacing:4.23333px;word-spacing:0px;stroke-width:0.208792" />
        <path
           d="m 33.275476,17.050106 1.95088,0.290786 -0.06636,0.442592 -2.496561,-0.372122 0.61541,-4.104543 0.545681,0.08134 z"
           id="path45789"
           style="font-size:7.40833px;line-height:1.25;font-family:Roboto;-inkscape-font-specification:Roboto;letter-spacing:4.23333px;word-spacing:0px;stroke-width:0.208792" />
        <path
           d="m 41.365516,16.564015 -1.587615,2.336078 q -0.332719,0.484493 -0.848093,0.587347 -0.513007,0.104453 -1.059323,-0.209559 l -0.123906,-0.07683 q -0.565623,-0.382147 -0.694813,-0.913595 -0.12919,-0.531447 0.228502,-1.067931 l 1.590823,-2.340796 0.449659,0.303798 -1.581201,2.326638 q -0.253377,0.372829 -0.188602,0.719588 0.06638,0.3444 0.447406,0.601829 0.385761,0.260627 0.728808,0.192845 0.345414,-0.06618 0.598792,-0.439013 l 1.582804,-2.328998 z"
           id="path45791"
           style="font-size:7.40833px;line-height:1.25;font-family:Roboto;-inkscape-font-specification:Roboto;letter-spacing:4.23333px;word-spacing:0px;stroke-width:0.208792" />
        <path
           d="m 44.243578,19.924219 -2.444758,2.713999 3.64791,-0.280002 0.31469,0.636623 -3.733553,1.834708 -0.242653,-0.49089 1.453932,-0.714478 1.592071,-0.72516 -3.627358,0.263547 -0.18578,-0.375837 2.412722,-2.701435 -1.537618,0.81598 -1.453932,0.714477 -0.242652,-0.49089 3.733553,-1.834708 z"
           id="path45793"
           style="font-size:7.40833px;line-height:1.25;font-family:Roboto;-inkscape-font-specification:Roboto;letter-spacing:4.23333px;word-spacing:0px;stroke-width:0.208792" />
        <path
           d="m 42.405765,26.836325 q 0.137209,-0.0019 0.229767,0.07672 0.0926,0.08142 0.0948,0.243874 0.0022,0.162457 -0.08814,0.246347 -0.09031,0.08674 -0.227519,0.08859 -0.131492,0.0018 -0.221269,-0.08253 -0.08974,-0.08146 -0.09194,-0.243913 -0.0022,-0.162456 0.08528,-0.246306 0.08753,-0.081 0.219021,-0.08278 z"
           id="path45795"
           style="font-size:7.40833px;line-height:1.25;font-family:Roboto;-inkscape-font-specification:Roboto;letter-spacing:4.23333px;word-spacing:0px;stroke-width:0.208792" />
        <path
           d="m 42.012035,33.078239 q -0.583173,-0.318384 -0.762607,-0.833604 -0.177858,-0.51151 0.07742,-1.14034 0.276735,-0.681672 0.9343,-0.895996 0.656492,-0.211683 1.477969,0.119851 l 0.37099,0.149725 q 0.537937,0.2171 0.868798,0.572032 0.329788,0.357573 0.404424,0.796674 0.07728,0.440171 -0.11042,0.902546 -0.248847,0.612977 -0.743503,0.843847 -0.492007,0.231939 -1.123511,0.0478 l 0.207014,-0.509933 q 0.487904,0.120032 0.784697,-0.01849 0.295722,-0.135879 0.456614,-0.532201 0.19736,-0.486155 -0.05041,-0.909026 -0.248838,-0.420231 -0.91397,-0.688665 L 43.5162,30.831665 q -0.628034,-0.253463 -1.105213,-0.141615 -0.477178,0.111847 -0.668104,0.582149 -0.171617,0.422743 -0.072,0.724326 0.1012,0.305296 0.548154,0.571779 z"
           id="path45797"
           style="font-size:7.40833px;line-height:1.25;font-family:Roboto;-inkscape-font-specification:Roboto;letter-spacing:4.23333px;word-spacing:0px;stroke-width:0.208792" />
        <path
           d="m 38.607456,37.446752 q -0.395129,-0.465689 -0.533411,-0.946418 -0.136435,-0.478553 -0.0035,-0.904355 0.132997,-0.425802 0.517122,-0.749814 0.375395,-0.316647 0.820769,-0.378703 0.44722,-0.05988 0.896766,0.143364 0.449209,0.207259 0.833933,0.651857 l 0.193871,0.228493 q 0.387744,0.456984 0.525689,0.94173 0.137945,0.484746 0.0046,0.914566 -0.133668,0.433836 -0.509063,0.750483 -0.381944,0.322171 -0.829164,0.38205 -0.447557,0.0639 -0.901969,-0.153908 -0.452566,-0.215629 -0.845849,-0.679142 z m 0.590425,-0.147071 q 0.478217,0.563615 0.960003,0.672458 0.483632,0.111019 0.891765,-0.233243 0.397221,-0.335057 0.369738,-0.830839 -0.02782,-0.491766 -0.475487,-1.032614 l -0.197564,-0.232844 q -0.463446,-0.546206 -0.958493,-0.666265 -0.495383,-0.116042 -0.899152,0.224538 -0.40595,0.342421 -0.379304,0.823977 0.02849,0.483731 0.489082,1.039812 z"
           id="path45799"
           style="font-size:7.40833px;line-height:1.25;font-family:Roboto;-inkscape-font-specification:Roboto;letter-spacing:4.23333px;word-spacing:0px;stroke-width:0.208792" />
        <path
           d="m 35.2224,37.25278 -1.914591,0.47329 -0.108009,-0.434358 2.450122,-0.605675 1.001655,4.028195 -0.53553,0.132385 z"
           id="path45801"
           style="font-size:7.40833px;line-height:1.25;font-family:Roboto;-inkscape-font-specification:Roboto;letter-spacing:4.23333px;word-spacing:0px;stroke-width:0.208792" />
        <path
           d="m 30.773929,37.591362 -1.939111,-0.360648 0.0823,-0.439921 2.4815,0.461525 -0.763263,4.079783 -0.542389,-0.100878 z"
           id="path45803"
           style="font-size:7.40833px;line-height:1.25;font-family:Roboto;-inkscape-font-specification:Roboto;letter-spacing:4.23333px;word-spacing:0px;stroke-width:0.208792" />
        <path
           d="m 22.673382,37.784435 1.672259,-2.276609 q 0.350271,-0.472035 0.869073,-0.556023 0.516496,-0.08567 1.050926,0.248055 l 0.121004,0.0813 q 0.551225,0.40252 0.660831,0.938324 0.109606,0.535804 -0.26753,1.058883 l -1.675637,2.281208 -0.438213,-0.319995 1.665503,-2.267411 q 0.266886,-0.363338 0.214875,-0.712227 -0.0537,-0.34659 -0.425026,-0.617745 -0.37594,-0.274522 -0.721245,-0.219296 -0.347612,0.05354 -0.614497,0.416879 l -1.667192,2.26971 z"
           id="path45805"
           style="font-size:7.40833px;line-height:1.25;font-family:Roboto;-inkscape-font-specification:Roboto;letter-spacing:4.23333px;word-spacing:0px;stroke-width:0.208792" />
        <path
           d="m 19.918995,34.322332 2.541804,-2.623873 -3.655691,0.147998 -0.291343,-0.647576 3.797791,-1.698587 0.22465,0.499336 -1.478947,0.661469 -1.617385,0.667154 3.634555,-0.132297 0.171997,0.382304 -2.509333,2.612474 1.566268,-0.75988 1.478948,-0.66147 0.224649,0.499337 -3.79779,1.698587 z"
           id="path45807"
           style="font-size:7.40833px;line-height:1.25;font-family:Roboto;-inkscape-font-specification:Roboto;letter-spacing:4.23333px;word-spacing:0px;stroke-width:0.208792" />
        <path
           d="m 22.008353,27.482565 q -0.137185,-0.0032 -0.226797,-0.08505 -0.08955,-0.08474 -0.08579,-0.24717 0.0038,-0.162428 0.09712,-0.242965 0.09343,-0.08339 0.230618,-0.08023 0.131469,0.003 0.218091,0.09055 0.08669,0.08468 0.08293,0.247104 -0.0038,0.162429 -0.09427,0.243031 -0.09044,0.07775 -0.221912,0.07473 z"
           id="path45809"
           style="font-size:7.40833px;line-height:1.25;font-family:Roboto;-inkscape-font-specification:Roboto;letter-spacing:4.23333px;word-spacing:0px;stroke-width:0.208792" />
        <path
           d="m 26.971515,25.888786 c -0.989982,0 -1.795407,-0.802904 -1.795407,-1.789977 0,-0.987073 0.805425,-1.790286 1.795407,-1.790286 h 5.171935 c 0.08547,0 0.15483,0.06916 0.15483,0.154376 0,0.08521 -0.06936,0.154374 -0.15483,0.154374 h -5.171935 c -0.819205,0 -1.485747,0.664584 -1.485747,1.481536 0,0.816798 0.666542,1.481382 1.485747,1.481382 0.08547,0 0.154829,0.06916 0.154829,0.154375 0,0.08521 -0.06936,0.15422 -0.154829,0.15422 z"
           style="fill:#000000;fill-rule:nonzero;stroke:none;stroke-width:0.154602;stroke-linecap:butt;stroke-linejoin:miter;stroke-miterlimit:10;stroke-dasharray:none"
           stroke-linecap="round"
           id="path13487" />
        <path
           d="m 26.978017,25.888786 c -0.08547,0 -0.154829,-0.06916 -0.154829,-0.154374 0,-0.08521 0.06936,-0.154376 0.154829,-0.154376 0.708192,0 1.284314,-0.574428 1.284314,-1.280385 0,-0.08522 0.06936,-0.154375 0.15483,-0.154375 0.08547,0 0.15483,0.06916 0.15483,0.154375 0,0.876232 -0.715159,1.589135 -1.593974,1.589135 z"
           style="fill:#000000;fill-rule:nonzero;stroke:none;stroke-width:0.154602;stroke-linecap:butt;stroke-linejoin:miter;stroke-miterlimit:10;stroke-dasharray:none"
           stroke-linecap="round"
           id="path13489" />
        <path
           d="m 35.86974,24.454026 h -7.452579 c -0.08547,0 -0.15483,-0.06916 -0.15483,-0.154375 0,-0.547876 -0.446994,-0.993557 -0.996485,-0.993557 -0.08547,0 -0.154829,-0.06916 -0.154829,-0.154375 0,-0.08522 0.06936,-0.154375 0.154829,-0.154375 0.667781,0 1.220059,0.502336 1.296855,1.147932 h 7.161189 c 0.07679,-0.645596 0.629229,-1.147932 1.297009,-1.147932 0.08562,0 0.15483,0.06916 0.15483,0.154375 0,0.08522 -0.06921,0.154375 -0.15483,0.154375 -0.54949,0 -0.996484,0.445681 -0.996484,0.993557 1.55e-4,0.08521 -0.06906,0.154375 -0.154675,0.154375 z"
           style="fill:#000000;fill-rule:nonzero;stroke:none;stroke-width:0.154602;stroke-linecap:butt;stroke-linejoin:miter;stroke-miterlimit:10;stroke-dasharray:none"
           stroke-linecap="round"
           id="path13491" />
        <path
           d="m 26.229725,24.339171 c -0.08547,0 -0.15483,-0.06916 -0.15483,-0.154375 0,-0.654858 0.534318,-1.187452 1.190951,-1.187452 0.08547,0 0.15483,0.06916 0.15483,0.154375 0,0.08522 -0.06936,0.154375 -0.15483,0.154375 -0.486011,0 -0.881291,0.394274 -0.881291,0.878702 0,0.08522 -0.06936,0.154375 -0.15483,0.154375 z"
           style="fill:#000000;fill-rule:nonzero;stroke:none;stroke-width:0.154602;stroke-linecap:butt;stroke-linejoin:miter;stroke-miterlimit:10;stroke-dasharray:none"
           stroke-linecap="round"
           id="path13493" />
        <path
           d="m 26.583666,25.003138 c -0.02972,0 -0.05992,-0.0085 -0.08655,-0.0264 -0.264449,-0.178148 -0.422376,-0.474085 -0.422376,-0.791943 0,-0.08521 0.06937,-0.154375 0.15483,-0.154375 0.08547,0 0.15483,0.06916 0.15483,0.154375 0,0.215044 0.106833,0.415423 0.285971,0.536144 0.07091,0.0477 0.08949,0.143723 0.04165,0.214272 -0.02988,0.04415 -0.07865,0.06792 -0.128354,0.06792 z"
           style="fill:#000000;fill-rule:nonzero;stroke:none;stroke-width:0.154602;stroke-linecap:butt;stroke-linejoin:miter;stroke-miterlimit:10;stroke-dasharray:none"
           stroke-linecap="round"
           id="path13495" />
        <path
           d="m 37.315386,25.888786 c -0.08562,0 -0.15483,-0.06916 -0.15483,-0.154374 0,-0.08521 0.06921,-0.154376 0.15483,-0.154376 0.819205,0 1.485747,-0.664584 1.485747,-1.481381 0,-0.816952 -0.666542,-1.481382 -1.485747,-1.481382 H 32.14345 c -0.08546,0 -0.15483,-0.06916 -0.15483,-0.154374 0,-0.08522 0.06937,-0.154376 0.15483,-0.154376 h 5.171936 c 0.989982,0 1.795407,0.803059 1.795407,1.790286 0,0.987227 -0.805425,1.789977 -1.795407,1.789977 z"
           style="fill:#000000;fill-rule:nonzero;stroke:none;stroke-width:0.154602;stroke-linecap:butt;stroke-linejoin:miter;stroke-miterlimit:10;stroke-dasharray:none"
           stroke-linecap="round"
           id="path13497" />
        <path
           d="m 37.308883,25.888786 c -0.878969,0 -1.593973,-0.712903 -1.593973,-1.589135 0,-0.08522 0.06921,-0.154375 0.15483,-0.154375 0.08562,0 0.15483,0.06916 0.15483,0.154375 0,0.70611 0.576121,1.280385 1.284313,1.280385 0.08562,0 0.15483,0.06916 0.15483,0.154376 0,0.08521 -0.06921,0.154374 -0.15483,0.154374 z"
           style="fill:#000000;fill-rule:nonzero;stroke:none;stroke-width:0.154602;stroke-linecap:butt;stroke-linejoin:miter;stroke-miterlimit:10;stroke-dasharray:none"
           stroke-linecap="round"
           id="path13499" />
        <path
           d="m 38.057176,24.339171 c -0.08562,0 -0.15483,-0.06916 -0.15483,-0.154375 0,-0.484582 -0.395435,-0.878702 -0.881292,-0.878702 -0.08562,0 -0.154829,-0.06916 -0.154829,-0.154375 0,-0.08522 0.06921,-0.154375 0.154829,-0.154375 0.656634,0 1.190951,0.532748 1.190951,1.187452 0,0.08522 -0.06921,0.154375 -0.154829,0.154375 z"
           style="fill:#000000;fill-rule:nonzero;stroke:none;stroke-width:0.154602;stroke-linecap:butt;stroke-linejoin:miter;stroke-miterlimit:10;stroke-dasharray:none"
           stroke-linecap="round"
           id="path13501" />
        <path
           d="m 37.703235,25.003138 c -0.0497,0 -0.09863,-0.02377 -0.128509,-0.06792 -0.04784,-0.0707 -0.02911,-0.166571 0.04181,-0.214272 0.178983,-0.120567 0.28597,-0.3211 0.28597,-0.536144 0,-0.08522 0.06921,-0.154376 0.154831,-0.154376 0.08562,0 0.154829,0.06916 0.154829,0.154376 0,0.317858 -0.157926,0.613795 -0.422375,0.791943 -0.02663,0.01791 -0.05667,0.0264 -0.08655,0.0264 z"
           style="fill:#000000;fill-rule:nonzero;stroke:none;stroke-width:0.154602;stroke-linecap:butt;stroke-linejoin:miter;stroke-miterlimit:10;stroke-dasharray:none"
           stroke-linecap="round"
           id="path13503" />
        <path
           d="m 36.266104,25.440944 h -8.245308 c -0.08546,0 -0.154829,-0.06916 -0.154829,-0.154374 0,-0.08522 0.06936,-0.154375 0.154829,-0.154375 h 8.245308 c 0.08562,0 0.15483,0.06916 0.15483,0.154375 0,0.08521 -0.06921,0.154374 -0.15483,0.154374 z"
           style="fill:#000000;fill-rule:nonzero;stroke:none;stroke-width:0.154602;stroke-linecap:butt;stroke-linejoin:miter;stroke-miterlimit:10;stroke-dasharray:none"
           stroke-linecap="round"
           id="path13505" />
        <path
           d="m 35.460215,32.220164 h -6.633374 c -0.08547,0 -0.15483,-0.069 -0.15483,-0.154374 v -6.77922 c 0,-0.08522 0.06936,-0.154375 0.15483,-0.154375 h 6.633374 c 0.08562,0 0.15483,0.06916 0.15483,0.154375 v 6.77922 c 0,0.08537 -0.06921,0.154374 -0.15483,0.154374 z m -6.478544,-0.30875 h 6.323714 v -6.47047 h -6.323714 z"
           style="fill:#000000;fill-rule:nonzero;stroke:none;stroke-width:0.154602;stroke-linecap:butt;stroke-linejoin:miter;stroke-miterlimit:10;stroke-dasharray:none"
           stroke-linecap="round"
           id="path13507" />
        <path
           d="m 36.709382,33.413173 h -9.132018 c -0.08547,0 -0.15483,-0.069 -0.15483,-0.154374 0,-0.743007 0.606314,-1.347385 1.351355,-1.347385 h 6.738968 c 0.745196,0 1.351355,0.604378 1.351355,1.347385 0,0.08537 -0.06921,0.154374 -0.15483,0.154374 z m -8.965731,-0.308749 h 8.799444 c -0.07494,-0.499711 -0.508307,-0.88426 -1.030083,-0.88426 h -6.739123 c -0.521777,0 -0.955146,0.384549 -1.030238,0.88426 z"
           style="fill:#000000;fill-rule:nonzero;stroke:none;stroke-width:0.154602;stroke-linecap:butt;stroke-linejoin:miter;stroke-miterlimit:10;stroke-dasharray:none"
           stroke-linecap="round"
           id="path13509" />
        <path
           d="M 37.308883,34.829872 H 26.978017 c -0.08547,0 -0.154829,-0.069 -0.154829,-0.154375 v -1.416698 c 0,-0.08537 0.06936,-0.154375 0.154829,-0.154375 h 10.331021 c 0.08562,0 0.15483,0.069 0.15483,0.154375 v 1.416698 c -1.55e-4,0.08521 -0.06936,0.154375 -0.154985,0.154375 z m -10.176035,-0.30875 h 10.02136 v -1.107949 h -10.02136 z"
           style="fill:#000000;fill-rule:nonzero;stroke:none;stroke-width:0.154602;stroke-linecap:butt;stroke-linejoin:miter;stroke-miterlimit:10;stroke-dasharray:none"
           stroke-linecap="round"
           id="path13511" />
        <path
           d="m 31.479385,32.220164 h -1.458961 c -0.08547,0 -0.15483,-0.069 -0.15483,-0.154374 v -5.095298 c 0,-0.486127 0.396674,-0.881636 0.884233,-0.881636 0.48756,0 0.884233,0.395509 0.884233,0.881636 v 5.095298 c 1.55e-4,0.08537 -0.06906,0.154374 -0.154675,0.154374 z m -1.303977,-0.30875 h 1.149302 v -4.940922 c 0,-0.315852 -0.257791,-0.572886 -0.574573,-0.572886 -0.316782,0 -0.574574,0.257034 -0.574574,0.572886 v 4.940922 z"
           style="fill:#000000;fill-rule:nonzero;stroke:none;stroke-width:0.154602;stroke-linecap:butt;stroke-linejoin:miter;stroke-miterlimit:10;stroke-dasharray:none"
           stroke-linecap="round"
           id="path13513" />
        <path
           d="m 34.266477,32.220164 h -1.459116 c -0.08562,0 -0.15483,-0.069 -0.15483,-0.154374 v -5.095298 c 0,-0.486127 0.396828,-0.881636 0.884388,-0.881636 0.487559,0 0.884388,0.395509 0.884388,0.881636 v 5.095298 c 0,0.08537 -0.06921,0.154374 -0.15483,0.154374 z m -1.304287,-0.30875 h 1.149457 v -4.940922 c 0,-0.315852 -0.257792,-0.572886 -0.574728,-0.572886 -0.316937,0 -0.574729,0.257034 -0.574729,0.572886 z"
           style="fill:#000000;fill-rule:nonzero;stroke:none;stroke-width:0.154602;stroke-linecap:butt;stroke-linejoin:miter;stroke-miterlimit:10;stroke-dasharray:none"
           stroke-linecap="round"
           id="path13515" />
        <path
           id="circle13517"
           style="stroke-width:0.154602;stroke-miterlimit:10"
           d="m 27.461397,24.13941 a 0.19585973,0.19528426 0 0 1 -0.19586,0.195284 0.19585973,0.19528426 0 0 1 -0.195859,-0.195284 0.19585973,0.19528426 0 0 1 0.195859,-0.195284 0.19585973,0.19528426 0 0 1 0.19586,0.195284 z" />
        <path
           id="circle13519"
           style="stroke-width:0.154602;stroke-miterlimit:10"
           d="m 37.215673,24.13941 a 0.19585973,0.19528426 0 0 1 -0.195859,0.195284 0.19585973,0.19528426 0 0 1 -0.19586,-0.195284 0.19585973,0.19528426 0 0 1 0.19586,-0.195284 0.19585973,0.19528426 0 0 1 0.195859,0.195284 z" />
        <path
           style="fill:none;fill-opacity:1;stroke:#000000;stroke-width:0.183232;stroke-linecap:round;stroke-linejoin:round;stroke-miterlimit:4;stroke-dasharray:none;stroke-dashoffset:0;stroke-opacity:1"
           d="m 28.993091,21.79809 a 1.4287034,1.9189005 57.424537 0 1 -0.05113,-0.08806 c 0.03768,-0.0094 0.106464,-0.07906 0.206863,-0.208874 0.322598,-0.417088 0.612797,-0.563093 1.047192,-0.526641 1.41939,0.119101 1.59664,0.0778 1.881865,-0.439006 0.123281,-0.223371 0.207597,-0.61362 0.183014,-0.744594 a 1.4287034,1.9189005 57.424537 0 1 -0.877756,2.167949 1.4287034,1.9189005 57.424537 0 1 -2.390051,-0.160776 z m -0.084,-0.163088 a 1.4287034,1.9189005 57.424537 0 1 0.921117,-2.074754 1.4287034,1.9189005 57.424537 0 1 2.390033,0.16075 1.4287034,1.9189005 57.424537 0 1 0.01525,0.02626 c -0.008,-0.0023 -0.01769,8.5e-5 -0.02923,0.008 -0.03831,0.0262 -0.122833,0.140367 -0.187785,0.253668 -0.235891,0.411491 -0.532246,0.505728 -1.415446,0.450598 -0.703384,-0.04391 -0.883598,-0.02145 -1.135992,0.141001 -0.234149,0.150707 -0.332427,0.288405 -0.447869,0.627621 -0.06627,0.194746 -0.10297,0.329956 -0.110095,0.406897 z"
           id="path13527"
           inkscape:connector-curvature="0" />
        <path
           style="fill:none;fill-opacity:1;stroke:#000000;stroke-width:0.183232;stroke-linecap:round;stroke-linejoin:round;stroke-miterlimit:4;stroke-dasharray:none;stroke-dashoffset:0;stroke-opacity:1"
           d="m 34.507158,22.293113 a 1.9153395,1.4313596 73.839024 0 1 -0.09934,0.02328 c 0.0019,-0.03867 -0.04505,-0.124504 -0.140577,-0.257923 -0.306921,-0.428687 -0.363005,-0.747923 -0.202169,-1.151908 0.525529,-1.320027 0.537227,-1.501145 0.123764,-1.923055 -0.178709,-0.182357 -0.528896,-0.375876 -0.661746,-0.39036 a 1.9153395,1.4313596 73.839024 0 1 1.826808,1.465706 1.9153395,1.4313596 73.839024 0 1 -0.846738,2.234259 z m -0.180892,0.03291 a 1.9153395,1.4313596 73.839024 0 1 -1.724782,-1.480088 1.9153395,1.4313596 73.839024 0 1 0.846708,-2.234249 1.9153395,1.4313596 73.839024 0 1 0.02963,-0.0069 c -0.0045,0.0069 -0.0051,0.01689 -7.9e-4,0.0302 0.01406,0.04414 0.09916,0.157885 0.189103,0.252693 0.326667,0.344322 0.331274,0.654436 0.02248,1.481305 -0.24592,0.658524 -0.276568,0.837009 -0.193746,1.124931 0.07683,0.267109 0.180545,0.400788 0.472728,0.609226 0.167744,0.119666 0.286905,0.193855 0.3587,0.222944 z"
           id="path13531"
           inkscape:connector-curvature="0" />
        <path
           id="path14436"
           style="fill:none;stroke-width:0.0508;stroke-linecap:square;stroke-linejoin:bevel;paint-order:stroke fill markers"
           d="m 48.087738,27.343859 a 15.875,15.875 0 0 1 -15.875,15.875 15.875,15.875 0 0 1 -15.875,-15.875 15.875,15.875 0 0 1 15.875,-15.875 15.875,15.875 0 0 1 15.875,15.875 z" />
      </g>
    </g>
  </g>
</svg>
