<?xml version="1.0" encoding="UTF-8" standalone="no"?>
<!-- Created with Inkscape (http://www.inkscape.org/) -->

<svg
   width="82.549995mm"
   height="69.849998mm"
   viewBox="0 0 82.549995 69.849998"
   version="1.1"
   id="svg28718"
   inkscape:version="1.2.2 (b0a8486541, 2022-12-01)"
   sodipodi:docname="label_mocha.svg"
   inkscape:export-filename="../path/label_mocha.svg"
   inkscape:export-xdpi="61.6"
   inkscape:export-ydpi="61.6"
   xmlns:inkscape="http://www.inkscape.org/namespaces/inkscape"
   xmlns:sodipodi="http://sodipodi.sourceforge.net/DTD/sodipodi-0.dtd"
   xmlns="http://www.w3.org/2000/svg"
   xmlns:svg="http://www.w3.org/2000/svg">
  <sodipodi:namedview
     id="namedview28720"
     pagecolor="#ffffff"
     bordercolor="#eeeeee"
     borderopacity="1"
     inkscape:showpageshadow="0"
     inkscape:pageopacity="0"
     inkscape:pagecheckerboard="0"
     inkscape:deskcolor="#f0f0f0"
     inkscape:document-units="mm"
     showgrid="false"
     inkscape:zoom="1.4142136"
     inkscape:cx="100.40916"
     inkscape:cy="114.19774"
     inkscape:window-width="838"
     inkscape:window-height="1034"
     inkscape:window-x="1712"
     inkscape:window-y="36"
     inkscape:window-maximized="1"
     inkscape:current-layer="g19777" />
  <defs
     id="defs28715" />
  <g
     inkscape:label="Layer 1"
     inkscape:groupmode="layer"
     id="layer1"
     transform="translate(-24.559225,-5.0386623)">
    <g
       id="g19777"
       transform="translate(-46.326535,-10.389692)">
      <g
         id="g19759"
         transform="matrix(0.9380594,0,0,0.93530322,50.290828,5.1697142)">
        <g
           style="opacity:1;fill:none;fill-rule:nonzero;stroke:none;stroke-width:0;stroke-linecap:butt;stroke-linejoin:miter;stroke-miterlimit:10;stroke-dasharray:none"
           transform="matrix(0.26911891,0,0,0.26911891,53.844887,19.782708)"
           id="g19751">
          <path
             d="M 11.596,27.637 C 5.202,27.637 0,22.436 0,16.042 0,9.648 5.202,4.445 11.596,4.445 H 45 c 0.552,0 1,0.448 1,1 0,0.552 -0.448,1 -1,1 H 11.596 C 6.305,6.445 2,10.75 2,16.042 c 0,5.291 4.305,9.596 9.596,9.596 0.552,0 1,0.448 1,1 0,0.552 -0.448,0.999 -1,0.999 z"
             style="opacity:1;fill:#000000;fill-rule:nonzero;stroke:none;stroke-width:1;stroke-linecap:butt;stroke-linejoin:miter;stroke-miterlimit:10;stroke-dasharray:none"
             stroke-linecap="round"
             id="path19717" />
          <path
             d="m 11.638,27.637 c -0.552,0 -1,-0.448 -1,-1 0,-0.552 0.448,-1 1,-1 4.574,0 8.295,-3.721 8.295,-8.294 0,-0.552 0.448,-1 1,-1 0.552,0 1,0.448 1,1 0,5.676 -4.619,10.294 -10.295,10.294 z"
             style="opacity:1;fill:#000000;fill-rule:nonzero;stroke:none;stroke-width:1;stroke-linecap:butt;stroke-linejoin:miter;stroke-miterlimit:10;stroke-dasharray:none"
             stroke-linecap="round"
             id="path19719" />
          <path
             d="M 69.067,18.343 H 20.933 c -0.552,0 -1,-0.448 -1,-1 0,-3.549 -2.887,-6.436 -6.436,-6.436 -0.552,0 -1,-0.448 -1,-1 0,-0.552 0.448,-1 1,-1 4.313,0 7.88,3.254 8.376,7.436 h 46.252 c 0.496,-4.182 4.064,-7.436 8.377,-7.436 0.553,0 1,0.448 1,1 0,0.552 -0.447,1 -1,1 -3.549,0 -6.436,2.887 -6.436,6.436 10e-4,0.552 -0.446,1 -0.999,1 z"
             style="opacity:1;fill:#000000;fill-rule:nonzero;stroke:none;stroke-width:1;stroke-linecap:butt;stroke-linejoin:miter;stroke-miterlimit:10;stroke-dasharray:none"
             stroke-linecap="round"
             id="path19721" />
          <path
             d="m 6.805,17.599 c -0.552,0 -1,-0.448 -1,-1 0,-4.242 3.451,-7.692 7.692,-7.692 0.552,0 1,0.448 1,1 0,0.552 -0.448,1 -1,1 -3.139,0 -5.692,2.554 -5.692,5.692 0,0.552 -0.448,1 -1,1 z"
             style="opacity:1;fill:#000000;fill-rule:nonzero;stroke:none;stroke-width:1;stroke-linecap:butt;stroke-linejoin:miter;stroke-miterlimit:10;stroke-dasharray:none"
             stroke-linecap="round"
             id="path19723" />
          <path
             d="m 9.091,21.9 c -0.192,0 -0.387,-0.055 -0.559,-0.171 -1.708,-1.154 -2.728,-3.071 -2.728,-5.13 0,-0.552 0.448,-1 1,-1 0.552,0 1,0.448 1,1 0,1.393 0.69,2.691 1.847,3.473 0.458,0.309 0.578,0.931 0.269,1.388 -0.193,0.286 -0.508,0.44 -0.829,0.44 z"
             style="opacity:1;fill:#000000;fill-rule:nonzero;stroke:none;stroke-width:1;stroke-linecap:butt;stroke-linejoin:miter;stroke-miterlimit:10;stroke-dasharray:none"
             stroke-linecap="round"
             id="path19725" />
          <path
             d="m 78.404,27.637 c -0.553,0 -1,-0.448 -1,-1 0,-0.552 0.447,-1 1,-1 5.291,0 9.596,-4.305 9.596,-9.596 0,-5.292 -4.305,-9.596 -9.596,-9.596 H 45 c -0.552,0 -1,-0.448 -1,-1 0,-0.552 0.448,-1 1,-1 H 78.404 C 84.798,4.445 90,9.647 90,16.042 90,22.437 84.798,27.637 78.404,27.637 Z"
             style="opacity:1;fill:#000000;fill-rule:nonzero;stroke:none;stroke-width:1;stroke-linecap:butt;stroke-linejoin:miter;stroke-miterlimit:10;stroke-dasharray:none"
             stroke-linecap="round"
             id="path19727" />
          <path
             d="m 78.362,27.637 c -5.677,0 -10.295,-4.618 -10.295,-10.294 0,-0.552 0.447,-1 1,-1 0.553,0 1,0.448 1,1 0,4.574 3.721,8.294 8.295,8.294 0.553,0 1,0.448 1,1 0,0.552 -0.447,1 -1,1 z"
             style="opacity:1;fill:#000000;fill-rule:nonzero;stroke:none;stroke-width:1;stroke-linecap:butt;stroke-linejoin:miter;stroke-miterlimit:10;stroke-dasharray:none"
             stroke-linecap="round"
             id="path19729" />
          <path
             d="m 83.195,17.599 c -0.553,0 -1,-0.448 -1,-1 0,-3.139 -2.554,-5.692 -5.692,-5.692 -0.553,0 -1,-0.448 -1,-1 0,-0.552 0.447,-1 1,-1 4.241,0 7.692,3.451 7.692,7.692 0,0.552 -0.447,1 -1,1 z"
             style="opacity:1;fill:#000000;fill-rule:nonzero;stroke:none;stroke-width:1;stroke-linecap:butt;stroke-linejoin:miter;stroke-miterlimit:10;stroke-dasharray:none"
             stroke-linecap="round"
             id="path19731" />
          <path
             d="m 80.909,21.9 c -0.321,0 -0.637,-0.154 -0.83,-0.44 -0.309,-0.458 -0.188,-1.079 0.27,-1.388 1.156,-0.781 1.847,-2.08 1.847,-3.473 0,-0.552 0.447,-1 1,-1 0.553,0 1,0.448 1,1 0,2.059 -1.02,3.976 -2.728,5.13 -0.172,0.116 -0.366,0.171 -0.559,0.171 z"
             style="opacity:1;fill:#000000;fill-rule:nonzero;stroke:none;stroke-width:1;stroke-linecap:butt;stroke-linejoin:miter;stroke-miterlimit:10;stroke-dasharray:none"
             stroke-linecap="round"
             id="path19733" />
          <path
             d="M 71.627,24.736 H 18.373 c -0.552,0 -1,-0.448 -1,-1 0,-0.552 0.448,-1 1,-1 h 53.254 c 0.553,0 1,0.448 1,1 0,0.552 -0.447,1 -1,1 z"
             style="opacity:1;fill:#000000;fill-rule:nonzero;stroke:none;stroke-width:1;stroke-linecap:butt;stroke-linejoin:miter;stroke-miterlimit:10;stroke-dasharray:none"
             stroke-linecap="round"
             id="path19735" />
          <path
             d="M 66.422,68.65 H 23.579 c -0.552,0 -1,-0.447 -1,-1 V 23.736 c 0,-0.552 0.448,-1 1,-1 h 42.843 c 0.553,0 1,0.448 1,1 V 67.65 c 0,0.553 -0.447,1 -1,1 z m -41.843,-2 H 65.422 V 24.736 H 24.579 Z"
             style="opacity:1;fill:#000000;fill-rule:nonzero;stroke:none;stroke-width:1;stroke-linecap:butt;stroke-linejoin:miter;stroke-miterlimit:10;stroke-dasharray:none"
             stroke-linecap="round"
             id="path19737" />
          <path
             d="M 74.49,76.378 H 15.509 c -0.552,0 -1,-0.447 -1,-1 0,-4.813 3.916,-8.728 8.728,-8.728 h 43.525 c 4.813,0 8.728,3.915 8.728,8.728 0,0.553 -0.447,1 -1,1 z m -57.907,-2 H 73.416 C 72.932,71.141 70.133,68.65 66.763,68.65 H 23.237 c -3.37,0 -6.169,2.491 -6.654,5.728 z"
             style="opacity:1;fill:#000000;fill-rule:nonzero;stroke:none;stroke-width:1;stroke-linecap:butt;stroke-linejoin:miter;stroke-miterlimit:10;stroke-dasharray:none"
             stroke-linecap="round"
             id="path19739" />
          <path
             d="M 78.362,85.555 H 11.638 c -0.552,0 -1,-0.447 -1,-1 v -9.177 c 0,-0.553 0.448,-1 1,-1 h 66.725 c 0.553,0 1,0.447 1,1 v 9.177 c -0.001,0.552 -0.448,1 -1.001,1 z m -65.724,-2 H 77.363 V 76.378 H 12.638 Z"
             style="opacity:1;fill:#000000;fill-rule:nonzero;stroke:none;stroke-width:1;stroke-linecap:butt;stroke-linejoin:miter;stroke-miterlimit:10;stroke-dasharray:none"
             stroke-linecap="round"
             id="path19741" />
          <path
             d="m 40.711,68.65 h -9.423 c -0.552,0 -1,-0.447 -1,-1 V 34.644 c 0,-3.149 2.562,-5.711 5.711,-5.711 3.149,0 5.711,2.562 5.711,5.711 V 67.65 c 10e-4,0.553 -0.446,1 -0.999,1 z m -8.422,-2 h 7.423 V 34.644 c 0,-2.046 -1.665,-3.711 -3.711,-3.711 -2.046,0 -3.711,1.665 -3.711,3.711 V 66.65 Z"
             style="opacity:1;fill:#000000;fill-rule:nonzero;stroke:none;stroke-width:1;stroke-linecap:butt;stroke-linejoin:miter;stroke-miterlimit:10;stroke-dasharray:none"
             stroke-linecap="round"
             id="path19743" />
          <path
             d="m 58.712,68.65 h -9.424 c -0.553,0 -1,-0.447 -1,-1 V 34.644 c 0,-3.149 2.563,-5.711 5.712,-5.711 3.149,0 5.712,2.562 5.712,5.711 V 67.65 c 0,0.553 -0.447,1 -1,1 z m -8.424,-2 h 7.424 V 34.644 c 0,-2.046 -1.665,-3.711 -3.712,-3.711 -2.047,0 -3.712,1.665 -3.712,3.711 z"
             style="opacity:1;fill:#000000;fill-rule:nonzero;stroke:none;stroke-width:1;stroke-linecap:butt;stroke-linejoin:miter;stroke-miterlimit:10;stroke-dasharray:none"
             stroke-linecap="round"
             id="path19745" />
          <circle
             cx="13.495"
             cy="16.305"
             r="1.265"
             style="opacity:1;fill:#000000;fill-rule:nonzero;stroke:none;stroke-width:1;stroke-linecap:butt;stroke-linejoin:miter;stroke-miterlimit:10;stroke-dasharray:none"
             id="circle19747" />
          <circle
             cx="76.495003"
             cy="16.305"
             r="1.265"
             style="opacity:1;fill:#000000;fill-rule:nonzero;stroke:none;stroke-width:1;stroke-linecap:butt;stroke-linejoin:miter;stroke-miterlimit:10;stroke-dasharray:none"
             id="circle19749" />
        </g>
        <g
           id="g19757"
           transform="matrix(0.07354129,0,0,0.07354129,97.450586,2.1697072)"
           style="fill:none;fill-opacity:1;stroke:#000000;stroke-width:2.80181;stroke-dasharray:none;stroke-opacity:1">
          <path
             style="opacity:1;fill:none;fill-opacity:1;stroke:#000000;stroke-width:4.3371;stroke-linecap:round;stroke-linejoin:round;stroke-miterlimit:4;stroke-dasharray:none;stroke-dashoffset:0;stroke-opacity:1"
             d="m -502.72679,243.66457 a 33.838039,45.392488 57.156649 0 1 -1.20844,-2.08737 c 0.89063,-0.2218 2.51629,-1.87419 4.88925,-4.95131 7.62465,-9.88701 14.48353,-13.34802 24.75052,-12.48394 33.5475,2.82326 37.73685,1.84407 44.47819,-10.40654 2.91375,-5.29497 4.90655,-14.54574 4.32554,-17.65047 a 33.838039,45.392488 57.156649 0 1 -20.74589,51.39082 33.838039,45.392488 57.156649 0 1 -56.4892,-3.81117 z m -1.98541,-3.86599 a 33.838039,45.392488 57.156649 0 1 21.77076,-49.18161 33.838039,45.392488 57.156649 0 1 56.48878,3.81055 33.838039,45.392488 57.156649 0 1 0.36056,0.62258 c -0.18918,-0.0546 -0.41802,0.002 -0.69074,0.1887 -0.90529,0.62114 -2.90319,3.32736 -4.43836,6.01315 -5.57532,9.75431 -12.57971,11.98818 -33.45427,10.68133 -16.62459,-1.04081 -20.88396,-0.50842 -26.84933,3.3424 -5.53415,3.57248 -7.85697,6.83659 -10.58545,14.87763 -1.56643,4.61643 -2.43373,7.82153 -2.60213,9.64541 z"
             id="path19753"
             inkscape:connector-curvature="0" />
          <path
             style="opacity:1;fill:none;fill-opacity:1;stroke:#000000;stroke-width:4.3371;stroke-linecap:round;stroke-linejoin:round;stroke-miterlimit:4;stroke-dasharray:none;stroke-dashoffset:0;stroke-opacity:1"
             d="m -372.40099,255.39898 a 45.392488,33.838039 73.996786 0 1 -2.34796,0.5519 c 0.0457,-0.91669 -1.06485,-2.95132 -3.32256,-6.11399 -7.25413,-10.16196 -8.57968,-17.72938 -4.7783,-27.30575 12.42098,-31.29098 12.69744,-35.58435 2.92517,-45.58563 -4.22379,-4.32276 -12.50053,-8.91008 -15.64045,-9.25342 a 45.392488,33.838039 73.996786 0 1 43.17688,34.74427 45.392488,33.838039 73.996786 0 1 -20.01277,52.96266 z m -4.2754,0.78028 a 45.392488,33.838039 73.996786 0 1 -40.76549,-35.08518 45.392488,33.838039 73.996786 0 1 20.01207,-52.96243 45.392488,33.838039 73.996786 0 1 0.70033,-0.16475 c -0.10709,0.16525 -0.11995,0.40047 -0.0196,0.7158 0.33224,1.04642 2.34362,3.74263 4.46949,5.99005 7.72083,8.16208 7.82971,15.51326 0.53149,35.11405 -5.81235,15.61015 -6.53674,19.84111 -4.57924,26.66624 1.81602,6.33178 4.26722,9.50061 11.173,14.44159 3.96467,2.83666 6.78106,4.59529 8.47794,5.28485 z"
             id="path19755"
             inkscape:connector-curvature="0" />
        </g>
      </g>
      <rect
         style="fill:none;fill-opacity:1;stroke:none;stroke-width:0.0540409;stroke-linecap:square;stroke-linejoin:bevel;stroke-dasharray:none;stroke-opacity:1;paint-order:stroke fill markers"
         id="rect19761"
         width="82.495956"
         height="69.795959"
         x="70.912781"
         y="15.455375" />
      <g
         aria-label="Maple Cacao Cold Brew ethiopian yirgacheffe, organic"
         id="text19767"
         style="font-size:8.46667px;line-height:0.85;font-family:Raleway;-inkscape-font-specification:Raleway;text-align:center;letter-spacing:0px;word-spacing:0px;text-anchor:middle;stroke-width:0.264583">
        <path
           d="m 78.890954,51.424882 1.374592,4.297411 1.374593,-4.297411 h 0.853694 v 5.26686 h -0.661975 v -2.051037 l 0.0615,-2.054654 -1.37821,4.105691 H 80.00872 l -1.370975,-4.091221 0.06149,2.040184 v 2.051037 H 78.03726 v -5.26686 z"
           style="font-size:7.40833px;font-family:'Roboto Condensed';-inkscape-font-specification:'Roboto Condensed, '"
           id="path54257" />
        <path
           d="m 85.557727,56.691742 q -0.05788,-0.126607 -0.0832,-0.426847 -0.34003,0.499194 -0.868163,0.499194 -0.53175,0 -0.83199,-0.296623 -0.296623,-0.30024 -0.296623,-0.842842 0,-0.596862 0.405143,-0.947745 0.405143,-0.350883 1.110526,-0.358118 h 0.470255 v -0.415995 q 0,-0.350883 -0.155546,-0.499194 -0.155546,-0.148311 -0.473872,-0.148311 -0.289388,0 -0.470256,0.173632 -0.180867,0.170016 -0.180867,0.434082 h -0.640271 q 0,-0.30024 0.17725,-0.571541 0.17725,-0.274918 0.47749,-0.430464 0.30024,-0.155546 0.66921,-0.155546 0.60048,0 0.911572,0.30024 0.314709,0.296622 0.321944,0.868163 V 55.8489 q 0.0036,0.452168 0.12299,0.784964 v 0.05788 z m -0.853694,-0.510046 q 0.235128,0 0.448551,-0.130225 0.213424,-0.130224 0.311092,-0.325561 v -0.933276 h -0.361734 q -0.455786,0.0072 -0.719853,0.206189 -0.264066,0.195337 -0.264066,0.549837 0,0.332796 0.133842,0.484724 0.133842,0.148312 0.452168,0.148312 z"
           style="font-size:7.40833px;font-family:'Roboto Condensed';-inkscape-font-specification:'Roboto Condensed, '"
           id="path54259" />
        <path
           d="m 89.92025,54.922858 q 0,0.929659 -0.336414,1.385445 -0.332796,0.455786 -0.944128,0.455786 -0.589628,0 -0.907954,-0.444934 v 1.877404 H 87.0951 v -5.418788 h 0.578776 l 0.03256,0.434082 q 0.321944,-0.506429 0.922424,-0.506429 0.643888,0 0.962215,0.448551 0.318327,0.448551 0.329179,1.342036 z m -0.636654,-0.365352 q 0,-0.658357 -0.202571,-0.969449 -0.202572,-0.314709 -0.651123,-0.314709 -0.459403,0 -0.698148,0.459403 v 2.036567 q 0.235127,0.448551 0.705383,0.448551 0.434082,0 0.636653,-0.311092 0.206189,-0.314709 0.209806,-0.958597 z"
           style="font-size:7.40833px;font-family:'Roboto Condensed';-inkscape-font-specification:'Roboto Condensed, '"
           id="path54261" />
        <path
           d="m 91.435919,56.691742 h -0.640271 v -5.556248 h 0.640271 z"
           style="font-size:7.40833px;font-family:'Roboto Condensed';-inkscape-font-specification:'Roboto Condensed, '"
           id="path54263" />
        <path
           d="m 93.841456,56.764089 q -0.730705,0 -1.121379,-0.434082 -0.390673,-0.437699 -0.397908,-1.280541 v -0.473873 q 0,-0.875398 0.379822,-1.370975 0.383439,-0.499194 1.067118,-0.499194 0.687296,0 1.027327,0.437699 0.34003,0.437699 0.347265,1.36374 v 0.419613 h -2.184878 v 0.09043 q 0,0.629418 0.235127,0.915189 0.238745,0.28577 0.683679,0.28577 0.282153,0 0.495577,-0.104903 0.217041,-0.10852 0.405143,-0.340031 l 0.332796,0.405143 q -0.415995,0.586011 -1.269689,0.586011 z m -0.07235,-3.508828 q -0.397909,0 -0.589628,0.274918 -0.19172,0.271301 -0.217041,0.84646 h 1.54099 v -0.08682 q -0.02532,-0.557071 -0.202571,-0.795816 -0.173633,-0.238745 -0.53175,-0.238745 z"
           style="font-size:7.40833px;font-family:'Roboto Condensed';-inkscape-font-specification:'Roboto Condensed, '"
           id="path54265" />
        <path
           d="m 101.00019,55.020527 q -0.0434,0.846459 -0.47749,1.295011 -0.43047,0.448551 -1.219048,0.448551 -0.792199,0 -1.258837,-0.60048 -0.466638,-0.604097 -0.466638,-1.635042 v -0.95498 q 0,-1.027327 0.47749,-1.624189 0.481107,-0.596863 1.30948,-0.596863 0.763263,0 1.179253,0.459404 0.41962,0.455786 0.45579,1.305863 h -0.66921 q -0.0434,-0.643889 -0.2713,-0.918807 -0.227895,-0.274919 -0.694533,-0.274919 -0.538985,0 -0.828373,0.42323 -0.289388,0.419613 -0.289388,1.233516 v 0.965832 q 0,0.799434 0.267684,1.226281 0.271301,0.426848 0.788582,0.426848 0.517281,0 0.745178,-0.256832 0.22789,-0.256832 0.28215,-0.922424 z"
           style="font-size:7.40833px;font-family:'Roboto Condensed';-inkscape-font-specification:'Roboto Condensed, '"
           id="path54267" />
        <path
           d="m 103.82172,56.691742 q -0.0579,-0.126607 -0.0832,-0.426847 -0.34003,0.499194 -0.86816,0.499194 -0.53175,0 -0.83199,-0.296623 -0.29663,-0.30024 -0.29663,-0.842842 0,-0.596862 0.40515,-0.947745 0.40514,-0.350883 1.11052,-0.358118 h 0.47026 v -0.415995 q 0,-0.350883 -0.15555,-0.499194 -0.15554,-0.148311 -0.47387,-0.148311 -0.28939,0 -0.47025,0.173632 -0.18087,0.170016 -0.18087,0.434082 h -0.64027 q 0,-0.30024 0.17725,-0.571541 0.17725,-0.274918 0.47749,-0.430464 0.30024,-0.155546 0.66921,-0.155546 0.60048,0 0.91157,0.30024 0.31471,0.296622 0.32194,0.868163 V 55.8489 q 0.004,0.452168 0.12299,0.784964 v 0.05788 z m -0.85369,-0.510046 q 0.23512,0 0.44855,-0.130225 0.21342,-0.130224 0.31109,-0.325561 v -0.933276 h -0.36174 q -0.45578,0.0072 -0.71985,0.206189 -0.26406,0.195337 -0.26406,0.549837 0,0.332796 0.13384,0.484724 0.13384,0.148312 0.45217,0.148312 z"
           style="font-size:7.40833px;font-family:'Roboto Condensed';-inkscape-font-specification:'Roboto Condensed, '"
           id="path54269" />
        <path
           d="m 106.7156,56.217869 q 0.31833,0 0.51005,-0.195337 0.19172,-0.198954 0.2098,-0.564306 h 0.6041 q -0.0217,0.564306 -0.40153,0.936893 -0.3762,0.36897 -0.92242,0.36897 -0.72709,0 -1.11053,-0.455786 -0.37982,-0.459403 -0.37982,-1.36374 v -0.430465 q 0,-0.88625 0.37982,-1.345654 0.37983,-0.46302 1.10691,-0.46302 0.60048,0 0.95137,0.379821 0.3545,0.379822 0.3762,1.038179 h -0.6041 q -0.0217,-0.434081 -0.2098,-0.651122 -0.18449,-0.217041 -0.51367,-0.217041 -0.42684,0 -0.63303,0.282153 -0.20619,0.278536 -0.21343,0.918806 v 0.499195 q 0,0.690913 0.20257,0.976684 0.20619,0.28577 0.64751,0.28577 z"
           style="font-size:7.40833px;font-family:'Roboto Condensed';-inkscape-font-specification:'Roboto Condensed, '"
           id="path54271" />
        <path
           d="m 110.79235,56.691742 q -0.0579,-0.126607 -0.0832,-0.426847 -0.34003,0.499194 -0.86816,0.499194 -0.53175,0 -0.83199,-0.296623 -0.29662,-0.30024 -0.29662,-0.842842 0,-0.596862 0.40514,-0.947745 0.40514,-0.350883 1.11052,-0.358118 h 0.47026 v -0.415995 q 0,-0.350883 -0.15555,-0.499194 -0.15554,-0.148311 -0.47387,-0.148311 -0.28939,0 -0.47025,0.173632 -0.18087,0.170016 -0.18087,0.434082 h -0.64027 q 0,-0.30024 0.17725,-0.571541 0.17725,-0.274918 0.47749,-0.430464 0.30024,-0.155546 0.66921,-0.155546 0.60048,0 0.91157,0.30024 0.31471,0.296622 0.32194,0.868163 V 55.8489 q 0.004,0.452168 0.12299,0.784964 v 0.05788 z m -0.85369,-0.510046 q 0.23512,0 0.44855,-0.130225 0.21342,-0.130224 0.31109,-0.325561 v -0.933276 h -0.36174 q -0.45578,0.0072 -0.71985,0.206189 -0.26406,0.195337 -0.26406,0.549837 0,0.332796 0.13384,0.484724 0.13384,0.148312 0.45217,0.148312 z"
           style="font-size:7.40833px;font-family:'Roboto Condensed';-inkscape-font-specification:'Roboto Condensed, '"
           id="path54273" />
        <path
           d="m 112.19226,54.553889 q 0,-0.853694 0.41238,-1.349271 0.416,-0.499194 1.09606,-0.499194 0.68006,0 1.09244,0.484724 0.41599,0.484725 0.42684,1.320333 v 0.412377 q 0,0.850077 -0.41237,1.345654 -0.41238,0.495577 -1.09968,0.495577 -0.68006,0 -1.09244,-0.481107 -0.40876,-0.481108 -0.42323,-1.302246 z m 0.64027,0.368969 q 0,0.604098 0.23513,0.951363 0.23875,0.343648 0.64027,0.343648 0.84646,0 0.87178,-1.222664 v -0.441316 q 0,-0.60048 -0.23874,-0.947745 -0.23875,-0.350883 -0.64027,-0.350883 -0.39429,0 -0.63304,0.350883 -0.23513,0.347265 -0.23513,0.944128 z"
           style="font-size:7.40833px;font-family:'Roboto Condensed';-inkscape-font-specification:'Roboto Condensed, '"
           id="path54275" />
        <path
           d="m 121.13435,55.020527 q -0.0434,0.846459 -0.47749,1.295011 -0.43046,0.448551 -1.21904,0.448551 -0.7922,0 -1.25884,-0.60048 -0.46664,-0.604097 -0.46664,-1.635042 v -0.95498 q 0,-1.027327 0.47749,-1.624189 0.48111,-0.596863 1.30948,-0.596863 0.76326,0 1.17926,0.459404 0.41961,0.455786 0.45578,1.305863 h -0.66921 q -0.0434,-0.643889 -0.2713,-0.918807 -0.22789,-0.274919 -0.69453,-0.274919 -0.53898,0 -0.82837,0.42323 -0.28939,0.419613 -0.28939,1.233516 v 0.965832 q 0,0.799434 0.26768,1.226281 0.2713,0.426848 0.78859,0.426848 0.51728,0 0.74517,-0.256832 0.22789,-0.256832 0.28215,-0.922424 z"
           style="font-size:7.40833px;font-family:'Roboto Condensed';-inkscape-font-specification:'Roboto Condensed, '"
           id="path54277" />
        <path
           d="m 121.80718,54.553889 q 0,-0.853694 0.41238,-1.349271 0.41599,-0.499194 1.09605,-0.499194 0.68006,0 1.09244,0.484724 0.416,0.484725 0.42685,1.320333 v 0.412377 q 0,0.850077 -0.41238,1.345654 -0.41238,0.495577 -1.09967,0.495577 -0.68006,0 -1.09244,-0.481107 -0.40876,-0.481108 -0.42323,-1.302246 z m 0.64027,0.368969 q 0,0.604098 0.23513,0.951363 0.23874,0.343648 0.64027,0.343648 0.84646,0 0.87178,-1.222664 v -0.441316 q 0,-0.60048 -0.23875,-0.947745 -0.23874,-0.350883 -0.64027,-0.350883 -0.39429,0 -0.63303,0.350883 -0.23513,0.347265 -0.23513,0.944128 z"
           style="font-size:7.40833px;font-family:'Roboto Condensed';-inkscape-font-specification:'Roboto Condensed, '"
           id="path54279" />
        <path
           d="m 126.35057,56.691742 h -0.64027 v -5.556248 h 0.64027 z"
           style="font-size:7.40833px;font-family:'Roboto Condensed';-inkscape-font-specification:'Roboto Condensed, '"
           id="path54281" />
        <path
           d="m 127.22235,54.557506 q 0,-0.904337 0.33641,-1.37821 0.34003,-0.473872 0.97307,-0.473872 0.56069,0 0.8754,0.455786 v -2.025716 h 0.64027 v 5.556248 h -0.58601 l -0.0326,-0.419612 q -0.31471,0.491959 -0.90072,0.491959 -0.60771,0 -0.95498,-0.470255 -0.34364,-0.473873 -0.35088,-1.334802 z m 0.64027,0.365352 q 0,0.658358 0.19534,0.96945 0.19534,0.307475 0.63665,0.307475 0.47749,0 0.71262,-0.481108 v -1.975072 q -0.24598,-0.470255 -0.709,-0.470255 -0.44132,0 -0.63665,0.311091 -0.19534,0.307475 -0.19896,0.947746 z"
           style="font-size:7.40833px;font-family:'Roboto Condensed';-inkscape-font-specification:'Roboto Condensed, '"
           id="path54283" />
        <path
           d="m 132.81839,56.691742 v -5.26686 h 1.5012 q 0.71985,0 1.08158,0.350883 0.36536,0.350883 0.36536,1.052649 0,0.368969 -0.18449,0.651122 -0.18448,0.282154 -0.49919,0.4377 0.36173,0.10852 0.57154,0.444933 0.21342,0.336414 0.21342,0.810287 0,0.709 -0.39067,1.114143 -0.38706,0.405143 -1.10691,0.405143 z m 0.66197,-2.463414 v 1.89549 h 0.90434 q 0.3762,0 0.59686,-0.245979 0.22066,-0.249598 0.22066,-0.698149 0,-0.951362 -0.80305,-0.951362 z m 0,-0.557072 h 0.85008 q 0.34365,0 0.55345,-0.23151 0.21343,-0.231511 0.21343,-0.61495 0,-0.434082 -0.19172,-0.629418 -0.19172,-0.198955 -0.58601,-0.198955 h -0.83923 z"
           style="font-size:7.40833px;font-family:'Roboto Condensed';-inkscape-font-specification:'Roboto Condensed, '"
           id="path54285" />
        <path
           d="m 138.38549,53.378251 q -0.13385,-0.02532 -0.28939,-0.02532 -0.49196,0 -0.6873,0.538985 v 2.799828 h -0.64027 v -3.913971 h 0.62218 l 0.0109,0.397908 q 0.25683,-0.470255 0.72708,-0.470255 0.15193,0 0.25322,0.05064 z"
           style="font-size:7.40833px;font-family:'Roboto Condensed';-inkscape-font-specification:'Roboto Condensed, '"
           id="path54287" />
        <path
           d="m 140.42205,56.764089 q -0.7307,0 -1.12137,-0.434082 -0.39068,-0.437699 -0.39791,-1.280541 v -0.473873 q 0,-0.875398 0.37982,-1.370975 0.38344,-0.499194 1.06712,-0.499194 0.68729,0 1.02732,0.437699 0.34003,0.437699 0.34727,1.36374 v 0.419613 h -2.18488 v 0.09043 q 0,0.629418 0.23513,0.915189 0.23874,0.28577 0.68368,0.28577 0.28215,0 0.49557,-0.104903 0.21704,-0.10852 0.40515,-0.340031 l 0.33279,0.405143 q -0.41599,0.586011 -1.26969,0.586011 z m -0.0723,-3.508828 q -0.39791,0 -0.58963,0.274918 -0.19172,0.271301 -0.21704,0.84646 h 1.54099 v -0.08682 q -0.0253,-0.557071 -0.20257,-0.795816 -0.17364,-0.238745 -0.53175,-0.238745 z"
           style="font-size:7.40833px;font-family:'Roboto Condensed';-inkscape-font-specification:'Roboto Condensed, '"
           id="path54289" />
        <path
           d="m 145.41038,55.566747 0.59324,-2.788976 h 0.63304 l -0.9586,3.913971 h -0.51005 l -0.76326,-2.799828 -0.74517,2.799828 h -0.51366 l -0.95137,-3.913971 h 0.62942 l 0.60772,2.720246 0.72708,-2.720246 h 0.50643 z"
           style="font-size:7.40833px;font-family:'Roboto Condensed';-inkscape-font-specification:'Roboto Condensed, '"
           id="path54291" />
        <path
           d="m 81.604556,62.659687 c 0,0.633412 0.500062,1.27635 1.190625,1.27635 0.371475,0 0.828675,-0.204788 0.981075,-0.59055 l -0.09049,-0.02381 c -0.147637,0.32385 -0.528637,0.519113 -0.890587,0.519113 -0.604838,0 -1.052513,-0.5334 -1.095375,-1.133475 h 2.262187 v -0.05239 c -0.0095,-0.676275 -0.485775,-1.27635 -1.209675,-1.27635 -0.690562,0 -1.128712,0.619125 -1.147762,1.281113 z m 0.09525,-0.04762 c 0.02858,-0.542925 0.40005,-1.138238 1.052512,-1.138238 0.633413,0 1.0668,0.4953 1.109663,1.138238 z"
           style="font-size:4.7625px"
           id="path54293" />
        <path
           d="m 85.433605,63.697912 c -0.0095,0.0048 -0.180975,0.119062 -0.40005,0.119062 -0.166687,0 -0.319087,-0.100012 -0.333375,-0.28575 v -2.0193 h 0.595313 v -0.09525 H 84.70018 v -0.862012 h -0.09525 v 0.862012 h -0.357187 v 0.09525 h 0.357187 v 2.0193 c 0,0.2286 0.200025,0.381 0.428625,0.381 0.261938,0 0.447675,-0.13335 0.452438,-0.138112 z"
           style="font-size:4.7625px"
           id="path54295" />
        <path
           d="m 87.83391,62.512049 c 0,-0.500062 -0.09525,-1.133475 -0.790575,-1.133475 -0.404813,0 -0.823913,0.257175 -1.033463,0.676275 v -1.652587 h -0.09525 v 3.48615 h 0.09525 v -1.5621 c 0.1143,-0.428625 0.5334,-0.852488 1.033463,-0.852488 0.581025,0 0.695325,0.519113 0.695325,1.038225 v 1.376363 h 0.09525 z"
           style="font-size:4.7625px"
           id="path54297" />
        <path
           d="m 88.453039,63.888412 v -2.462213 h -0.09525 v 2.462213 z m 0,-3.109913 v -0.3048 h -0.09525 v 0.3048 z"
           style="font-size:4.7625px"
           id="path54299" />
        <path
           d="m 90.129435,63.936037 c 0.661988,-0.01429 1.176338,-0.600075 1.176338,-1.27635 0,-0.614363 -0.466725,-1.281113 -1.176338,-1.281113 -0.6477,0 -1.176337,0.59055 -1.176337,1.281113 0,0.642937 0.481012,1.262062 1.176337,1.27635 z m -1.081087,-1.27635 c 0,-0.561975 0.428625,-1.185863 1.081087,-1.185863 0.6096,0 1.081088,0.5715 1.081088,1.185863 0,0.561975 -0.428625,1.1811 -1.081088,1.1811 -0.62865,0 -1.057275,-0.566738 -1.081087,-1.1811 z"
           style="font-size:4.7625px"
           id="path54301" />
        <path
           d="m 94.201373,62.659687 c 0,-0.633413 -0.4953,-1.281113 -1.190625,-1.281113 -0.376237,0 -0.757237,0.233363 -0.966787,0.561975 v -0.523875 h -0.09525 v 3.48615 h 0.09525 v -1.58115 c 0.214312,0.333375 0.5715,0.614363 1.00965,0.614363 0.690562,0 1.1049,-0.600075 1.147762,-1.27635 z m -0.09525,0 c -0.0095,0.585787 -0.409575,1.1811 -1.052512,1.1811 -0.43815,0 -0.833438,-0.319088 -1.00965,-0.719138 v -0.890587 c 0,-0.395288 0.585787,-0.757238 0.966787,-0.757238 0.6096,0 1.095375,0.566738 1.095375,1.185863 z"
           style="font-size:4.7625px"
           id="path54303" />
        <path
           d="m 94.653814,63.888412 v -2.462213 h -0.09525 v 2.462213 z m 0,-3.109913 v -0.3048 h -0.09525 v 0.3048 z"
           style="font-size:4.7625px"
           id="path54305" />
        <path
           d="m 97.196985,63.793162 c -0.05239,0 -0.06668,-0.0381 -0.0762,-0.09525 v -1.366838 c 0,-0.5334 -0.309562,-0.9525 -0.904875,-0.9525 -0.3048,0 -0.600075,0.147638 -0.85725,0.32385 l 0.05715,0.0762 c 0.276225,-0.195262 0.561975,-0.3048 0.8001,-0.3048 0.490538,0 0.809625,0.352425 0.809625,0.85725 v 0.280988 c -0.128587,-0.04763 -0.423862,-0.138113 -0.828675,-0.138113 -0.428625,0 -1.019175,0.17145 -1.019175,0.70485 0,0.423863 0.352425,0.757238 0.8001,0.757238 0.385763,0 0.795338,-0.142875 1.04775,-0.466725 v 0.2286 c 0,0.100012 0.06191,0.185737 0.17145,0.1905 z m -0.242887,-0.390525 c -0.195263,0.3048 -0.614363,0.43815 -0.976313,0.43815 -0.366712,0 -0.70485,-0.261938 -0.70485,-0.661988 0,-0.461962 0.519113,-0.6096 0.923925,-0.6096 0.276225,0 0.557213,0.04286 0.828675,0.147638 v 0.490537 c 0,0.05715 -0.02381,0.123825 -0.07144,0.195263 z"
           style="font-size:4.7625px"
           id="path54307" />
        <path
           d="m 99.759211,62.512049 c 0,-0.500062 -0.04286,-1.133475 -0.738188,-1.133475 -0.433387,0 -0.881062,0.276225 -1.08585,0.676275 v -0.638175 h -0.09525 v 2.471738 h 0.09525 v -1.5621 c 0.123825,-0.43815 0.581025,-0.852488 1.08585,-0.852488 0.581025,0 0.642938,0.519113 0.642938,1.038225 v 1.376363 h 0.09525 z"
           style="font-size:4.7625px"
           id="path54309" />
        <path
           d="m 103.95974,61.416674 -1.03346,2.352675 -1.09061,-2.352675 h -0.10478 l 1.14776,2.471738 c -0.37623,0.85725 -0.39052,0.885825 -0.41433,0.9144 -0.0333,0.03334 -0.0714,0.05239 -0.22384,0.05239 v 0.09525 c 0.17621,0 0.27146,-0.0381 0.31909,-0.119062 l 0.0333,-0.05715 1.47162,-3.357563 z"
           style="font-size:4.7625px"
           id="path54311" />
        <path
           d="m 104.51696,63.888412 v -2.462213 h -0.0952 v 2.462213 z m 0,-3.109913 v -0.3048 h -0.0952 v 0.3048 z"
           style="font-size:4.7625px"
           id="path54313" />
        <path
           d="m 106.16954,61.416674 c -0.43339,0 -0.75724,0.238125 -0.96203,0.638175 v -0.638175 h -0.0952 v 2.471738 h 0.0952 v -1.5621 c 0.12383,-0.452438 0.4572,-0.795338 0.96203,-0.814388 z"
           style="font-size:4.7625px"
           id="path54315" />
        <path
           d="m 108.67937,61.426199 v 0.566738 c -0.23812,-0.338138 -0.56197,-0.614363 -1.00964,-0.614363 -0.67628,0 -1.14777,0.619125 -1.14777,1.281113 0,0.633412 0.50007,1.27635 1.19063,1.27635 0.37624,0 0.75724,-0.233363 0.96678,-0.561975 v 0.619125 c 0,0.566737 -0.45243,0.862012 -0.99536,0.862012 -0.40005,0 -0.78105,-0.1524 -0.98107,-0.523875 l -0.0905,0.02858 c 0.18574,0.352425 0.48578,0.59055 1.07156,0.59055 0.56198,0 1.09061,-0.3048 1.09061,-0.957262 v -2.566988 z m -0.081,1.895475 c -0.17621,0.290513 -0.52863,0.519113 -0.88582,0.519113 -0.6096,0 -1.09538,-0.561975 -1.09538,-1.1811 0,-0.561975 0.38577,-1.185863 1.05252,-1.185863 0.42386,0 0.85248,0.3048 1.00964,0.719138 v 0.890587 c 0,0.07144 -0.0286,0.1524 -0.081,0.238125 z"
           style="font-size:4.7625px"
           id="path54317" />
        <path
           d="m 111.43686,63.793162 c -0.0524,0 -0.0667,-0.0381 -0.0762,-0.09525 v -1.366838 c 0,-0.5334 -0.30956,-0.9525 -0.90488,-0.9525 -0.3048,0 -0.60007,0.147638 -0.85725,0.32385 l 0.0572,0.0762 c 0.27623,-0.195262 0.56198,-0.3048 0.8001,-0.3048 0.49054,0 0.80963,0.352425 0.80963,0.85725 v 0.280988 c -0.12859,-0.04763 -0.42386,-0.138113 -0.82868,-0.138113 -0.42862,0 -1.01917,0.17145 -1.01917,0.70485 0,0.423863 0.35242,0.757238 0.8001,0.757238 0.38576,0 0.79534,-0.142875 1.04775,-0.466725 v 0.2286 c 0,0.100012 0.0619,0.185737 0.17145,0.1905 z m -0.24289,-0.390525 c -0.19526,0.3048 -0.61436,0.43815 -0.97631,0.43815 -0.36671,0 -0.70485,-0.261938 -0.70485,-0.661988 0,-0.461962 0.51911,-0.6096 0.92392,-0.6096 0.27623,0 0.55722,0.04286 0.82868,0.147638 v 0.490537 c 0,0.05715 -0.0238,0.123825 -0.0714,0.195263 z"
           style="font-size:4.7625px"
           id="path54319" />
        <path
           d="m 111.95597,62.659687 c 0,0.633412 0.50007,1.27635 1.19063,1.27635 0.36195,0 0.83344,-0.200025 0.96202,-0.585788 l -0.0953,-0.02857 c -0.081,0.314325 -0.55721,0.519113 -0.86677,0.519113 -0.6096,0 -1.09538,-0.561975 -1.09538,-1.1811 0,-0.561975 0.38577,-1.185863 1.05252,-1.185863 0.37147,0 0.69056,0.147638 0.8763,0.490538 l 0.0905,-0.03334 c -0.16192,-0.32385 -0.44291,-0.55245 -0.96678,-0.55245 -0.67628,0 -1.14777,0.619125 -1.14777,1.281113 z"
           style="font-size:4.7625px"
           id="path54321" />
        <path
           d="m 116.69467,62.512049 c 0,-0.500062 -0.0953,-1.133475 -0.79058,-1.133475 -0.40481,0 -0.82391,0.257175 -1.03346,0.676275 v -1.652587 h -0.0953 v 3.48615 h 0.0953 v -1.5621 c 0.1143,-0.428625 0.5334,-0.852488 1.03346,-0.852488 0.58103,0 0.69533,0.519113 0.69533,1.038225 v 1.376363 h 0.0953 z"
           style="font-size:4.7625px"
           id="path54323" />
        <path
           d="m 117.19949,62.659687 c 0,0.633412 0.50006,1.27635 1.19063,1.27635 0.37147,0 0.82867,-0.204788 0.98107,-0.59055 l -0.0905,-0.02381 c -0.14763,0.32385 -0.52863,0.519113 -0.89058,0.519113 -0.60484,0 -1.05252,-0.5334 -1.09538,-1.133475 h 2.26219 v -0.05239 c -0.01,-0.676275 -0.48578,-1.27635 -1.20968,-1.27635 -0.69056,0 -1.12871,0.619125 -1.14776,1.281113 z m 0.0953,-0.04762 c 0.0286,-0.542925 0.40005,-1.138238 1.05251,-1.138238 0.63342,0 1.0668,0.4953 1.10967,1.138238 z"
           style="font-size:4.7625px"
           id="path54325" />
        <path
           d="m 121.96675,60.459412 c 0.24289,0 0.29528,0.06667 0.35243,0.123825 l 0.0762,-0.05715 c 0,-0.01429 -0.0857,-0.161925 -0.42863,-0.161925 -0.28575,0 -0.47625,0.13335 -0.59531,0.314325 -0.0714,-0.05239 -0.23336,-0.123825 -0.48577,-0.123825 -0.48102,0 -0.67628,0.481012 -0.67628,0.904875 v 0.24765 h -0.35719 v 0.09525 h 0.35719 v 2.085975 h 0.0953 v -2.085975 h 0.89059 v 2.085975 h 0.0953 v -2.085975 h 0.88106 v -0.09525 h -0.88106 v -0.390525 c 0,-0.390525 0.18574,-0.85725 0.67627,-0.85725 z m -0.77152,0.85725 v 0.390525 h -0.89059 v -0.24765 c 0,-0.309563 0.12859,-0.809625 0.58103,-0.809625 0.13335,0 0.32385,0.01905 0.43815,0.1143 -0.0905,0.17145 -0.12859,0.376237 -0.12859,0.55245 z"
           style="font-size:4.7625px"
           id="path54327" />
        <path
           d="m 122.43824,62.659687 c 0,0.633412 0.50007,1.27635 1.19063,1.27635 0.37147,0 0.82867,-0.204788 0.98107,-0.59055 l -0.0905,-0.02381 c -0.14764,0.32385 -0.52864,0.519113 -0.89059,0.519113 -0.60484,0 -1.05251,-0.5334 -1.09538,-1.133475 h 2.26219 v -0.05239 c -0.01,-0.676275 -0.48577,-1.27635 -1.20967,-1.27635 -0.69057,0 -1.12872,0.619125 -1.14777,1.281113 z m 0.0953,-0.04762 c 0.0286,-0.542925 0.40005,-1.138238 1.05252,-1.138238 0.63341,0 1.0668,0.4953 1.10966,1.138238 z"
           style="font-size:4.7625px"
           id="path54329" />
        <path
           d="m 125.17668,64.045574 c 0.0333,0 0.0619,-0.0095 0.0857,-0.01905 0.0333,-0.02381 0.0524,-0.05715 0.0619,-0.08096 0.01,-0.02381 0.01,-0.04763 0.01,-0.05715 v -0.3048 h -0.0952 v 0.3048 c 0,0.0048 0,0.02381 -0.01,0.0381 l -0.0143,0.01429 c -0.01,0.0048 -0.0191,0.0095 -0.0381,0.0095 z"
           style="font-size:4.7625px"
           id="path54331" />
        <path
           d="m 128.5533,63.936037 c 0.66198,-0.01429 1.17633,-0.600075 1.17633,-1.27635 0,-0.614363 -0.46672,-1.281113 -1.17633,-1.281113 -0.6477,0 -1.17634,0.59055 -1.17634,1.281113 0,0.642937 0.48101,1.262062 1.17634,1.27635 z m -1.08109,-1.27635 c 0,-0.561975 0.42862,-1.185863 1.08109,-1.185863 0.6096,0 1.08108,0.5715 1.08108,1.185863 0,0.561975 -0.42862,1.1811 -1.08108,1.1811 -0.62865,0 -1.05728,-0.566738 -1.08109,-1.1811 z"
           style="font-size:4.7625px"
           id="path54333" />
        <path
           d="m 131.40604,61.416674 c -0.43339,0 -0.75724,0.238125 -0.96203,0.638175 v -0.638175 h -0.0952 v 2.471738 h 0.0952 v -1.5621 c 0.12383,-0.452438 0.4572,-0.795338 0.96203,-0.814388 z"
           style="font-size:4.7625px"
           id="path54335" />
        <path
           d="m 133.91587,61.426199 v 0.566738 c -0.23813,-0.338138 -0.56198,-0.614363 -1.00965,-0.614363 -0.67628,0 -1.14776,0.619125 -1.14776,1.281113 0,0.633412 0.50006,1.27635 1.19062,1.27635 0.37624,0 0.75724,-0.233363 0.96679,-0.561975 v 0.619125 c 0,0.566737 -0.45244,0.862012 -0.99536,0.862012 -0.40005,0 -0.78105,-0.1524 -0.98108,-0.523875 l -0.0905,0.02858 c 0.18574,0.352425 0.48578,0.59055 1.07157,0.59055 0.56197,0 1.09061,-0.3048 1.09061,-0.957262 v -2.566988 z m -0.081,1.895475 c -0.17622,0.290513 -0.52864,0.519113 -0.88583,0.519113 -0.6096,0 -1.09537,-0.561975 -1.09537,-1.1811 0,-0.561975 0.38576,-1.185863 1.05251,-1.185863 0.42386,0 0.85249,0.3048 1.00965,0.719138 v 0.890587 c 0,0.07144 -0.0286,0.1524 -0.081,0.238125 z"
           style="font-size:4.7625px"
           id="path54337" />
        <path
           d="m 136.67335,63.793162 c -0.0524,0 -0.0667,-0.0381 -0.0762,-0.09525 v -1.366838 c 0,-0.5334 -0.30956,-0.9525 -0.90487,-0.9525 -0.3048,0 -0.60008,0.147638 -0.85725,0.32385 l 0.0572,0.0762 c 0.27622,-0.195262 0.56197,-0.3048 0.8001,-0.3048 0.49053,0 0.80962,0.352425 0.80962,0.85725 v 0.280988 c -0.12859,-0.04763 -0.42386,-0.138113 -0.82867,-0.138113 -0.42863,0 -1.01918,0.17145 -1.01918,0.70485 0,0.423863 0.35243,0.757238 0.8001,0.757238 0.38576,0 0.79534,-0.142875 1.04775,-0.466725 v 0.2286 c 0,0.100012 0.0619,0.185737 0.17145,0.1905 z m -0.24289,-0.390525 c -0.19526,0.3048 -0.61436,0.43815 -0.97631,0.43815 -0.36671,0 -0.70485,-0.261938 -0.70485,-0.661988 0,-0.461962 0.51911,-0.6096 0.92393,-0.6096 0.27622,0 0.55721,0.04286 0.82867,0.147638 v 0.490537 c 0,0.05715 -0.0238,0.123825 -0.0714,0.195263 z"
           style="font-size:4.7625px"
           id="path54339" />
        <path
           d="m 139.23558,62.512049 c 0,-0.500062 -0.0429,-1.133475 -0.73819,-1.133475 -0.43339,0 -0.88106,0.276225 -1.08585,0.676275 v -0.638175 h -0.0952 v 2.471738 h 0.0952 v -1.5621 c 0.12382,-0.43815 0.58102,-0.852488 1.08585,-0.852488 0.58102,0 0.64294,0.519113 0.64294,1.038225 v 1.376363 h 0.0952 z"
           style="font-size:4.7625px"
           id="path54341" />
        <path
           d="m 139.969,63.888412 v -2.462213 h -0.0952 v 2.462213 z m 0,-3.109913 v -0.3048 h -0.0952 v 0.3048 z"
           style="font-size:4.7625px"
           id="path54343" />
        <path
           d="m 140.51669,62.659687 c 0,0.633412 0.50006,1.27635 1.19063,1.27635 0.36195,0 0.83343,-0.200025 0.96202,-0.585788 l -0.0952,-0.02857 c -0.081,0.314325 -0.55721,0.519113 -0.86677,0.519113 -0.6096,0 -1.09538,-0.561975 -1.09538,-1.1811 0,-0.561975 0.38576,-1.185863 1.05251,-1.185863 0.37148,0 0.69057,0.147638 0.8763,0.490538 l 0.0905,-0.03334 c -0.16192,-0.32385 -0.44291,-0.55245 -0.96679,-0.55245 -0.67627,0 -1.14776,0.619125 -1.14776,1.281113 z"
           style="font-size:4.7625px"
           id="path54345" />
      </g>
      <g
         aria-label="roasted in Blossvale, NY by Coffee Culture Revival"
         id="text19773"
         style="font-size:3.70417px;line-height:1.25;font-family:Raleway;-inkscape-font-specification:Raleway;text-align:center;letter-spacing:0px;word-spacing:0px;text-anchor:middle;stroke-width:0.264583">
        <path
           d="m 92.808318,73.081671 c -0.337079,0 -0.588963,0.185208 -0.748242,0.496359 v -0.496359 h -0.07408 v 1.922464 h 0.07408 v -1.214968 c 0.09631,-0.351896 0.3556,-0.618596 0.748242,-0.633413 z"
           id="path54348" />
        <path
           d="m 93.960314,75.041177 c 0.51488,-0.01111 0.91493,-0.466726 0.91493,-0.992718 0,-0.477838 -0.363009,-0.996421 -0.91493,-0.996421 -0.503767,0 -0.91493,0.459317 -0.91493,0.996421 0,0.500063 0.374121,0.981605 0.91493,0.992718 z m -0.840847,-0.992718 c 0,-0.437092 0.333376,-0.922338 0.840847,-0.922338 0.474134,0 0.840847,0.4445 0.840847,0.922338 0,0.437092 -0.333376,0.918634 -0.840847,0.918634 -0.48895,0 -0.822326,-0.440796 -0.840847,-0.918634 z"
           id="path54350" />
        <path
           d="m 96.871792,74.930052 c -0.04075,0 -0.05186,-0.02963 -0.05927,-0.07408 v -1.063096 c 0,-0.414867 -0.240771,-0.740834 -0.703792,-0.740834 -0.237067,0 -0.466725,0.114829 -0.666751,0.251883 l 0.04445,0.05927 c 0.214842,-0.151871 0.437092,-0.237067 0.622301,-0.237067 0.381529,0 0.629709,0.274109 0.629709,0.666751 v 0.218546 c -0.100013,-0.03704 -0.329671,-0.107421 -0.644526,-0.107421 -0.333375,0 -0.792692,0.13335 -0.792692,0.548217 0,0.329671 0.274108,0.588963 0.6223,0.588963 0.300038,0 0.618597,-0.111125 0.814918,-0.363009 v 0.1778 c 0,0.07779 0.04815,0.144463 0.13335,0.148167 z M 96.682879,74.62631 c -0.151871,0.237067 -0.477838,0.340783 -0.759355,0.340783 -0.285221,0 -0.548217,-0.203729 -0.548217,-0.514879 0,-0.359305 0.403755,-0.474134 0.718609,-0.474134 0.214842,0 0.433388,0.03334 0.644526,0.114829 v 0.38153 c 0,0.04445 -0.01852,0.09631 -0.05556,0.151871 z"
           id="path54352" />
        <path
           d="m 97.31259,74.737435 c 0.166687,0.166688 0.411162,0.303742 0.729721,0.303742 0.314854,0 0.726017,-0.137054 0.726017,-0.525992 0,-0.388938 -0.392642,-0.503767 -0.740834,-0.503767 -0.288925,0 -0.614892,-0.09261 -0.614892,-0.448205 0,-0.318559 0.318559,-0.437092 0.607484,-0.437092 0.188913,0 0.448205,0.04075 0.544513,0.233363 l 0.06668,-0.02963 c -0.122238,-0.1778 -0.285221,-0.277812 -0.611188,-0.277812 -0.31115,0 -0.681567,0.137054 -0.681567,0.511175 0,0.388938 0.322262,0.522288 0.688975,0.522288 0.277813,0 0.666751,0.07038 0.666751,0.429684 0,0.329671 -0.359305,0.451908 -0.651934,0.451908 -0.244475,0 -0.474134,-0.0926 -0.674159,-0.277812 z"
           id="path54354" />
        <path
           d="m 99.942551,74.855968 c -0.0074,0.0037 -0.140758,0.0926 -0.31115,0.0926 -0.129646,0 -0.248179,-0.07779 -0.259292,-0.222251 v -1.570568 h 0.463021 v -0.07408 h -0.463021 v -0.670455 h -0.07408 v 0.670455 h -0.277813 v 0.07408 h 0.277813 v 1.570568 c 0,0.177801 0.155575,0.296334 0.333375,0.296334 0.203729,0 0.348192,-0.103717 0.351896,-0.107421 z"
           id="path54356" />
        <path
           d="m 100.22407,74.048459 c 0,0.492655 0.38894,0.992718 0.92604,0.992718 0.28893,0 0.64453,-0.159279 0.76306,-0.459317 l -0.0704,-0.01852 c -0.11482,0.251883 -0.41116,0.403754 -0.69268,0.403754 -0.47042,0 -0.81862,-0.414867 -0.85195,-0.881592 h 1.75948 v -0.04075 c -0.007,-0.525992 -0.37783,-0.992717 -0.94086,-0.992717 -0.53711,0 -0.87789,0.481542 -0.89271,0.996421 z m 0.0741,-0.03704 c 0.0222,-0.422276 0.31115,-0.885297 0.81862,-0.885297 0.49265,0 0.82973,0.385234 0.86307,0.885297 z"
           id="path54358" />
        <path
           d="m 104.1542,74.930052 c -0.037,0 -0.0556,-0.02963 -0.0593,-0.07408 v -2.555877 h -0.0741 v 1.229784 c -0.1778,-0.255587 -0.43339,-0.477837 -0.78529,-0.477837 -0.51488,0 -0.8927,0.466725 -0.8927,0.996421 0,0.492655 0.38894,0.992718 0.92604,0.992718 0.29263,0 0.58896,-0.181504 0.75195,-0.437092 v 0.251883 c 0,0.07408 0.0482,0.144463 0.13335,0.148167 z m -0.13335,-0.551922 c -0.007,0.314855 -0.45191,0.588963 -0.75195,0.588963 -0.47413,0 -0.85196,-0.437092 -0.85196,-0.918634 0,-0.459317 0.31856,-0.922338 0.81862,-0.922338 0.31115,0 0.68157,0.251884 0.78529,0.55933 z"
           id="path54360" />
        <path
           d="m 105.92109,75.004135 v -1.915056 h -0.0741 v 1.915056 z m 0,-2.418823 v -0.237067 h -0.0741 v 0.237067 z"
           id="path54362" />
        <path
           d="m 107.93985,73.93363 c 0,-0.388938 -0.0333,-0.881592 -0.57414,-0.881592 -0.33708,0 -0.68527,0.214841 -0.84455,0.525992 v -0.496359 h -0.0741 v 1.922464 h 0.0741 v -1.214968 c 0.0963,-0.340783 0.45191,-0.663046 0.84455,-0.663046 0.45191,0 0.50006,0.403754 0.50006,0.807509 v 1.070505 h 0.0741 z"
           id="path54364" />
        <path
           d="m 111.56624,74.322568 c 0,-0.300038 -0.18891,-0.577851 -0.48895,-0.666751 0.22966,-0.103717 0.37783,-0.344488 0.37783,-0.611188 0,-0.329671 -0.22966,-0.670455 -0.60008,-0.670455 h -1.16311 v 2.629961 h 1.21867 c 0.35931,0 0.64083,-0.318558 0.65564,-0.681567 z m -0.0741,0 c 0,0.303742 -0.25559,0.607484 -0.58156,0.607484 H 109.766 v -1.214968 h 1.17051 c 0.31856,0 0.55563,0.292629 0.55563,0.607484 z m -0.63712,-1.87431 c 0.31115,0.0074 0.52599,0.281517 0.52599,0.596371 0,0.29263 -0.22595,0.596372 -0.54821,0.596372 h -1.0668 v -1.192743 z"
           id="path54366" />
        <path
           d="m 112.09965,74.718914 c 0,0.162984 0.10742,0.303742 0.29262,0.303742 0.12965,0 0.2593,-0.02963 0.263,-0.03334 l -0.0333,-0.07038 c -0.004,0 -0.12594,0.03334 -0.22595,0.03334 -0.14446,0 -0.22225,-0.125942 -0.22225,-0.233363 V 72.30009 h -0.0741 z"
           id="path54368" />
        <path
           d="m 113.77393,75.041177 c 0.51488,-0.01111 0.91493,-0.466726 0.91493,-0.992718 0,-0.477838 -0.36301,-0.996421 -0.91493,-0.996421 -0.50377,0 -0.91493,0.459317 -0.91493,0.996421 0,0.500063 0.37412,0.981605 0.91493,0.992718 z m -0.84085,-0.992718 c 0,-0.437092 0.33338,-0.922338 0.84085,-0.922338 0.47413,0 0.84085,0.4445 0.84085,0.922338 0,0.437092 -0.33338,0.918634 -0.84085,0.918634 -0.48895,0 -0.82233,-0.440796 -0.84085,-0.918634 z"
           id="path54370" />
        <path
           d="m 115.09632,74.737435 c 0.16669,0.166688 0.41116,0.303742 0.72972,0.303742 0.31485,0 0.72602,-0.137054 0.72602,-0.525992 0,-0.388938 -0.39264,-0.503767 -0.74084,-0.503767 -0.28892,0 -0.61489,-0.09261 -0.61489,-0.448205 0,-0.318559 0.31856,-0.437092 0.60749,-0.437092 0.18891,0 0.4482,0.04075 0.54451,0.233363 l 0.0667,-0.02963 c -0.12223,-0.1778 -0.28522,-0.277812 -0.61118,-0.277812 -0.31115,0 -0.68157,0.137054 -0.68157,0.511175 0,0.388938 0.32226,0.522288 0.68897,0.522288 0.27782,0 0.66675,0.07038 0.66675,0.429684 0,0.329671 -0.3593,0.451908 -0.65193,0.451908 -0.24447,0 -0.47413,-0.0926 -0.67416,-0.277812 z"
           id="path54372" />
        <path
           d="m 116.93359,74.737435 c 0.16669,0.166688 0.41116,0.303742 0.72972,0.303742 0.31485,0 0.72602,-0.137054 0.72602,-0.525992 0,-0.388938 -0.39265,-0.503767 -0.74084,-0.503767 -0.28892,0 -0.61489,-0.09261 -0.61489,-0.448205 0,-0.318559 0.31856,-0.437092 0.60748,-0.437092 0.18892,0 0.44821,0.04075 0.54452,0.233363 l 0.0667,-0.02963 c -0.12224,-0.1778 -0.28522,-0.277812 -0.61119,-0.277812 -0.31115,0 -0.68156,0.137054 -0.68156,0.511175 0,0.388938 0.32226,0.522288 0.68897,0.522288 0.27782,0 0.66675,0.07038 0.66675,0.429684 0,0.329671 -0.3593,0.451908 -0.65193,0.451908 -0.24448,0 -0.47413,-0.0926 -0.67416,-0.277812 z"
           id="path54374" />
        <path
           d="m 119.58207,75.004135 0.83714,-1.922464 h -0.0815 l -0.78899,1.815043 -0.78899,-1.815043 h -0.0815 l 0.83714,1.922464 z"
           id="path54376" />
        <path
           d="m 122.2676,74.930052 c -0.0408,0 -0.0519,-0.02963 -0.0593,-0.07408 v -1.063096 c 0,-0.414867 -0.24077,-0.740834 -0.70379,-0.740834 -0.23707,0 -0.46672,0.114829 -0.66675,0.251883 l 0.0444,0.05927 c 0.21484,-0.151871 0.43709,-0.237067 0.6223,-0.237067 0.38153,0 0.62971,0.274109 0.62971,0.666751 v 0.218546 c -0.10001,-0.03704 -0.32967,-0.107421 -0.64453,-0.107421 -0.33337,0 -0.79269,0.13335 -0.79269,0.548217 0,0.329671 0.27411,0.588963 0.6223,0.588963 0.30004,0 0.6186,-0.111125 0.81492,-0.363009 v 0.1778 c 0,0.07779 0.0482,0.144463 0.13335,0.148167 z m -0.18891,-0.303742 c -0.15187,0.237067 -0.47784,0.340783 -0.75936,0.340783 -0.28522,0 -0.54822,-0.203729 -0.54822,-0.514879 0,-0.359305 0.40376,-0.474134 0.71861,-0.474134 0.21485,0 0.43339,0.03334 0.64453,0.114829 v 0.38153 c 0,0.04445 -0.0185,0.09631 -0.0556,0.151871 z"
           id="path54378" />
        <path
           d="m 122.83804,74.718914 c 0,0.162984 0.10742,0.303742 0.29263,0.303742 0.12965,0 0.25929,-0.02963 0.263,-0.03334 l -0.0333,-0.07038 c -0.004,0 -0.12594,0.03334 -0.22595,0.03334 -0.14447,0 -0.22225,-0.125942 -0.22225,-0.233363 V 72.30009 h -0.0741 z"
           id="path54380" />
        <path
           d="m 123.5974,74.048459 c 0,0.492655 0.38894,0.992718 0.92604,0.992718 0.28893,0 0.64453,-0.159279 0.76306,-0.459317 l -0.0704,-0.01852 c -0.11483,0.251883 -0.41116,0.403754 -0.69268,0.403754 -0.47043,0 -0.81862,-0.414867 -0.85196,-0.881592 h 1.75948 v -0.04075 c -0.007,-0.525992 -0.37782,-0.992717 -0.94086,-0.992717 -0.5371,0 -0.87789,0.481542 -0.8927,0.996421 z m 0.0741,-0.03704 c 0.0222,-0.422276 0.31115,-0.885297 0.81862,-0.885297 0.49266,0 0.82974,0.385234 0.86307,0.885297 z"
           id="path54382" />
        <path
           d="m 125.7273,75.126373 c 0.0259,0 0.0482,-0.0074 0.0667,-0.01482 0.0259,-0.01852 0.0408,-0.04445 0.0481,-0.06297 0.007,-0.01852 0.007,-0.03704 0.007,-0.04445 v -0.237067 h -0.0741 v 0.237067 c 0,0.0037 0,0.01852 -0.007,0.02963 l -0.0111,0.01111 c -0.007,0.0037 -0.0148,0.0074 -0.0296,0.0074 z"
           id="path54384" />
        <path
           d="m 129.57963,75.004135 h 0.0852 v -2.626256 h -0.0741 v 2.518835 l -2.01137,-2.52254 h -0.0556 v 2.629961 h 0.0741 v -2.485498 z"
           id="path54386" />
        <path
           d="m 130.03154,72.374174 1.0631,1.603906 v 1.026055 h 0.0741 v -1.018647 l 1.0668,-1.611314 h -0.0852 l -1.01864,1.526118 -1.01495,-1.526118 z"
           id="path54388" />
        <path
           d="m 92.815722,78.678672 c 0,-0.474134 -0.329671,-0.996422 -0.892704,-0.996422 -0.33708,0 -0.588964,0.200025 -0.785285,0.477838 v -1.229784 h -0.07408 v 2.704044 h 0.07408 v -0.400051 c 0.151871,0.244475 0.448205,0.437092 0.751947,0.437092 0.522288,0 0.911226,-0.470429 0.926042,-0.992717 z m -0.07408,0 c 0,0.455613 -0.3556,0.918634 -0.851959,0.918634 -0.300038,0 -0.751947,-0.274109 -0.751947,-0.588963 v -0.69268 c 0.144463,-0.292629 0.418572,-0.55933 0.785285,-0.55933 0.485246,0 0.818621,0.448205 0.818621,0.922339 z"
           id="path54390" />
        <path
           d="m 94.664102,77.711883 -0.803805,1.82986 -0.848255,-1.82986 h -0.08149 l 0.892705,1.922465 c -0.29263,0.66675 -0.303742,0.688975 -0.322263,0.7112 -0.02593,0.02593 -0.05556,0.04075 -0.174096,0.04075 v 0.07408 c 0.137054,0 0.211138,-0.02963 0.248179,-0.09261 l 0.02593,-0.04445 1.144589,-2.61144 z"
           id="path54392" />
        <path
           d="m 96.182817,78.323071 c 0,0.64823 0.511175,1.333502 1.240896,1.333502 0.370417,0 0.881593,-0.225955 1.022351,-0.611188 l -0.07038,-0.01852 c -0.118533,0.314854 -0.629709,0.555625 -0.951972,0.555625 -0.648229,0 -1.166813,-0.600075 -1.166813,-1.259418 0,-0.618596 0.429684,-1.259417 1.122363,-1.259417 0.407459,0 0.733426,0.151871 0.933451,0.522288 l 0.07038,-0.02223 c -0.166687,-0.333376 -0.459317,-0.574147 -1.00383,-0.574147 -0.700088,0 -1.196446,0.64823 -1.196446,1.333501 z"
           id="path54394" />
        <path
           d="m 99.7203,79.671389 c 0.51488,-0.01111 0.91493,-0.466725 0.91493,-0.992717 0,-0.477838 -0.36301,-0.996422 -0.91493,-0.996422 -0.503768,0 -0.91493,0.459317 -0.91493,0.996422 0,0.500063 0.374121,0.981605 0.91493,0.992717 z m -0.840847,-0.992717 c 0,-0.437092 0.333375,-0.922339 0.840847,-0.922339 0.47413,0 0.84085,0.444501 0.84085,0.922339 0,0.437092 -0.33338,0.918634 -0.84085,0.918634 -0.488951,0 -0.822326,-0.440796 -0.840847,-0.918634 z"
           id="path54396" />
        <path
           d="m 102.5651,76.967345 c 0.18892,0 0.22966,0.05186 0.27411,0.09631 l 0.0593,-0.04445 c 0,-0.01111 -0.0667,-0.125942 -0.33338,-0.125942 -0.22225,0 -0.37041,0.103717 -0.46302,0.244475 -0.0556,-0.04075 -0.1815,-0.09631 -0.37782,-0.09631 -0.37413,0 -0.526,0.374121 -0.526,0.703792 v 0.192617 h -0.27781 v 0.07408 h 0.27781 v 1.622427 h 0.0741 v -1.622427 h 0.69268 v 1.622427 h 0.0741 v -1.622427 h 0.68527 v -0.07408 h -0.68527 v -0.303742 c 0,-0.303742 0.14446,-0.666751 0.52599,-0.666751 z m -0.60007,0.666751 v 0.303742 h -0.69268 v -0.192617 c 0,-0.240771 0.10001,-0.629709 0.45191,-0.629709 0.10371,0 0.25188,0.01482 0.34078,0.0889 -0.0704,0.13335 -0.10001,0.29263 -0.10001,0.429684 z"
           id="path54398" />
        <path
           d="m 102.93182,78.678672 c 0,0.492654 0.38894,0.992717 0.92604,0.992717 0.28893,0 0.64453,-0.159279 0.76306,-0.459317 l -0.0704,-0.01852 c -0.11483,0.251884 -0.41116,0.403755 -0.69268,0.403755 -0.47043,0 -0.81862,-0.414867 -0.85196,-0.881593 h 1.75948 v -0.04074 c -0.007,-0.525993 -0.37782,-0.992718 -0.94086,-0.992718 -0.5371,0 -0.87789,0.481542 -0.8927,0.996422 z m 0.0741,-0.03704 c 0.0222,-0.422275 0.31115,-0.885297 0.81862,-0.885297 0.49266,0 0.82974,0.385234 0.86307,0.885297 z"
           id="path54400" />
        <path
           d="m 105.08024,78.678672 c 0,0.492654 0.38893,0.992717 0.92604,0.992717 0.28892,0 0.64452,-0.159279 0.76306,-0.459317 l -0.0704,-0.01852 c -0.11483,0.251884 -0.41116,0.403755 -0.69268,0.403755 -0.47043,0 -0.81862,-0.414867 -0.85196,-0.881593 h 1.75948 v -0.04074 c -0.007,-0.525993 -0.37783,-0.992718 -0.94086,-0.992718 -0.5371,0 -0.87789,0.481542 -0.8927,0.996422 z m 0.0741,-0.03704 c 0.0222,-0.422275 0.31115,-0.885297 0.81862,-0.885297 0.49266,0 0.82973,0.385234 0.86307,0.885297 z"
           id="path54402" />
        <path
           d="m 108.44362,78.323071 c 0,0.64823 0.51118,1.333502 1.2409,1.333502 0.37042,0 0.88159,-0.225955 1.02235,-0.611188 l -0.0704,-0.01852 c -0.11853,0.314854 -0.62971,0.555625 -0.95197,0.555625 -0.64823,0 -1.16681,-0.600075 -1.16681,-1.259418 0,-0.618596 0.42968,-1.259417 1.12236,-1.259417 0.40746,0 0.73343,0.151871 0.93345,0.522288 l 0.0704,-0.02223 c -0.16669,-0.333376 -0.45932,-0.574147 -1.00383,-0.574147 -0.70009,0 -1.19645,0.64823 -1.19645,1.333501 z"
           id="path54404" />
        <path
           d="m 112.72935,79.560264 c -0.037,0 -0.0556,-0.02963 -0.0593,-0.07408 v -1.774298 h -0.0741 v 1.222376 c -0.0963,0.340784 -0.43339,0.663047 -0.82603,0.663047 -0.45932,0 -0.55563,-0.374121 -0.55563,-0.807509 v -1.077914 h -0.0741 V 78.7898 c 0,0.425979 0.0926,0.881592 0.62971,0.881592 0.33708,0 0.66675,-0.214842 0.82603,-0.525992 v 0.340784 c 0,0.07408 0.0481,0.144462 0.13335,0.148167 z"
           id="path54406" />
        <path
           d="m 113.3035,79.349127 c 0,0.162983 0.10742,0.303741 0.29263,0.303741 0.12964,0 0.25929,-0.02963 0.26299,-0.03334 l -0.0333,-0.07038 c -0.004,0 -0.12594,0.03334 -0.22595,0.03334 -0.14446,0 -0.22225,-0.125942 -0.22225,-0.233362 v -2.418823 h -0.0741 z"
           id="path54408" />
        <path
           d="m 114.85554,79.486181 c -0.007,0.0037 -0.14076,0.0926 -0.31115,0.0926 -0.12964,0 -0.24818,-0.07779 -0.25929,-0.22225 v -1.570568 h 0.46302 v -0.07408 h -0.46302 v -0.670454 h -0.0741 v 0.670454 h -0.27782 v 0.07408 h 0.27782 v 1.570568 c 0,0.1778 0.15557,0.296333 0.33337,0.296333 0.20373,0 0.34819,-0.103716 0.3519,-0.10742 z"
           id="path54410" />
        <path
           d="m 116.80024,79.560264 c -0.0371,0 -0.0556,-0.02963 -0.0593,-0.07408 v -1.774298 h -0.0741 v 1.222376 c -0.0963,0.340784 -0.43339,0.663047 -0.82603,0.663047 -0.45932,0 -0.55563,-0.374121 -0.55563,-0.807509 v -1.077914 h -0.0741 V 78.7898 c 0,0.425979 0.0926,0.881592 0.62971,0.881592 0.33708,0 0.66675,-0.214842 0.82603,-0.525992 v 0.340784 c 0,0.07408 0.0482,0.144462 0.13335,0.148167 z"
           id="path54412" />
        <path
           d="m 118.14115,77.711883 c -0.33708,0 -0.58897,0.185209 -0.74825,0.496359 v -0.496359 h -0.0741 v 1.922465 h 0.0741 V 78.41938 c 0.0963,-0.351896 0.3556,-0.618597 0.74825,-0.633413 z"
           id="path54414" />
        <path
           d="m 118.3634,78.678672 c 0,0.492654 0.38894,0.992717 0.92604,0.992717 0.28893,0 0.64453,-0.159279 0.76306,-0.459317 l -0.0704,-0.01852 c -0.11483,0.251884 -0.41116,0.403755 -0.69268,0.403755 -0.47043,0 -0.81862,-0.414867 -0.85196,-0.881593 h 1.75948 v -0.04074 c -0.007,-0.525993 -0.37782,-0.992718 -0.94086,-0.992718 -0.5371,0 -0.87789,0.481542 -0.8927,0.996422 z m 0.0741,-0.03704 c 0.0222,-0.422275 0.31115,-0.885297 0.81862,-0.885297 0.49266,0 0.82974,0.385234 0.86307,0.885297 z"
           id="path54416" />
        <path
           d="m 121.9157,79.634348 v -1.033464 h 0.9779 l 0.66675,1.033464 h 0.0889 l -0.66675,-1.033464 c 0.39635,-0.02963 0.67045,-0.392642 0.67045,-0.800101 0,-0.392642 -0.31115,-0.796396 -0.74083,-0.796396 h -1.0705 v 2.629961 z m 0,-2.555878 h 0.99642 c 0.37042,0 0.66675,0.348192 0.66675,0.722313 0,0.363009 -0.24447,0.726018 -0.64082,0.726018 h -1.02235 z"
           id="path54418" />
        <path
           d="m 124.0419,78.678672 c 0,0.492654 0.38893,0.992717 0.92604,0.992717 0.28892,0 0.64452,-0.159279 0.76306,-0.459317 l -0.0704,-0.01852 c -0.11483,0.251884 -0.41117,0.403755 -0.69268,0.403755 -0.47043,0 -0.81862,-0.414867 -0.85196,-0.881593 h 1.75948 v -0.04074 c -0.007,-0.525993 -0.37783,-0.992718 -0.94086,-0.992718 -0.5371,0 -0.87789,0.481542 -0.8927,0.996422 z m 0.0741,-0.03704 c 0.0222,-0.422275 0.31115,-0.885297 0.81862,-0.885297 0.49265,0 0.82973,0.385234 0.86307,0.885297 z"
           id="path54420" />
        <path
           d="m 127.03857,79.634348 0.83714,-1.922465 h -0.0815 l -0.78899,1.815044 -0.78899,-1.815044 h -0.0815 l 0.83714,1.922465 z"
           id="path54422" />
        <path
           d="m 128.24613,79.634348 v -1.915056 h -0.0741 v 1.915056 z m 0,-2.418823 v -0.237067 h -0.0741 v 0.237067 z"
           id="path54424" />
        <path
           d="m 129.44628,79.634348 0.83714,-1.922465 h -0.0815 l -0.78899,1.815044 -0.78899,-1.815044 h -0.0815 l 0.83714,1.922465 z"
           id="path54426" />
        <path
           d="m 132.13181,79.560264 c -0.0408,0 -0.0519,-0.02963 -0.0593,-0.07408 v -1.063097 c 0,-0.414867 -0.24077,-0.740834 -0.70379,-0.740834 -0.23707,0 -0.46673,0.114829 -0.66675,0.251884 l 0.0445,0.05927 c 0.21484,-0.151871 0.43709,-0.237067 0.6223,-0.237067 0.38153,0 0.62971,0.274109 0.62971,0.666751 v 0.218546 c -0.10002,-0.03704 -0.32968,-0.107421 -0.64453,-0.107421 -0.33338,0 -0.79269,0.13335 -0.79269,0.548217 0,0.329671 0.27411,0.588963 0.6223,0.588963 0.30004,0 0.61859,-0.111125 0.81492,-0.363008 v 0.1778 c 0,0.07779 0.0481,0.144462 0.13335,0.148167 z m -0.18892,-0.303742 c -0.15187,0.237067 -0.47784,0.340784 -0.75935,0.340784 -0.28522,0 -0.54822,-0.203729 -0.54822,-0.51488 0,-0.359304 0.40376,-0.474133 0.71861,-0.474133 0.21484,0 0.43339,0.03334 0.64453,0.114829 v 0.381529 c 0,0.04445 -0.0185,0.09631 -0.0556,0.151871 z"
           id="path54428" />
        <path
           d="m 132.70225,79.349127 c 0,0.162983 0.10742,0.303741 0.29263,0.303741 0.12964,0 0.25929,-0.02963 0.26299,-0.03334 l -0.0333,-0.07038 c -0.004,0 -0.12594,0.03334 -0.22595,0.03334 -0.14446,0 -0.22225,-0.125942 -0.22225,-0.233362 v -2.418823 h -0.0741 z"
           id="path54430" />
      </g>
      <rect
         style="fill:none;fill-opacity:1;stroke:none;stroke-width:0.0540409;stroke-linecap:square;stroke-linejoin:bevel;stroke-dasharray:none;stroke-opacity:1;paint-order:stroke fill markers"
         id="rect19775"
         width="82.495956"
         height="69.795959"
         x="70.912781"
         y="15.455375" />
    </g>
  </g>
</svg>
