<?xml version="1.0" encoding="UTF-8" standalone="no"?>
<!-- Created with Inkscape (http://www.inkscape.org/) -->

<svg
   width="82.549995mm"
   height="69.849998mm"
   viewBox="0 0 82.549995 69.849998"
   version="1.1"
   id="svg22926"
   inkscape:version="1.2.2 (b0a8486541, 2022-12-01)"
   sodipodi:docname="label_black.svg"
   inkscape:export-filename="../path/label_black.png"
   inkscape:export-xdpi="300"
   inkscape:export-ydpi="300"
   xmlns:inkscape="http://www.inkscape.org/namespaces/inkscape"
   xmlns:sodipodi="http://sodipodi.sourceforge.net/DTD/sodipodi-0.dtd"
   xmlns="http://www.w3.org/2000/svg"
   xmlns:svg="http://www.w3.org/2000/svg">
  <sodipodi:namedview
     id="namedview22928"
     pagecolor="#ffffff"
     bordercolor="#eeeeee"
     borderopacity="1"
     inkscape:showpageshadow="0"
     inkscape:pageopacity="0"
     inkscape:pagecheckerboard="true"
     inkscape:deskcolor="#f0f0f0"
     inkscape:document-units="mm"
     showgrid="false"
     inkscape:zoom="1.1300912"
     inkscape:cx="97.337281"
     inkscape:cy="105.74368"
     inkscape:window-width="1265"
     inkscape:window-height="1034"
     inkscape:window-x="10"
     inkscape:window-y="36"
     inkscape:window-maximized="1"
     inkscape:current-layer="g2136" />
  <defs
     id="defs22923" />
  <g
     inkscape:label="Layer 1"
     inkscape:groupmode="layer"
     id="layer1"
     transform="translate(-31.310833,-13.706408)">
    <g
       id="g19378"
       transform="translate(-39.574927,-1.7219459)" />
    <g
       id="g2136">
      <rect
         style="fill:#ffffff;fill-opacity:1;stroke:none;stroke-width:0.926042;stroke-linecap:round;stroke-linejoin:round;paint-order:stroke fill markers"
         id="rect90868"
         width="82.522972"
         height="69.822975"
         x="31.310839"
         y="13.733429" />
      <path
         d="m 103.72793,30.628993 c -1.61416,0 -2.9274,-1.309132 -2.9274,-2.918552 0,-1.609419 1.31324,-2.919055 2.9274,-2.919055 h 8.43283 c 0.13935,0 0.25245,0.112765 0.25245,0.251708 0,0.138943 -0.1131,0.251708 -0.25245,0.251708 h -8.43283 c -1.33571,0 -2.4225,1.083602 -2.4225,2.415639 0,1.331786 1.08679,2.415388 2.4225,2.415388 0.13936,0 0.25245,0.112765 0.25245,0.251708 0,0.138943 -0.11309,0.251456 -0.25245,0.251456 z"
         style="fill:#000000;fill-rule:nonzero;stroke:none;stroke-width:0.252078;stroke-linecap:butt;stroke-linejoin:miter;stroke-miterlimit:10;stroke-dasharray:none"
         stroke-linecap="round"
         id="path13487-1"
         transform="translate(-39.574926,-1.721946)" />
      <path
         d="m 103.73854,30.628993 c -0.13935,0 -0.25245,-0.112765 -0.25245,-0.251708 0,-0.138943 0.1131,-0.251708 0.25245,-0.251708 1.1547,0 2.09407,-0.936604 2.09407,-2.087664 0,-0.138943 0.11309,-0.251708 0.25245,-0.251708 0.13935,0 0.25245,0.112765 0.25245,0.251708 0,1.428693 -1.16607,2.59108 -2.59897,2.59108 z"
         style="fill:#000000;fill-rule:nonzero;stroke:none;stroke-width:0.252078;stroke-linecap:butt;stroke-linejoin:miter;stroke-miterlimit:10;stroke-dasharray:none"
         stroke-linecap="round"
         id="path13489-5"
         transform="translate(-39.574926,-1.721946)" />
      <path
         d="m 118.23646,28.289621 h -12.1514 c -0.13936,0 -0.25245,-0.112765 -0.25245,-0.251708 0,-0.893311 -0.72883,-1.619991 -1.62477,-1.619991 -0.13935,0 -0.25245,-0.112765 -0.25245,-0.251708 0,-0.138943 0.1131,-0.251708 0.25245,-0.251708 1.08882,0 1.9893,0.819057 2.11452,1.871699 h 11.67629 c 0.12522,-1.052642 1.02596,-1.871699 2.11477,-1.871699 0.13961,0 0.25245,0.112765 0.25245,0.251708 0,0.138943 -0.11284,0.251708 -0.25245,0.251708 -0.89594,0 -1.62476,0.72668 -1.62476,1.619991 2.5e-4,0.138943 -0.11259,0.251708 -0.2522,0.251708 z"
         style="fill:#000000;fill-rule:nonzero;stroke:none;stroke-width:0.252078;stroke-linecap:butt;stroke-linejoin:miter;stroke-miterlimit:10;stroke-dasharray:none"
         stroke-linecap="round"
         id="path13491-5"
         transform="translate(-39.574926,-1.721946)" />
      <path
         d="m 102.51845,28.10235 c -0.13935,0 -0.25245,-0.112765 -0.25245,-0.251708 0,-1.067744 0.8712,-1.936136 1.94184,-1.936136 0.13935,0 0.25245,0.112765 0.25245,0.251708 0,0.138943 -0.1131,0.251708 -0.25245,0.251708 -0.79244,0 -1.43694,0.642861 -1.43694,1.43272 0,0.138943 -0.1131,0.251708 -0.25245,0.251708 z"
         style="fill:#000000;fill-rule:nonzero;stroke:none;stroke-width:0.252078;stroke-linecap:butt;stroke-linejoin:miter;stroke-miterlimit:10;stroke-dasharray:none"
         stroke-linecap="round"
         id="path13493-4"
         transform="translate(-39.574926,-1.721946)" />
      <path
         d="m 103.09555,29.184945 c -0.0485,0 -0.0977,-0.01384 -0.14112,-0.04304 -0.43118,-0.29047 -0.68868,-0.772994 -0.68868,-1.291261 0,-0.138942 0.11309,-0.251707 0.25245,-0.251707 0.13935,0 0.25245,0.112765 0.25245,0.251707 0,0.350629 0.17419,0.677346 0.46627,0.874182 0.11562,0.07778 0.14592,0.23434 0.0679,0.34937 -0.0487,0.07199 -0.12825,0.110751 -0.20928,0.110751 z"
         style="fill:#000000;fill-rule:nonzero;stroke:none;stroke-width:0.252078;stroke-linecap:butt;stroke-linejoin:miter;stroke-miterlimit:10;stroke-dasharray:none"
         stroke-linecap="round"
         id="path13495-7"
         transform="translate(-39.574926,-1.721946)" />
      <path
         d="m 120.59358,30.628993 c -0.1396,0 -0.25245,-0.112765 -0.25245,-0.251708 0,-0.138943 0.11285,-0.251708 0.25245,-0.251708 1.33571,0 2.42251,-1.083602 2.42251,-2.415388 0,-1.332037 -1.0868,-2.415387 -2.42251,-2.415387 h -8.43282 c -0.13935,0 -0.25245,-0.112765 -0.25245,-0.251708 0,-0.138943 0.1131,-0.251708 0.25245,-0.251708 h 8.43282 c 1.61416,0 2.92741,1.309384 2.92741,2.919055 0,1.609671 -1.31325,2.918552 -2.92741,2.918552 z"
         style="fill:#000000;fill-rule:nonzero;stroke:none;stroke-width:0.252078;stroke-linecap:butt;stroke-linejoin:miter;stroke-miterlimit:10;stroke-dasharray:none"
         stroke-linecap="round"
         id="path13497-6"
         transform="translate(-39.574926,-1.721946)" />
      <path
         d="m 120.58298,30.628993 c -1.43316,0 -2.59897,-1.162387 -2.59897,-2.59108 0,-0.138943 0.11285,-0.251708 0.25245,-0.251708 0.13961,0 0.25245,0.112765 0.25245,0.251708 0,1.151311 0.93937,2.087664 2.09407,2.087664 0.1396,0 0.25245,0.112765 0.25245,0.251708 0,0.138943 -0.11285,0.251708 -0.25245,0.251708 z"
         style="fill:#000000;fill-rule:nonzero;stroke:none;stroke-width:0.252078;stroke-linecap:butt;stroke-linejoin:miter;stroke-miterlimit:10;stroke-dasharray:none"
         stroke-linecap="round"
         id="path13499-5"
         transform="translate(-39.574926,-1.721946)" />
      <path
         d="m 121.80307,28.10235 c -0.13961,0 -0.25245,-0.112765 -0.25245,-0.251708 0,-0.79011 -0.64476,-1.43272 -1.43694,-1.43272 -0.13961,0 -0.25245,-0.112765 -0.25245,-0.251708 0,-0.138943 0.11284,-0.251708 0.25245,-0.251708 1.07063,0 1.94184,0.868644 1.94184,1.936136 0,0.138943 -0.11285,0.251708 -0.25245,0.251708 z"
         style="fill:#000000;fill-rule:nonzero;stroke:none;stroke-width:0.252078;stroke-linecap:butt;stroke-linejoin:miter;stroke-miterlimit:10;stroke-dasharray:none"
         stroke-linecap="round"
         id="path13501-6"
         transform="translate(-39.574926,-1.721946)" />
      <path
         d="m 121.22597,29.184945 c -0.081,0 -0.16081,-0.03876 -0.20953,-0.110751 -0.078,-0.115282 -0.0475,-0.271593 0.0682,-0.34937 0.29183,-0.196584 0.46627,-0.523553 0.46627,-0.874182 0,-0.138942 0.11285,-0.251707 0.25245,-0.251707 0.1396,0 0.25245,0.112765 0.25245,0.251707 0,0.518267 -0.2575,1.000791 -0.68868,1.291261 -0.0434,0.0292 -0.0924,0.04304 -0.14112,0.04304 z"
         style="fill:#000000;fill-rule:nonzero;stroke:none;stroke-width:0.252078;stroke-linecap:butt;stroke-linejoin:miter;stroke-miterlimit:10;stroke-dasharray:none"
         stroke-linecap="round"
         id="path13503-9"
         transform="translate(-39.574926,-1.721946)" />
      <path
         d="m 118.88273,29.898789 h -13.44394 c -0.13936,0 -0.25245,-0.112765 -0.25245,-0.251708 0,-0.138943 0.11309,-0.251708 0.25245,-0.251708 h 13.44394 c 0.13961,0 0.25245,0.112765 0.25245,0.251708 0,0.138943 -0.11284,0.251708 -0.25245,0.251708 z"
         style="fill:#000000;fill-rule:nonzero;stroke:none;stroke-width:0.252078;stroke-linecap:butt;stroke-linejoin:miter;stroke-miterlimit:10;stroke-dasharray:none"
         stroke-linecap="round"
         id="path13505-3"
         transform="translate(-39.574926,-1.721946)" />
      <path
         d="m 117.56873,40.952284 h -10.81569 c -0.13935,0 -0.25245,-0.112513 -0.25245,-0.251708 V 29.647081 c 0,-0.138943 0.1131,-0.251708 0.25245,-0.251708 h 10.81569 c 0.13961,0 0.25245,0.112765 0.25245,0.251708 v 11.053495 c 0,0.139195 -0.11284,0.251708 -0.25245,0.251708 z m -10.56324,-0.503415 h 10.31079 v -10.55008 h -10.31079 z"
         style="fill:#000000;fill-rule:nonzero;stroke:none;stroke-width:0.252078;stroke-linecap:butt;stroke-linejoin:miter;stroke-miterlimit:10;stroke-dasharray:none"
         stroke-linecap="round"
         id="path13507-7"
         transform="translate(-39.574926,-1.721946)" />
      <path
         d="m 119.60549,42.897482 h -14.88972 c -0.13935,0 -0.25245,-0.112514 -0.25245,-0.251708 0,-1.21147 0.98859,-2.196905 2.20338,-2.196905 h 10.98786 c 1.21504,0 2.20338,0.985435 2.20338,2.196905 0,0.139194 -0.11284,0.251708 -0.25245,0.251708 z M 104.9869,42.394066 h 14.34746 c -0.12218,-0.814778 -0.82879,-1.441782 -1.67954,-1.441782 H 106.6667 c -0.85076,0 -1.55736,0.627004 -1.6798,1.441782 z"
         style="fill:#000000;fill-rule:nonzero;stroke:none;stroke-width:0.252078;stroke-linecap:butt;stroke-linejoin:miter;stroke-miterlimit:10;stroke-dasharray:none"
         stroke-linecap="round"
         id="path13509-4"
         transform="translate(-39.574926,-1.721946)" />
      <path
         d="m 120.58298,45.207404 h -16.84444 c -0.13935,0 -0.25245,-0.112513 -0.25245,-0.251708 v -2.309922 c 0,-0.139194 0.1131,-0.251708 0.25245,-0.251708 h 16.84469 c 0.13961,0 0.25245,0.112514 0.25245,0.251708 v 2.309922 c -2.5e-4,0.138943 -0.1131,0.251708 -0.2527,0.251708 z m -16.59199,-0.503415 h 16.33979 v -1.806507 h -16.33979 z"
         style="fill:#000000;fill-rule:nonzero;stroke:none;stroke-width:0.252078;stroke-linecap:butt;stroke-linejoin:miter;stroke-miterlimit:10;stroke-dasharray:none"
         stroke-linecap="round"
         id="path13511-5"
         transform="translate(-39.574926,-1.721946)" />
      <path
         d="m 111.078,40.952284 h -2.37883 c -0.13935,0 -0.25245,-0.112513 -0.25245,-0.251708 v -8.307867 c 0,-0.792627 0.64678,-1.437503 1.44174,-1.437503 0.79496,0 1.44174,0.644876 1.44174,1.437503 v 8.307867 c 2.5e-4,0.139195 -0.11259,0.251708 -0.2522,0.251708 z m -2.12613,-0.503415 h 1.87394 v -8.05616 c 0,-0.514994 -0.42033,-0.934087 -0.93684,-0.934087 -0.51652,0 -0.93684,0.419093 -0.93684,0.934087 v 8.05616 z"
         style="fill:#000000;fill-rule:nonzero;stroke:none;stroke-width:0.252078;stroke-linecap:butt;stroke-linejoin:miter;stroke-miterlimit:10;stroke-dasharray:none"
         stroke-linecap="round"
         id="path13513-2"
         transform="translate(-39.574926,-1.721946)" />
      <path
         d="m 115.62235,40.952284 h -2.37909 c -0.1396,0 -0.25245,-0.112513 -0.25245,-0.251708 v -8.307867 c 0,-0.792627 0.64703,-1.437503 1.44199,-1.437503 0.79497,0 1.442,0.644876 1.442,1.437503 v 8.307867 c 0,0.139195 -0.11285,0.251708 -0.25245,0.251708 z m -2.12664,-0.503415 h 1.87419 v -8.05616 c 0,-0.514994 -0.42033,-0.934087 -0.9371,-0.934087 -0.51676,0 -0.93709,0.419093 -0.93709,0.934087 z"
         style="fill:#000000;fill-rule:nonzero;stroke:none;stroke-width:0.252078;stroke-linecap:butt;stroke-linejoin:miter;stroke-miterlimit:10;stroke-dasharray:none"
         stroke-linecap="round"
         id="path13515-5"
         transform="translate(-39.574926,-1.721946)" />
      <ellipse
         cx="104.20734"
         cy="27.77664"
         style="fill:#000000;fill-rule:nonzero;stroke:none;stroke-width:0.252078;stroke-linecap:butt;stroke-linejoin:miter;stroke-miterlimit:10;stroke-dasharray:none"
         id="circle13517-4"
         rx="0.31934863"
         ry="0.31841034"
         transform="translate(-39.574926,-1.721946)" />
      <ellipse
         cx="120.11166"
         cy="27.77664"
         style="fill:#000000;fill-rule:nonzero;stroke:none;stroke-width:0.252078;stroke-linecap:butt;stroke-linejoin:miter;stroke-miterlimit:10;stroke-dasharray:none"
         id="circle13519-7"
         rx="0.31934863"
         ry="0.31841034"
         transform="translate(-39.574926,-1.721946)" />
      <path
         style="fill:none;fill-opacity:1;stroke:#000000;stroke-width:0.29876;stroke-linecap:round;stroke-linejoin:round;stroke-miterlimit:4;stroke-dasharray:none;stroke-dashoffset:0;stroke-opacity:1"
         d="m 107.02411,23.959128 a 2.3294964,3.1287613 57.424532 0 1 -0.0834,-0.143576 c 0.0614,-0.01526 0.17359,-0.128913 0.33729,-0.340568 0.526,-0.680062 0.99917,-0.918122 1.70745,-0.858688 2.31431,0.194193 2.60331,0.126841 3.06837,-0.715797 0.20101,-0.364206 0.33849,-1.000506 0.2984,-1.21406 a 2.3294964,3.1287613 57.424532 0 1 -1.43117,3.534836 2.3294964,3.1287613 57.424532 0 1 -3.89697,-0.262145 z m -0.13697,-0.265916 a 2.3294964,3.1287613 57.424532 0 1 1.50188,-3.382878 2.3294964,3.1287613 57.424532 0 1 3.89694,0.262102 2.3294964,3.1287613 57.424532 0 1 0.0249,0.04282 c -0.013,-0.0038 -0.0288,1.38e-4 -0.0477,0.01298 -0.0625,0.04272 -0.20028,0.228867 -0.30619,0.413605 -0.38462,0.670934 -0.86782,0.824588 -2.30788,0.734698 -1.14686,-0.07159 -1.4407,-0.03497 -1.85223,0.229902 -0.38178,0.245727 -0.54202,0.470244 -0.73025,1.023334 -0.10806,0.317534 -0.16789,0.537991 -0.17951,0.663444 z"
         id="path13527-4"
         inkscape:connector-curvature="0"
         transform="translate(-39.574926,-1.721946)" />
      <path
         style="fill:none;fill-opacity:1;stroke:#000000;stroke-width:0.29876;stroke-linecap:round;stroke-linejoin:round;stroke-miterlimit:4;stroke-dasharray:none;stroke-dashoffset:0;stroke-opacity:1"
         d="m 116.01478,24.766261 a 3.1229552,2.3338273 73.839027 0 1 -0.16198,0.03796 c 0.003,-0.06305 -0.0735,-0.203002 -0.22921,-0.420541 -0.50043,-0.698975 -0.59188,-1.219488 -0.32964,-1.878183 0.85688,-2.1523 0.87595,-2.447613 0.2018,-3.135535 -0.29138,-0.297334 -0.86236,-0.612866 -1.07897,-0.636482 a 3.1229552,2.3338273 73.839027 0 1 2.9786,2.389829 3.1229552,2.3338273 73.839027 0 1 -1.3806,3.642952 z m -0.29495,0.05367 a 3.1229552,2.3338273 73.839027 0 1 -2.81225,-2.413278 3.1229552,2.3338273 73.839027 0 1 1.38056,-3.642936 3.1229552,2.3338273 73.839027 0 1 0.0483,-0.01133 c -0.007,0.01137 -0.008,0.02755 -10e-4,0.04924 0.0229,0.07198 0.16168,0.25743 0.30833,0.412016 0.53263,0.561415 0.54014,1.067055 0.0367,2.415264 -0.40097,1.073719 -0.45095,1.364739 -0.31591,1.834195 0.12528,0.435521 0.29438,0.653484 0.77078,0.993342 0.27351,0.195115 0.4678,0.316079 0.58486,0.36351 z"
         id="path13531-3"
         inkscape:connector-curvature="0"
         transform="translate(-39.574926,-1.721946)" />
      <rect
         style="fill:none;fill-opacity:1;stroke:none;stroke-width:0.0540409;stroke-linecap:square;stroke-linejoin:bevel;stroke-dasharray:none;stroke-opacity:1;paint-order:stroke fill markers"
         id="rect13679"
         width="82.495956"
         height="69.795959"
         x="70.912781"
         y="15.455375"
         transform="translate(-39.574926,-1.721946)" />
      <path
         d="m 79.855208,53.909482 h -2.12907 v 2.133204 h 2.48047 v 0.649056 h -3.237013 v -6.019273 h 3.195672 v 0.65319 h -2.439129 v 1.934766 h 2.12907 z"
         style="font-size:8.46667px;line-height:0.85;font-family:'Roboto Condensed';-inkscape-font-specification:'Roboto Condensed, ';text-align:center;letter-spacing:0px;word-spacing:0px;text-anchor:middle;stroke-width:0.264583"
         id="path52657"
         transform="translate(-39.574926,-1.721946)" />
      <path
         d="m 82.029753,51.13549 v 1.083138 h 0.673861 v 0.591179 h -0.673861 v 2.773992 q 0,0.264583 0.08682,0.401009 0.08682,0.136426 0.297656,0.136426 0.144694,0 0.293522,-0.04961 l -0.0083,0.620117 q -0.248047,0.08268 -0.508496,0.08268 -0.434082,0 -0.661459,-0.310058 Q 81.30212,56.154304 81.30212,55.58793 v -2.778123 h -0.6821 v -0.591179 h 0.682129 V 51.13549 Z"
         style="font-size:8.46667px;line-height:0.85;font-family:'Roboto Condensed';-inkscape-font-specification:'Roboto Condensed, ';text-align:center;letter-spacing:0px;word-spacing:0px;text-anchor:middle;stroke-width:0.264583"
         id="path52659"
         transform="translate(-39.574926,-1.721946)" />
      <path
         d="m 84.303518,52.677515 q 0.417545,-0.541569 1.066602,-0.541569 1.186491,0 1.203027,1.583366 v 2.97243 h -0.727604 v -2.939357 q 0,-0.525032 -0.177767,-0.744141 -0.173633,-0.223242 -0.525033,-0.223242 -0.272851,0 -0.49196,0.181901 -0.214974,0.181901 -0.347265,0.475424 v 3.249415 h -0.731739 v -6.350003 h 0.731739 z"
         style="font-size:8.46667px;line-height:0.85;font-family:'Roboto Condensed';-inkscape-font-specification:'Roboto Condensed, ';text-align:center;letter-spacing:0px;word-spacing:0px;text-anchor:middle;stroke-width:0.264583"
         id="path52661"
         transform="translate(-39.574926,-1.721946)" />
      <path
         d="m 88.450036,56.691742 h -0.731738 v -4.473114 h 0.731738 z m 0.05788,-5.659605 q 0,0.186035 -0.103353,0.310059 -0.103353,0.124023 -0.314193,0.124023 -0.206706,0 -0.310058,-0.124023 -0.103353,-0.124024 -0.103353,-0.310059 0,-0.186035 0.103353,-0.314193 0.103352,-0.128158 0.310058,-0.128158 0.206706,0 0.310059,0.132292 0.107487,0.128158 0.107487,0.310059 z"
         style="font-size:8.46667px;line-height:0.85;font-family:'Roboto Condensed';-inkscape-font-specification:'Roboto Condensed, ';text-align:center;letter-spacing:0px;word-spacing:0px;text-anchor:middle;stroke-width:0.264583"
         id="path52663"
         transform="translate(-39.574926,-1.721946)" />
      <path
         d="m 89.446358,54.248479 q 0,-0.975651 0.471289,-1.542025 0.475423,-0.570508 1.252637,-0.570508 0.777214,0 1.248503,0.553971 0.475424,0.553972 0.487826,1.508953 v 0.471289 q 0,0.971517 -0.471289,1.537891 -0.471289,0.566374 -1.256771,0.566374 -0.777214,0 -1.248504,-0.549837 -0.467155,-0.549838 -0.483691,-1.488282 z m 0.731738,0.42168 q 0,0.690398 0.268718,1.087273 0.272852,0.392741 0.731739,0.392741 0.967383,0 0.996322,-1.397332 v -0.504362 q 0,-0.686263 -0.272852,-1.083138 -0.272852,-0.401009 -0.731739,-0.401009 -0.450618,0 -0.72347,0.401009 -0.268718,0.396875 -0.268718,1.079004 z"
         style="font-size:8.46667px;line-height:0.85;font-family:'Roboto Condensed';-inkscape-font-specification:'Roboto Condensed, ';text-align:center;letter-spacing:0px;word-spacing:0px;text-anchor:middle;stroke-width:0.264583"
         id="path52665"
         transform="translate(-39.574926,-1.721946)" />
      <path
         d="m 97.082071,54.670159 q 0,1.062468 -0.384473,1.583367 -0.380338,0.520898 -1.079004,0.520898 -0.673861,0 -1.037663,-0.508496 v 2.145606 h -0.727605 v -6.192906 h 0.661459 l 0.03721,0.496094 q 0.367936,-0.578776 1.0542,-0.578776 0.735872,0 1.099675,0.51263 0.363802,0.512631 0.376204,1.533757 z m -0.727604,-0.417546 q 0,-0.752409 -0.231511,-1.107943 -0.23151,-0.359668 -0.744141,-0.359668 -0.525032,0 -0.797884,0.525033 v 2.327507 q 0.268718,0.512631 0.806153,0.512631 0.496094,0 0.727604,-0.355534 0.235645,-0.359668 0.239779,-1.095541 z"
         style="font-size:8.46667px;line-height:0.85;font-family:'Roboto Condensed';-inkscape-font-specification:'Roboto Condensed, ';text-align:center;letter-spacing:0px;word-spacing:0px;text-anchor:middle;stroke-width:0.264583"
         id="path52667"
         transform="translate(-39.574926,-1.721946)" />
      <path
         d="m 98.814266,56.691742 h -0.731739 v -4.473114 h 0.731739 z m 0.05788,-5.659605 q 0,0.186035 -0.103353,0.310059 -0.103353,0.124023 -0.314193,0.124023 -0.206705,0 -0.310058,-0.124023 -0.103353,-0.124024 -0.103353,-0.310059 0,-0.186035 0.103353,-0.314193 0.103353,-0.128158 0.310058,-0.128158 0.206706,0 0.310059,0.132292 0.107487,0.128158 0.107487,0.310059 z"
         style="font-size:8.46667px;line-height:0.85;font-family:'Roboto Condensed';-inkscape-font-specification:'Roboto Condensed, ';text-align:center;letter-spacing:0px;word-spacing:0px;text-anchor:middle;stroke-width:0.264583"
         id="path52669"
         transform="translate(-39.574926,-1.721946)" />
      <path
         d="m 102.26625,56.691742 q -0.0661,-0.144694 -0.0951,-0.487826 -0.38861,0.570508 -0.99219,0.570508 -0.60772,0 -0.95085,-0.338997 -0.338995,-0.343132 -0.338995,-0.963249 0,-0.68213 0.463025,-1.083139 0.46302,-0.401009 1.26917,-0.409277 h 0.53744 v -0.475424 q 0,-0.401009 -0.17777,-0.570508 -0.17777,-0.169498 -0.54157,-0.169498 -0.33073,0 -0.53744,0.198437 -0.2067,0.194304 -0.2067,0.496094 h -0.731741 q 0,-0.343132 0.202571,-0.65319 0.20257,-0.314193 0.5457,-0.49196 0.34314,-0.177767 0.76482,-0.177767 0.68626,0 1.04179,0.343132 0.35967,0.338997 0.36794,0.992187 v 2.257228 q 0.004,0.516764 0.14056,0.897103 v 0.06615 z m -0.97565,-0.58291 q 0.26872,0 0.51263,-0.148829 0.24391,-0.148828 0.35554,-0.37207 v -1.066602 h -0.41342 q -0.5209,0.0083 -0.82269,0.235645 -0.30179,0.223242 -0.30179,0.628385 0,0.380339 0.15297,0.553972 0.15296,0.169499 0.51676,0.169499 z"
         style="font-size:8.46667px;line-height:0.85;font-family:'Roboto Condensed';-inkscape-font-specification:'Roboto Condensed, ';text-align:center;letter-spacing:0px;word-spacing:0px;text-anchor:middle;stroke-width:0.264583"
         id="path52671"
         transform="translate(-39.574926,-1.721946)" />
      <path
         d="m 104.70952,52.218628 0.0207,0.483692 q 0.42581,-0.566374 1.08727,-0.566374 1.18649,0 1.20303,1.583366 v 2.97243 h -0.72761 v -2.939357 q 0,-0.525032 -0.17777,-0.744141 -0.17363,-0.223242 -0.52503,-0.223242 -0.27285,0 -0.49196,0.181901 -0.21497,0.181901 -0.34726,0.475424 v 3.249415 h -0.73174 v -4.473114 z"
         style="font-size:8.46667px;line-height:0.85;font-family:'Roboto Condensed';-inkscape-font-specification:'Roboto Condensed, ';text-align:center;letter-spacing:0px;word-spacing:0px;text-anchor:middle;stroke-width:0.264583"
         id="path52673"
         transform="translate(-39.574926,-1.721946)" />
      <path
         d="m 111.72511,53.694508 1.23197,-3.022039 h 0.85576 l -1.71152,3.774448 v 2.244825 h -0.75655 v -2.244825 l -1.71152,-3.774448 h 0.85989 z"
         style="font-size:8.46667px;line-height:0.85;font-family:'Roboto Condensed';-inkscape-font-specification:'Roboto Condensed, ';text-align:center;letter-spacing:0px;word-spacing:0px;text-anchor:middle;stroke-width:0.264583"
         id="path52675"
         transform="translate(-39.574926,-1.721946)" />
      <path
         d="m 115.28459,56.691742 h -0.73174 v -4.473114 h 0.73174 z m 0.0579,-5.659605 q 0,0.186035 -0.10335,0.310059 -0.10335,0.124023 -0.31419,0.124023 -0.20671,0 -0.31006,-0.124023 -0.10335,-0.124024 -0.10335,-0.310059 0,-0.186035 0.10335,-0.314193 0.10335,-0.128158 0.31006,-0.128158 0.2067,0 0.31006,0.132292 0.10748,0.128158 0.10748,0.310059 z"
         style="font-size:8.46667px;line-height:0.85;font-family:'Roboto Condensed';-inkscape-font-specification:'Roboto Condensed, ';text-align:center;letter-spacing:0px;word-spacing:0px;text-anchor:middle;stroke-width:0.264583"
         id="path52677"
         transform="translate(-39.574926,-1.721946)" />
      <path
         d="m 118.28182,52.904891 q -0.15296,-0.02894 -0.33073,-0.02894 -0.56224,0 -0.78548,0.615983 v 3.199806 h -0.73174 v -4.473114 h 0.71107 l 0.0124,0.454753 q 0.29352,-0.537435 0.83096,-0.537435 0.17363,0 0.28938,0.05788 z"
         style="font-size:8.46667px;line-height:0.85;font-family:'Roboto Condensed';-inkscape-font-specification:'Roboto Condensed, ';text-align:center;letter-spacing:0px;word-spacing:0px;text-anchor:middle;stroke-width:0.264583"
         id="path52679"
         transform="translate(-39.574926,-1.721946)" />
      <path
         d="m 118.86473,54.252613 q 0,-1.045931 0.38034,-1.579232 0.38034,-0.537435 1.11207,-0.537435 0.68213,0 1.03767,0.58291 l 0.0372,-0.500228 h 0.66145 v 4.514455 q 0,0.830957 -0.42581,1.273308 -0.42581,0.446484 -1.18649,0.446484 -0.33073,0 -0.74414,-0.165364 -0.40928,-0.161231 -0.61599,-0.401009 l 0.29766,-0.504363 q 0.45475,0.446485 1.00459,0.446485 0.91364,0 0.93845,-0.996322 v -0.58291 q -0.35554,0.525032 -1.00873,0.525032 -0.69453,0 -1.08314,-0.520898 -0.3886,-0.525033 -0.40514,-1.504819 z m 0.73174,0.417546 q 0,0.752409 0.21911,1.107943 0.22324,0.3514 0.7276,0.3514 0.5457,0 0.81856,-0.558106 V 53.33484 q -0.28526,-0.549838 -0.81029,-0.549838 -0.50436,0 -0.72761,0.355534 -0.22324,0.3514 -0.22737,1.083139 z"
         style="font-size:8.46667px;line-height:0.85;font-family:'Roboto Condensed';-inkscape-font-specification:'Roboto Condensed, ';text-align:center;letter-spacing:0px;word-spacing:0px;text-anchor:middle;stroke-width:0.264583"
         id="path52681"
         transform="translate(-39.574926,-1.721946)" />
      <path
         d="m 125.48345,56.691742 q -0.0662,-0.144694 -0.0951,-0.487826 -0.3886,0.570508 -0.99218,0.570508 -0.60772,0 -0.95085,-0.338997 -0.339,-0.343132 -0.339,-0.963249 0,-0.68213 0.46302,-1.083139 0.46302,-0.401009 1.26918,-0.409277 h 0.53743 v -0.475424 q 0,-0.401009 -0.17777,-0.570508 -0.17776,-0.169498 -0.54157,-0.169498 -0.33072,0 -0.53743,0.198437 -0.20671,0.194304 -0.20671,0.496094 h -0.73174 q 0,-0.343132 0.20258,-0.65319 0.20257,-0.314193 0.5457,-0.49196 0.34313,-0.177767 0.76481,-0.177767 0.68626,0 1.0418,0.343132 0.35967,0.338997 0.36794,0.992187 v 2.257228 q 0.004,0.516764 0.14056,0.897103 v 0.06615 z m -0.97565,-0.58291 q 0.26871,0 0.51263,-0.148829 0.24391,-0.148828 0.35553,-0.37207 v -1.066602 h -0.41341 q -0.5209,0.0083 -0.82269,0.235645 -0.30179,0.223242 -0.30179,0.628385 0,0.380339 0.15296,0.553972 0.15296,0.169499 0.51677,0.169499 z"
         style="font-size:8.46667px;line-height:0.85;font-family:'Roboto Condensed';-inkscape-font-specification:'Roboto Condensed, ';text-align:center;letter-spacing:0px;word-spacing:0px;text-anchor:middle;stroke-width:0.264583"
         id="path52683"
         transform="translate(-39.574926,-1.721946)" />
      <path
         d="m 128.79074,56.150173 q 0.3638,0 0.58291,-0.223243 0.21911,-0.227376 0.23978,-0.644922 h 0.6904 q -0.0248,0.644922 -0.45889,1.070736 -0.42995,0.42168 -1.0542,0.42168 -0.83096,0 -1.26917,-0.520898 -0.43408,-0.525033 -0.43408,-1.558562 v -0.49196 q 0,-1.012859 0.43408,-1.537891 0.43408,-0.529167 1.26504,-0.529167 0.68626,0 1.08727,0.434082 0.40514,0.434082 0.42995,1.186491 h -0.6904 q -0.0248,-0.496094 -0.23978,-0.744141 -0.21084,-0.248046 -0.58704,-0.248046 -0.48783,0 -0.72347,0.322461 -0.23565,0.318327 -0.24392,1.050065 v 0.570508 q 0,0.789616 0.23151,1.116212 0.23565,0.326595 0.74001,0.326595 z"
         style="font-size:8.46667px;line-height:0.85;font-family:'Roboto Condensed';-inkscape-font-specification:'Roboto Condensed, ';text-align:center;letter-spacing:0px;word-spacing:0px;text-anchor:middle;stroke-width:0.264583"
         id="path52685"
         transform="translate(-39.574926,-1.721946)" />
      <path
         d="m 131.87893,52.677515 q 0.41754,-0.541569 1.0666,-0.541569 1.18649,0 1.20303,1.583366 v 2.97243 h -0.72761 v -2.939357 q 0,-0.525032 -0.17777,-0.744141 -0.17363,-0.223242 -0.52503,-0.223242 -0.27285,0 -0.49196,0.181901 -0.21497,0.181901 -0.34726,0.475424 v 3.249415 h -0.73174 v -6.350003 h 0.73174 z"
         style="font-size:8.46667px;line-height:0.85;font-family:'Roboto Condensed';-inkscape-font-specification:'Roboto Condensed, ';text-align:center;letter-spacing:0px;word-spacing:0px;text-anchor:middle;stroke-width:0.264583"
         id="path52687"
         transform="translate(-39.574926,-1.721946)" />
      <path
         d="m 136.83573,56.774424 q -0.83509,0 -1.28157,-0.496094 -0.44649,-0.500228 -0.45476,-1.463477 v -0.541569 q 0,-1.000456 0.43409,-1.56683 0.43821,-0.570508 1.21956,-0.570508 0.78548,0 1.17409,0.500228 0.38861,0.500228 0.39687,1.558562 v 0.479557 h -2.497 v 0.103353 q 0,0.719336 0.26872,1.045932 0.27285,0.326595 0.78134,0.326595 0.32246,0 0.56638,-0.11989 0.24804,-0.124023 0.46302,-0.388607 l 0.38034,0.463021 q -0.47543,0.669727 -1.45108,0.669727 z m -0.0827,-4.010092 q -0.45475,0 -0.67386,0.314192 -0.21911,0.310059 -0.24805,0.967384 h 1.76114 v -0.09922 q -0.0289,-0.636654 -0.23152,-0.909506 -0.19843,-0.272851 -0.60771,-0.272851 z"
         style="font-size:8.46667px;line-height:0.85;font-family:'Roboto Condensed';-inkscape-font-specification:'Roboto Condensed, ';text-align:center;letter-spacing:0px;word-spacing:0px;text-anchor:middle;stroke-width:0.264583"
         id="path52689"
         transform="translate(-39.574926,-1.721946)" />
      <path
         d="M 139.52291,56.691742 V 52.809807 H 138.94 v -0.591179 h 0.58291 v -0.516764 q 0.0124,-0.68213 0.34313,-1.062468 0.33486,-0.384473 0.94258,-0.384473 0.21911,0 0.44235,0.07028 l -0.0372,0.620117 q -0.15709,-0.03721 -0.33486,-0.03721 -0.62425,0 -0.62425,0.888835 v 0.42168 h 0.76481 v 0.591179 h -0.76481 v 3.881935 z"
         style="font-size:8.46667px;line-height:0.85;font-family:'Roboto Condensed';-inkscape-font-specification:'Roboto Condensed, ';text-align:center;letter-spacing:0px;word-spacing:0px;text-anchor:middle;stroke-width:0.264583"
         id="path52691"
         transform="translate(-39.574926,-1.721946)" />
      <path
         d="m 142.20182,56.691742 v -3.881935 h -0.58291 v -0.591179 h 0.58291 v -0.516764 q 0.0124,-0.68213 0.34313,-1.062468 0.33486,-0.384473 0.94258,-0.384473 0.21911,0 0.44235,0.07028 l -0.0372,0.620117 q -0.15709,-0.03721 -0.33486,-0.03721 -0.62425,0 -0.62425,0.888835 v 0.42168 h 0.76481 v 0.591179 h -0.76481 v 3.881935 z"
         style="font-size:8.46667px;line-height:0.85;font-family:'Roboto Condensed';-inkscape-font-specification:'Roboto Condensed, ';text-align:center;letter-spacing:0px;word-spacing:0px;text-anchor:middle;stroke-width:0.264583"
         id="path52693"
         transform="translate(-39.574926,-1.721946)" />
      <path
         d="m 146.15816,56.774424 q -0.83509,0 -1.28157,-0.496094 -0.44649,-0.500228 -0.45476,-1.463477 v -0.541569 q 0,-1.000456 0.43409,-1.56683 0.43821,-0.570508 1.21956,-0.570508 0.78548,0 1.17409,0.500228 0.38861,0.500228 0.39687,1.558562 v 0.479557 h -2.497 v 0.103353 q 0,0.719336 0.26871,1.045932 0.27286,0.326595 0.78135,0.326595 0.32246,0 0.56638,-0.11989 0.24804,-0.124023 0.46302,-0.388607 l 0.38034,0.463021 q -0.47543,0.669727 -1.45108,0.669727 z m -0.0827,-4.010092 q -0.45475,0 -0.67386,0.314192 -0.21911,0.310059 -0.24805,0.967384 h 1.76114 v -0.09922 q -0.0289,-0.636654 -0.23152,-0.909506 -0.19843,-0.272851 -0.60771,-0.272851 z"
         style="font-size:8.46667px;line-height:0.85;font-family:'Roboto Condensed';-inkscape-font-specification:'Roboto Condensed, ';text-align:center;letter-spacing:0px;word-spacing:0px;text-anchor:middle;stroke-width:0.264583"
         id="path52695"
         transform="translate(-39.574926,-1.721946)" />
      <path
         d="m 73.584501,63.545512 c 0.214312,0.214312 0.528637,0.390525 0.938212,0.390525 0.404813,0 0.93345,-0.176213 0.93345,-0.676275 0,-0.500063 -0.504825,-0.6477 -0.9525,-0.6477 -0.371475,0 -0.790575,-0.119063 -0.790575,-0.576263 0,-0.409575 0.409575,-0.561975 0.78105,-0.561975 0.242888,0 0.576262,0.05239 0.700087,0.300038 l 0.08572,-0.0381 c -0.157162,-0.2286 -0.366712,-0.357188 -0.785812,-0.357188 -0.40005,0 -0.8763,0.176213 -0.8763,0.657225 0,0.500063 0.414338,0.671513 0.885825,0.671513 0.357188,0 0.85725,0.09049 0.85725,0.55245 0,0.423862 -0.461962,0.581025 -0.8382,0.581025 -0.314325,0 -0.6096,-0.119063 -0.866775,-0.357188 z"
         style="font-size:4.7625px;line-height:0.85;font-family:Raleway;-inkscape-font-specification:Raleway;text-align:center;letter-spacing:0px;word-spacing:0px;text-anchor:middle;stroke-width:0.264583"
         id="path52697"
         transform="translate(-39.574926,-1.721946)" />
      <path
         d="m 78.318427,62.659687 c 0,-0.633413 -0.4953,-1.281113 -1.190625,-1.281113 -0.376238,0 -0.757238,0.233363 -0.966788,0.561975 v -0.523875 h -0.09525 v 3.48615 h 0.09525 v -1.58115 c 0.214313,0.333375 0.5715,0.614363 1.00965,0.614363 0.690563,0 1.1049,-0.600075 1.147763,-1.27635 z m -0.09525,0 c -0.0095,0.585787 -0.409575,1.1811 -1.052513,1.1811 -0.43815,0 -0.833437,-0.319088 -1.00965,-0.719138 v -0.890587 c 0,-0.395288 0.585788,-0.757238 0.966788,-0.757238 0.6096,0 1.095375,0.566738 1.095375,1.185863 z"
         style="font-size:4.7625px;line-height:0.85;font-family:Raleway;-inkscape-font-specification:Raleway;text-align:center;letter-spacing:0px;word-spacing:0px;text-anchor:middle;stroke-width:0.264583"
         id="path52699"
         transform="translate(-39.574926,-1.721946)" />
      <path
         d="m 78.651807,62.659687 c 0,0.633412 0.500062,1.27635 1.190625,1.27635 0.371475,0 0.828675,-0.204788 0.981075,-0.59055 l -0.09049,-0.02381 c -0.147637,0.32385 -0.528637,0.519113 -0.890587,0.519113 -0.604838,0 -1.052513,-0.5334 -1.095375,-1.133475 h 2.262187 v -0.05239 c -0.0095,-0.676275 -0.485775,-1.27635 -1.209675,-1.27635 -0.690562,0 -1.128712,0.619125 -1.147762,1.281113 z m 0.09525,-0.04762 c 0.02858,-0.542925 0.40005,-1.138238 1.052512,-1.138238 0.633413,0 1.0668,0.4953 1.109663,1.138238 z"
         style="font-size:4.7625px;line-height:0.85;font-family:Raleway;-inkscape-font-specification:Raleway;text-align:center;letter-spacing:0px;word-spacing:0px;text-anchor:middle;stroke-width:0.264583"
         id="path52701"
         transform="translate(-39.574926,-1.721946)" />
      <path
         d="m 81.414056,62.659687 c 0,0.633412 0.500062,1.27635 1.190625,1.27635 0.36195,0 0.833437,-0.200025 0.962025,-0.585788 l -0.09525,-0.02857 c -0.08096,0.314325 -0.557213,0.519113 -0.866775,0.519113 -0.6096,0 -1.095375,-0.561975 -1.095375,-1.1811 0,-0.561975 0.385762,-1.185863 1.052512,-1.185863 0.371475,0 0.690563,0.147638 0.8763,0.490538 l 0.09049,-0.03334 c -0.161925,-0.32385 -0.442913,-0.55245 -0.966788,-0.55245 -0.676275,0 -1.147762,0.619125 -1.147762,1.281113 z"
         style="font-size:4.7625px;line-height:0.85;font-family:Raleway;-inkscape-font-specification:Raleway;text-align:center;letter-spacing:0px;word-spacing:0px;text-anchor:middle;stroke-width:0.264583"
         id="path52703"
         transform="translate(-39.574926,-1.721946)" />
      <path
         d="m 84.185835,63.888412 v -2.462213 h -0.09525 v 2.462213 z m 0,-3.109913 v -0.3048 h -0.09525 v 0.3048 z"
         style="font-size:4.7625px;line-height:0.85;font-family:Raleway;-inkscape-font-specification:Raleway;text-align:center;letter-spacing:0px;word-spacing:0px;text-anchor:middle;stroke-width:0.264583"
         id="path52705"
         transform="translate(-39.574926,-1.721946)" />
      <path
         d="m 86.729006,63.793162 c -0.05239,0 -0.06668,-0.0381 -0.0762,-0.09525 v -1.366838 c 0,-0.5334 -0.309563,-0.9525 -0.904875,-0.9525 -0.3048,0 -0.600075,0.147638 -0.85725,0.32385 l 0.05715,0.0762 c 0.276225,-0.195262 0.561975,-0.3048 0.8001,-0.3048 0.490537,0 0.809625,0.352425 0.809625,0.85725 v 0.280988 c -0.128588,-0.04763 -0.423863,-0.138113 -0.828675,-0.138113 -0.428625,0 -1.019175,0.17145 -1.019175,0.70485 0,0.423863 0.352425,0.757238 0.8001,0.757238 0.385762,0 0.795337,-0.142875 1.04775,-0.466725 v 0.2286 c 0,0.100012 0.06191,0.185737 0.17145,0.1905 z m -0.242888,-0.390525 c -0.195262,0.3048 -0.614362,0.43815 -0.976312,0.43815 -0.366713,0 -0.70485,-0.261938 -0.70485,-0.661988 0,-0.461962 0.519112,-0.6096 0.923925,-0.6096 0.276225,0 0.557212,0.04286 0.828675,0.147638 v 0.490537 c 0,0.05715 -0.02381,0.123825 -0.07144,0.195263 z"
         style="font-size:4.7625px;line-height:0.85;font-family:Raleway;-inkscape-font-specification:Raleway;text-align:center;letter-spacing:0px;word-spacing:0px;text-anchor:middle;stroke-width:0.264583"
         id="path52707"
         transform="translate(-39.574926,-1.721946)" />
      <path
         d="m 87.462433,63.521699 c 0,0.20955 0.138112,0.390525 0.376237,0.390525 0.166688,0 0.333375,-0.0381 0.338138,-0.04286 l -0.04286,-0.09049 c -0.0048,0 -0.161925,0.04286 -0.290512,0.04286 -0.185738,0 -0.28575,-0.161925 -0.28575,-0.300038 v -3.109912 h -0.09525 z"
         style="font-size:4.7625px;line-height:0.85;font-family:Raleway;-inkscape-font-specification:Raleway;text-align:center;letter-spacing:0px;word-spacing:0px;text-anchor:middle;stroke-width:0.264583"
         id="path52709"
         transform="translate(-39.574926,-1.721946)" />
      <path
         d="m 89.457919,63.697912 c -0.0095,0.0048 -0.180975,0.119062 -0.40005,0.119062 -0.166688,0 -0.319088,-0.100012 -0.333375,-0.28575 v -2.0193 h 0.595312 v -0.09525 h -0.595312 v -0.862012 h -0.09525 v 0.862012 h -0.357188 v 0.09525 h 0.357188 v 2.0193 c 0,0.2286 0.200025,0.381 0.428625,0.381 0.261937,0 0.447675,-0.13335 0.452437,-0.138112 z"
         style="font-size:4.7625px;line-height:0.85;font-family:Raleway;-inkscape-font-specification:Raleway;text-align:center;letter-spacing:0px;word-spacing:0px;text-anchor:middle;stroke-width:0.264583"
         id="path52711"
         transform="translate(-39.574926,-1.721946)" />
      <path
         d="m 91.858223,61.416674 -1.033462,2.352675 -1.090613,-2.352675 h -0.104775 l 1.147763,2.471738 c -0.376238,0.85725 -0.390525,0.885825 -0.414338,0.9144 -0.03334,0.03334 -0.07144,0.05239 -0.223837,0.05239 v 0.09525 c 0.176212,0 0.271462,-0.0381 0.319087,-0.119062 l 0.03334,-0.05715 1.471612,-3.357563 z"
         style="font-size:4.7625px;line-height:0.85;font-family:Raleway;-inkscape-font-specification:Raleway;text-align:center;letter-spacing:0px;word-spacing:0px;text-anchor:middle;stroke-width:0.264583"
         id="path52713"
         transform="translate(-39.574926,-1.721946)" />
      <path
         d="m 95.996842,61.426199 v 0.566738 c -0.238125,-0.338138 -0.561975,-0.614363 -1.00965,-0.614363 -0.676275,0 -1.147763,0.619125 -1.147763,1.281113 0,0.633412 0.500063,1.27635 1.190625,1.27635 0.376238,0 0.757238,-0.233363 0.966788,-0.561975 v 0.619125 c 0,0.566737 -0.452438,0.862012 -0.995363,0.862012 -0.40005,0 -0.78105,-0.1524 -0.981075,-0.523875 l -0.09049,0.02858 c 0.185737,0.352425 0.485775,0.59055 1.071562,0.59055 0.561975,0 1.090613,-0.3048 1.090613,-0.957262 v -2.566988 z m -0.08096,1.895475 c -0.176212,0.290513 -0.528637,0.519113 -0.885825,0.519113 -0.6096,0 -1.095375,-0.561975 -1.095375,-1.1811 0,-0.561975 0.385763,-1.185863 1.052513,-1.185863 0.423862,0 0.852487,0.3048 1.00965,0.719138 v 0.890587 c 0,0.07144 -0.02858,0.1524 -0.08096,0.238125 z"
         style="font-size:4.7625px;line-height:0.85;font-family:Raleway;-inkscape-font-specification:Raleway;text-align:center;letter-spacing:0px;word-spacing:0px;text-anchor:middle;stroke-width:0.264583"
         id="path52715"
         transform="translate(-39.574926,-1.721946)" />
      <path
         d="m 97.863738,61.416674 c -0.433387,0 -0.757237,0.238125 -0.962025,0.638175 v -0.638175 h -0.09525 v 2.471738 h 0.09525 v -1.5621 c 0.123825,-0.452438 0.4572,-0.795338 0.962025,-0.814388 z"
         style="font-size:4.7625px;line-height:0.85;font-family:Raleway;-inkscape-font-specification:Raleway;text-align:center;letter-spacing:0px;word-spacing:0px;text-anchor:middle;stroke-width:0.264583"
         id="path52717"
         transform="translate(-39.574926,-1.721946)" />
      <path
         d="m 100.13544,63.793162 c -0.0524,0 -0.0667,-0.0381 -0.0762,-0.09525 v -1.366838 c 0,-0.5334 -0.309558,-0.9525 -0.90487,-0.9525 -0.3048,0 -0.600075,0.147638 -0.85725,0.32385 l 0.05715,0.0762 c 0.276225,-0.195262 0.561975,-0.3048 0.8001,-0.3048 0.490537,0 0.809625,0.352425 0.809625,0.85725 v 0.280988 c -0.128588,-0.04763 -0.423863,-0.138113 -0.828675,-0.138113 -0.428625,0 -1.019175,0.17145 -1.019175,0.70485 0,0.423863 0.352425,0.757238 0.8001,0.757238 0.385762,0 0.795337,-0.142875 1.04775,-0.466725 v 0.2286 c 0,0.100012 0.0619,0.185737 0.171445,0.1905 z m -0.242883,-0.390525 c -0.195262,0.3048 -0.614362,0.43815 -0.976312,0.43815 -0.366713,0 -0.70485,-0.261938 -0.70485,-0.661988 0,-0.461962 0.519112,-0.6096 0.923925,-0.6096 0.276225,0 0.557212,0.04286 0.828675,0.147638 v 0.490537 c 0,0.05715 -0.02381,0.123825 -0.07144,0.195263 z"
         style="font-size:4.7625px;line-height:0.85;font-family:Raleway;-inkscape-font-specification:Raleway;text-align:center;letter-spacing:0px;word-spacing:0px;text-anchor:middle;stroke-width:0.264583"
         id="path52719"
         transform="translate(-39.574926,-1.721946)" />
      <path
         d="m 102.85007,63.793162 c -0.0476,0 -0.0714,-0.0381 -0.0762,-0.09525 v -3.286125 h -0.0953 v 1.58115 c -0.2286,-0.328613 -0.55721,-0.614363 -1.00965,-0.614363 -0.66199,0 -1.14776,0.600075 -1.14776,1.281113 0,0.633412 0.50006,1.27635 1.19062,1.27635 0.37624,0 0.75724,-0.233363 0.96679,-0.561975 v 0.32385 c 0,0.09525 0.0619,0.185737 0.17145,0.1905 z m -0.17145,-0.709613 c -0.01,0.404813 -0.58102,0.757238 -0.96679,0.757238 -0.6096,0 -1.09537,-0.561975 -1.09537,-1.1811 0,-0.59055 0.40957,-1.185863 1.05251,-1.185863 0.40005,0 0.8763,0.32385 1.00965,0.719138 z"
         style="font-size:4.7625px;line-height:0.85;font-family:Raleway;-inkscape-font-specification:Raleway;text-align:center;letter-spacing:0px;word-spacing:0px;text-anchor:middle;stroke-width:0.264583"
         id="path52721"
         transform="translate(-39.574926,-1.721946)" />
      <path
         d="m 103.40728,62.659687 c 0,0.633412 0.50006,1.27635 1.19063,1.27635 0.37147,0 0.82867,-0.204788 0.98107,-0.59055 l -0.0905,-0.02381 c -0.14763,0.32385 -0.52863,0.519113 -0.89058,0.519113 -0.60484,0 -1.05252,-0.5334 -1.09538,-1.133475 h 2.26219 v -0.05239 c -0.01,-0.676275 -0.48578,-1.27635 -1.20968,-1.27635 -0.69056,0 -1.12871,0.619125 -1.14776,1.281113 z m 0.0952,-0.04762 c 0.0286,-0.542925 0.40005,-1.138238 1.05251,-1.138238 0.63342,0 1.0668,0.4953 1.10967,1.138238 z"
         style="font-size:4.7625px;line-height:0.85;font-family:Raleway;-inkscape-font-specification:Raleway;text-align:center;letter-spacing:0px;word-spacing:0px;text-anchor:middle;stroke-width:0.264583"
         id="path52723"
         transform="translate(-39.574926,-1.721946)" />
      <path
         d="m 106.14572,64.045574 c 0.0333,0 0.0619,-0.0095 0.0857,-0.01905 0.0333,-0.02381 0.0524,-0.05715 0.0619,-0.08096 0.01,-0.02381 0.01,-0.04763 0.01,-0.05715 v -0.3048 h -0.0953 v 0.3048 c 0,0.0048 0,0.02381 -0.01,0.0381 l -0.0143,0.01429 c -0.01,0.0048 -0.019,0.0095 -0.0381,0.0095 z"
         style="font-size:4.7625px;line-height:0.85;font-family:Raleway;-inkscape-font-specification:Raleway;text-align:center;letter-spacing:0px;word-spacing:0px;text-anchor:middle;stroke-width:0.264583"
         id="path52725"
         transform="translate(-39.574926,-1.721946)" />
      <path
         d="m 108.34599,63.545512 c 0.21432,0.214312 0.52864,0.390525 0.93822,0.390525 0.40481,0 0.93345,-0.176213 0.93345,-0.676275 0,-0.500063 -0.50483,-0.6477 -0.9525,-0.6477 -0.37148,0 -0.79058,-0.119063 -0.79058,-0.576263 0,-0.409575 0.40958,-0.561975 0.78105,-0.561975 0.24289,0 0.57626,0.05239 0.70009,0.300038 l 0.0857,-0.0381 c -0.15716,-0.2286 -0.36671,-0.357188 -0.78581,-0.357188 -0.40005,0 -0.8763,0.176213 -0.8763,0.657225 0,0.500063 0.41434,0.671513 0.88583,0.671513 0.35718,0 0.85725,0.09049 0.85725,0.55245 0,0.423862 -0.46197,0.581025 -0.8382,0.581025 -0.31433,0 -0.6096,-0.119063 -0.86678,-0.357188 z"
         style="font-size:4.7625px;line-height:0.85;font-family:Raleway;-inkscape-font-specification:Raleway;text-align:center;letter-spacing:0px;word-spacing:0px;text-anchor:middle;stroke-width:0.264583"
         id="path52727"
         transform="translate(-39.574926,-1.721946)" />
      <path
         d="m 114.33246,62.512049 c 0,-0.500062 -0.0762,-1.133475 -0.76677,-1.133475 -0.45243,0 -0.76676,0.300038 -0.98107,0.719138 -0.0381,-0.381 -0.28575,-0.719138 -0.74771,-0.719138 -0.40482,0 -0.75248,0.257175 -0.96203,0.676275 v -0.638175 h -0.0953 v 2.471738 h 0.0953 v -1.5621 c 0.1143,-0.428625 0.46196,-0.852488 0.96203,-0.852488 0.54292,0 0.67151,0.423863 0.67151,1.038225 v 1.376363 h 0.0952 v -1.557338 c 0.01,-0.01905 0.0572,-0.242887 0.20955,-0.452437 0.17621,-0.238125 0.43339,-0.404813 0.75247,-0.404813 0.59055,0 0.67152,0.523875 0.67152,1.038225 v 1.376363 h 0.0952 z"
         style="font-size:4.7625px;line-height:0.85;font-family:Raleway;-inkscape-font-specification:Raleway;text-align:center;letter-spacing:0px;word-spacing:0px;text-anchor:middle;stroke-width:0.264583"
         id="path52729"
         transform="translate(-39.574926,-1.721946)" />
      <path
         d="m 117.01851,63.793162 c -0.0524,0 -0.0667,-0.0381 -0.0762,-0.09525 v -1.366838 c 0,-0.5334 -0.30956,-0.9525 -0.90488,-0.9525 -0.3048,0 -0.60007,0.147638 -0.85725,0.32385 l 0.0572,0.0762 c 0.27623,-0.195262 0.56198,-0.3048 0.8001,-0.3048 0.49054,0 0.80963,0.352425 0.80963,0.85725 v 0.280988 c -0.12859,-0.04763 -0.42386,-0.138113 -0.82868,-0.138113 -0.42862,0 -1.01917,0.17145 -1.01917,0.70485 0,0.423863 0.35242,0.757238 0.8001,0.757238 0.38576,0 0.79534,-0.142875 1.04775,-0.466725 v 0.2286 c 0,0.100012 0.0619,0.185737 0.17145,0.1905 z m -0.24289,-0.390525 c -0.19526,0.3048 -0.61436,0.43815 -0.97631,0.43815 -0.36671,0 -0.70485,-0.261938 -0.70485,-0.661988 0,-0.461962 0.51911,-0.6096 0.92392,-0.6096 0.27623,0 0.55722,0.04286 0.82868,0.147638 v 0.490537 c 0,0.05715 -0.0238,0.123825 -0.0714,0.195263 z"
         style="font-size:4.7625px;line-height:0.85;font-family:Raleway;-inkscape-font-specification:Raleway;text-align:center;letter-spacing:0px;word-spacing:0px;text-anchor:middle;stroke-width:0.264583"
         id="path52731"
         transform="translate(-39.574926,-1.721946)" />
      <path
         d="m 117.75194,63.521699 c 0,0.20955 0.13811,0.390525 0.37623,0.390525 0.16669,0 0.33338,-0.0381 0.33814,-0.04286 l -0.0429,-0.09049 c -0.005,0 -0.16193,0.04286 -0.29051,0.04286 -0.18574,0 -0.28575,-0.161925 -0.28575,-0.300038 v -3.109912 h -0.0952 z"
         style="font-size:4.7625px;line-height:0.85;font-family:Raleway;-inkscape-font-specification:Raleway;text-align:center;letter-spacing:0px;word-spacing:0px;text-anchor:middle;stroke-width:0.264583"
         id="path52733"
         transform="translate(-39.574926,-1.721946)" />
      <path
         d="m 118.89493,63.521699 c 0,0.20955 0.13812,0.390525 0.37624,0.390525 0.16669,0 0.33338,-0.0381 0.33814,-0.04286 l -0.0429,-0.09049 c -0.005,0 -0.16193,0.04286 -0.29052,0.04286 -0.18573,0 -0.28575,-0.161925 -0.28575,-0.300038 v -3.109912 h -0.0952 z"
         style="font-size:4.7625px;line-height:0.85;font-family:Raleway;-inkscape-font-specification:Raleway;text-align:center;letter-spacing:0px;word-spacing:0px;text-anchor:middle;stroke-width:0.264583"
         id="path52735"
         transform="translate(-39.574926,-1.721946)" />
      <path
         d="m 123.79555,62.659687 c 0,-0.6096 -0.42386,-1.281113 -1.14776,-1.281113 -0.43339,0 -0.75724,0.257175 -1.00965,0.614363 v -1.58115 h -0.0953 v 3.476625 h 0.0953 v -0.51435 c 0.19526,0.314325 0.57626,0.561975 0.96678,0.561975 0.67152,0 1.17158,-0.604838 1.19063,-1.27635 z m -0.0953,0 c 0,0.585787 -0.4572,1.1811 -1.09538,1.1811 -0.38576,0 -0.96678,-0.352425 -0.96678,-0.757238 v -0.890587 c 0.18573,-0.376238 0.53816,-0.719138 1.00965,-0.719138 0.62388,0 1.05251,0.576263 1.05251,1.185863 z"
         style="font-size:4.7625px;line-height:0.85;font-family:Raleway;-inkscape-font-specification:Raleway;text-align:center;letter-spacing:0px;word-spacing:0px;text-anchor:middle;stroke-width:0.264583"
         id="path52737"
         transform="translate(-39.574926,-1.721946)" />
      <path
         d="m 126.1768,63.793162 c -0.0524,0 -0.0667,-0.0381 -0.0762,-0.09525 v -1.366838 c 0,-0.5334 -0.30957,-0.9525 -0.90488,-0.9525 -0.3048,0 -0.60007,0.147638 -0.85725,0.32385 l 0.0571,0.0762 c 0.27623,-0.195262 0.56198,-0.3048 0.8001,-0.3048 0.49054,0 0.80963,0.352425 0.80963,0.85725 v 0.280988 c -0.12859,-0.04763 -0.42387,-0.138113 -0.82868,-0.138113 -0.42862,0 -1.01917,0.17145 -1.01917,0.70485 0,0.423863 0.35242,0.757238 0.8001,0.757238 0.38576,0 0.79533,-0.142875 1.04775,-0.466725 v 0.2286 c 0,0.100012 0.0619,0.185737 0.17145,0.1905 z m -0.24289,-0.390525 c -0.19526,0.3048 -0.61436,0.43815 -0.97631,0.43815 -0.36672,0 -0.70485,-0.261938 -0.70485,-0.661988 0,-0.461962 0.51911,-0.6096 0.92392,-0.6096 0.27623,0 0.55721,0.04286 0.82868,0.147638 v 0.490537 c 0,0.05715 -0.0238,0.123825 -0.0714,0.195263 z"
         style="font-size:4.7625px;line-height:0.85;font-family:Raleway;-inkscape-font-specification:Raleway;text-align:center;letter-spacing:0px;word-spacing:0px;text-anchor:middle;stroke-width:0.264583"
         id="path52739"
         transform="translate(-39.574926,-1.721946)" />
      <path
         d="m 127.76271,63.697912 c -0.01,0.0048 -0.18097,0.119062 -0.40005,0.119062 -0.16669,0 -0.31909,-0.100012 -0.33337,-0.28575 v -2.0193 h 0.59531 v -0.09525 h -0.59531 v -0.862012 h -0.0953 v 0.862012 h -0.35719 v 0.09525 h 0.35719 v 2.0193 c 0,0.2286 0.20002,0.381 0.42862,0.381 0.26194,0 0.44768,-0.13335 0.45244,-0.138112 z"
         style="font-size:4.7625px;line-height:0.85;font-family:Raleway;-inkscape-font-specification:Raleway;text-align:center;letter-spacing:0px;word-spacing:0px;text-anchor:middle;stroke-width:0.264583"
         id="path52741"
         transform="translate(-39.574926,-1.721946)" />
      <path
         d="m 128.07704,62.659687 c 0,0.633412 0.50006,1.27635 1.19063,1.27635 0.36195,0 0.83343,-0.200025 0.96202,-0.585788 l -0.0952,-0.02857 c -0.081,0.314325 -0.55721,0.519113 -0.86677,0.519113 -0.6096,0 -1.09538,-0.561975 -1.09538,-1.1811 0,-0.561975 0.38576,-1.185863 1.05251,-1.185863 0.37148,0 0.69057,0.147638 0.8763,0.490538 l 0.0905,-0.03334 c -0.16192,-0.32385 -0.44291,-0.55245 -0.96679,-0.55245 -0.67627,0 -1.14776,0.619125 -1.14776,1.281113 z"
         style="font-size:4.7625px;line-height:0.85;font-family:Raleway;-inkscape-font-specification:Raleway;text-align:center;letter-spacing:0px;word-spacing:0px;text-anchor:middle;stroke-width:0.264583"
         id="path52743"
         transform="translate(-39.574926,-1.721946)" />
      <path
         d="m 132.81573,62.512049 c 0,-0.500062 -0.0952,-1.133475 -0.79057,-1.133475 -0.40481,0 -0.82391,0.257175 -1.03346,0.676275 v -1.652587 h -0.0953 v 3.48615 h 0.0953 v -1.5621 c 0.1143,-0.428625 0.5334,-0.852488 1.03346,-0.852488 0.58102,0 0.69532,0.519113 0.69532,1.038225 v 1.376363 h 0.0952 z"
         style="font-size:4.7625px;line-height:0.85;font-family:Raleway;-inkscape-font-specification:Raleway;text-align:center;letter-spacing:0px;word-spacing:0px;text-anchor:middle;stroke-width:0.264583"
         id="path52745"
         transform="translate(-39.574926,-1.721946)" />
      <path
         d="m 133.24436,64.045574 c 0.0333,0 0.0619,-0.0095 0.0857,-0.01905 0.0333,-0.02381 0.0524,-0.05715 0.0619,-0.08096 0.01,-0.02381 0.01,-0.04763 0.01,-0.05715 v -0.3048 h -0.0953 v 0.3048 c 0,0.0048 0,0.02381 -0.01,0.0381 l -0.0143,0.01429 c -0.01,0.0048 -0.019,0.0095 -0.0381,0.0095 z"
         style="font-size:4.7625px;line-height:0.85;font-family:Raleway;-inkscape-font-specification:Raleway;text-align:center;letter-spacing:0px;word-spacing:0px;text-anchor:middle;stroke-width:0.264583"
         id="path52747"
         transform="translate(-39.574926,-1.721946)" />
      <path
         d="m 136.62098,63.936037 c 0.66198,-0.01429 1.17633,-0.600075 1.17633,-1.27635 0,-0.614363 -0.46672,-1.281113 -1.17633,-1.281113 -0.6477,0 -1.17634,0.59055 -1.17634,1.281113 0,0.642937 0.48101,1.262062 1.17634,1.27635 z m -1.08109,-1.27635 c 0,-0.561975 0.42862,-1.185863 1.08109,-1.185863 0.6096,0 1.08108,0.5715 1.08108,1.185863 0,0.561975 -0.42862,1.1811 -1.08108,1.1811 -0.62865,0 -1.05728,-0.566738 -1.08109,-1.1811 z"
         style="font-size:4.7625px;line-height:0.85;font-family:Raleway;-inkscape-font-specification:Raleway;text-align:center;letter-spacing:0px;word-spacing:0px;text-anchor:middle;stroke-width:0.264583"
         id="path52749"
         transform="translate(-39.574926,-1.721946)" />
      <path
         d="m 139.47371,61.416674 c -0.43339,0 -0.75724,0.238125 -0.96202,0.638175 v -0.638175 h -0.0952 v 2.471738 h 0.0952 v -1.5621 c 0.12382,-0.452438 0.4572,-0.795338 0.96202,-0.814388 z"
         style="font-size:4.7625px;line-height:0.85;font-family:Raleway;-inkscape-font-specification:Raleway;text-align:center;letter-spacing:0px;word-spacing:0px;text-anchor:middle;stroke-width:0.264583"
         id="path52751"
         transform="translate(-39.574926,-1.721946)" />
      <path
         d="m 141.98355,61.426199 v 0.566738 c -0.23813,-0.338138 -0.56198,-0.614363 -1.00965,-0.614363 -0.67628,0 -1.14776,0.619125 -1.14776,1.281113 0,0.633412 0.50006,1.27635 1.19062,1.27635 0.37624,0 0.75724,-0.233363 0.96679,-0.561975 v 0.619125 c 0,0.566737 -0.45244,0.862012 -0.99536,0.862012 -0.40005,0 -0.78105,-0.1524 -0.98108,-0.523875 l -0.0905,0.02858 c 0.18574,0.352425 0.48578,0.59055 1.07157,0.59055 0.56197,0 1.09061,-0.3048 1.09061,-0.957262 v -2.566988 z m -0.081,1.895475 c -0.17622,0.290513 -0.52864,0.519113 -0.88583,0.519113 -0.6096,0 -1.09537,-0.561975 -1.09537,-1.1811 0,-0.561975 0.38576,-1.185863 1.05251,-1.185863 0.42386,0 0.85249,0.3048 1.00965,0.719138 v 0.890587 c 0,0.07144 -0.0286,0.1524 -0.081,0.238125 z"
         style="font-size:4.7625px;line-height:0.85;font-family:Raleway;-inkscape-font-specification:Raleway;text-align:center;letter-spacing:0px;word-spacing:0px;text-anchor:middle;stroke-width:0.264583"
         id="path52753"
         transform="translate(-39.574926,-1.721946)" />
      <path
         d="m 144.74103,63.793162 c -0.0524,0 -0.0667,-0.0381 -0.0762,-0.09525 v -1.366838 c 0,-0.5334 -0.30956,-0.9525 -0.90487,-0.9525 -0.3048,0 -0.60008,0.147638 -0.85725,0.32385 l 0.0571,0.0762 c 0.27622,-0.195262 0.56197,-0.3048 0.8001,-0.3048 0.49053,0 0.80962,0.352425 0.80962,0.85725 v 0.280988 c -0.12859,-0.04763 -0.42386,-0.138113 -0.82867,-0.138113 -0.42863,0 -1.01918,0.17145 -1.01918,0.70485 0,0.423863 0.35243,0.757238 0.8001,0.757238 0.38576,0 0.79534,-0.142875 1.04775,-0.466725 v 0.2286 c 0,0.100012 0.0619,0.185737 0.17145,0.1905 z m -0.24289,-0.390525 c -0.19526,0.3048 -0.61436,0.43815 -0.97631,0.43815 -0.36671,0 -0.70485,-0.261938 -0.70485,-0.661988 0,-0.461962 0.51911,-0.6096 0.92393,-0.6096 0.27622,0 0.55721,0.04286 0.82867,0.147638 v 0.490537 c 0,0.05715 -0.0238,0.123825 -0.0714,0.195263 z"
         style="font-size:4.7625px;line-height:0.85;font-family:Raleway;-inkscape-font-specification:Raleway;text-align:center;letter-spacing:0px;word-spacing:0px;text-anchor:middle;stroke-width:0.264583"
         id="path52755"
         transform="translate(-39.574926,-1.721946)" />
      <path
         d="m 147.30326,62.512049 c 0,-0.500062 -0.0429,-1.133475 -0.73819,-1.133475 -0.43339,0 -0.88106,0.276225 -1.08585,0.676275 v -0.638175 h -0.0952 v 2.471738 h 0.0952 v -1.5621 c 0.12382,-0.43815 0.58102,-0.852488 1.08585,-0.852488 0.58102,0 0.64294,0.519113 0.64294,1.038225 v 1.376363 h 0.0952 z"
         style="font-size:4.7625px;line-height:0.85;font-family:Raleway;-inkscape-font-specification:Raleway;text-align:center;letter-spacing:0px;word-spacing:0px;text-anchor:middle;stroke-width:0.264583"
         id="path52757"
         transform="translate(-39.574926,-1.721946)" />
      <path
         d="m 148.03669,63.888412 v -2.462213 h -0.0952 v 2.462213 z m 0,-3.109913 v -0.3048 h -0.0952 v 0.3048 z"
         style="font-size:4.7625px;line-height:0.85;font-family:Raleway;-inkscape-font-specification:Raleway;text-align:center;letter-spacing:0px;word-spacing:0px;text-anchor:middle;stroke-width:0.264583"
         id="path52759"
         transform="translate(-39.574926,-1.721946)" />
      <path
         d="m 148.58437,62.659687 c 0,0.633412 0.50006,1.27635 1.19062,1.27635 0.36195,0 0.83344,-0.200025 0.96203,-0.585788 l -0.0952,-0.02857 c -0.081,0.314325 -0.55721,0.519113 -0.86678,0.519113 -0.6096,0 -1.09537,-0.561975 -1.09537,-1.1811 0,-0.561975 0.38576,-1.185863 1.05251,-1.185863 0.37148,0 0.69056,0.147638 0.8763,0.490538 l 0.0905,-0.03334 c -0.16193,-0.32385 -0.44291,-0.55245 -0.96679,-0.55245 -0.67627,0 -1.14776,0.619125 -1.14776,1.281113 z"
         style="font-size:4.7625px;line-height:0.85;font-family:Raleway;-inkscape-font-specification:Raleway;text-align:center;letter-spacing:0px;word-spacing:0px;text-anchor:middle;stroke-width:0.264583"
         id="path52761"
         transform="translate(-39.574926,-1.721946)" />
      <path
         d="m 92.808318,73.081671 c -0.337079,0 -0.588963,0.185208 -0.748242,0.496359 v -0.496359 h -0.07408 v 1.922464 h 0.07408 v -1.214968 c 0.09631,-0.351896 0.3556,-0.618596 0.748242,-0.633413 z"
         id="path52764"
         style="font-size:3.70417px;line-height:1.25;font-family:Raleway;-inkscape-font-specification:Raleway;text-align:center;letter-spacing:0px;word-spacing:0px;text-anchor:middle;stroke-width:0.264583"
         transform="translate(-39.574926,-1.721946)" />
      <path
         d="m 93.960314,75.041177 c 0.51488,-0.01111 0.91493,-0.466726 0.91493,-0.992718 0,-0.477838 -0.363009,-0.996421 -0.91493,-0.996421 -0.503767,0 -0.91493,0.459317 -0.91493,0.996421 0,0.500063 0.374121,0.981605 0.91493,0.992718 z m -0.840847,-0.992718 c 0,-0.437092 0.333376,-0.922338 0.840847,-0.922338 0.474134,0 0.840847,0.4445 0.840847,0.922338 0,0.437092 -0.333376,0.918634 -0.840847,0.918634 -0.48895,0 -0.822326,-0.440796 -0.840847,-0.918634 z"
         id="path52766"
         style="font-size:3.70417px;line-height:1.25;font-family:Raleway;-inkscape-font-specification:Raleway;text-align:center;letter-spacing:0px;word-spacing:0px;text-anchor:middle;stroke-width:0.264583"
         transform="translate(-39.574926,-1.721946)" />
      <path
         d="m 96.871792,74.930052 c -0.04075,0 -0.05186,-0.02963 -0.05927,-0.07408 v -1.063096 c 0,-0.414867 -0.240771,-0.740834 -0.703792,-0.740834 -0.237067,0 -0.466725,0.114829 -0.666751,0.251883 l 0.04445,0.05927 c 0.214842,-0.151871 0.437092,-0.237067 0.622301,-0.237067 0.381529,0 0.629709,0.274109 0.629709,0.666751 v 0.218546 c -0.100013,-0.03704 -0.329671,-0.107421 -0.644526,-0.107421 -0.333375,0 -0.792692,0.13335 -0.792692,0.548217 0,0.329671 0.274108,0.588963 0.6223,0.588963 0.300038,0 0.618597,-0.111125 0.814918,-0.363009 v 0.1778 c 0,0.07779 0.04815,0.144463 0.13335,0.148167 z M 96.682879,74.62631 c -0.151871,0.237067 -0.477838,0.340783 -0.759355,0.340783 -0.285221,0 -0.548217,-0.203729 -0.548217,-0.514879 0,-0.359305 0.403755,-0.474134 0.718609,-0.474134 0.214842,0 0.433388,0.03334 0.644526,0.114829 v 0.38153 c 0,0.04445 -0.01852,0.09631 -0.05556,0.151871 z"
         id="path52768"
         style="font-size:3.70417px;line-height:1.25;font-family:Raleway;-inkscape-font-specification:Raleway;text-align:center;letter-spacing:0px;word-spacing:0px;text-anchor:middle;stroke-width:0.264583"
         transform="translate(-39.574926,-1.721946)" />
      <path
         d="m 97.31259,74.737435 c 0.166687,0.166688 0.411162,0.303742 0.729721,0.303742 0.314854,0 0.726017,-0.137054 0.726017,-0.525992 0,-0.388938 -0.392642,-0.503767 -0.740834,-0.503767 -0.288925,0 -0.614892,-0.09261 -0.614892,-0.448205 0,-0.318559 0.318559,-0.437092 0.607484,-0.437092 0.188913,0 0.448205,0.04075 0.544513,0.233363 l 0.06668,-0.02963 c -0.122238,-0.1778 -0.285221,-0.277812 -0.611188,-0.277812 -0.31115,0 -0.681567,0.137054 -0.681567,0.511175 0,0.388938 0.322262,0.522288 0.688975,0.522288 0.277813,0 0.666751,0.07038 0.666751,0.429684 0,0.329671 -0.359305,0.451908 -0.651934,0.451908 -0.244475,0 -0.474134,-0.0926 -0.674159,-0.277812 z"
         id="path52770"
         style="font-size:3.70417px;line-height:1.25;font-family:Raleway;-inkscape-font-specification:Raleway;text-align:center;letter-spacing:0px;word-spacing:0px;text-anchor:middle;stroke-width:0.264583"
         transform="translate(-39.574926,-1.721946)" />
      <path
         d="m 99.942551,74.855968 c -0.0074,0.0037 -0.140758,0.0926 -0.31115,0.0926 -0.129646,0 -0.248179,-0.07779 -0.259292,-0.222251 v -1.570568 h 0.463021 v -0.07408 h -0.463021 v -0.670455 h -0.07408 v 0.670455 h -0.277813 v 0.07408 h 0.277813 v 1.570568 c 0,0.177801 0.155575,0.296334 0.333375,0.296334 0.203729,0 0.348192,-0.103717 0.351896,-0.107421 z"
         id="path52772"
         style="font-size:3.70417px;line-height:1.25;font-family:Raleway;-inkscape-font-specification:Raleway;text-align:center;letter-spacing:0px;word-spacing:0px;text-anchor:middle;stroke-width:0.264583"
         transform="translate(-39.574926,-1.721946)" />
      <path
         d="m 100.22407,74.048459 c 0,0.492655 0.38894,0.992718 0.92604,0.992718 0.28893,0 0.64453,-0.159279 0.76306,-0.459317 l -0.0704,-0.01852 c -0.11482,0.251883 -0.41116,0.403754 -0.69268,0.403754 -0.47042,0 -0.81862,-0.414867 -0.85195,-0.881592 h 1.75948 v -0.04075 c -0.007,-0.525992 -0.37783,-0.992717 -0.94086,-0.992717 -0.53711,0 -0.87789,0.481542 -0.89271,0.996421 z m 0.0741,-0.03704 c 0.0222,-0.422276 0.31115,-0.885297 0.81862,-0.885297 0.49265,0 0.82973,0.385234 0.86307,0.885297 z"
         id="path52774"
         style="font-size:3.70417px;line-height:1.25;font-family:Raleway;-inkscape-font-specification:Raleway;text-align:center;letter-spacing:0px;word-spacing:0px;text-anchor:middle;stroke-width:0.264583"
         transform="translate(-39.574926,-1.721946)" />
      <path
         d="m 104.1542,74.930052 c -0.037,0 -0.0556,-0.02963 -0.0593,-0.07408 v -2.555877 h -0.0741 v 1.229784 c -0.1778,-0.255587 -0.43339,-0.477837 -0.78529,-0.477837 -0.51488,0 -0.8927,0.466725 -0.8927,0.996421 0,0.492655 0.38894,0.992718 0.92604,0.992718 0.29263,0 0.58896,-0.181504 0.75195,-0.437092 v 0.251883 c 0,0.07408 0.0482,0.144463 0.13335,0.148167 z m -0.13335,-0.551922 c -0.007,0.314855 -0.45191,0.588963 -0.75195,0.588963 -0.47413,0 -0.85196,-0.437092 -0.85196,-0.918634 0,-0.459317 0.31856,-0.922338 0.81862,-0.922338 0.31115,0 0.68157,0.251884 0.78529,0.55933 z"
         id="path52776"
         style="font-size:3.70417px;line-height:1.25;font-family:Raleway;-inkscape-font-specification:Raleway;text-align:center;letter-spacing:0px;word-spacing:0px;text-anchor:middle;stroke-width:0.264583"
         transform="translate(-39.574926,-1.721946)" />
      <path
         d="m 105.92109,75.004135 v -1.915056 h -0.0741 v 1.915056 z m 0,-2.418823 v -0.237067 h -0.0741 v 0.237067 z"
         id="path52778"
         style="font-size:3.70417px;line-height:1.25;font-family:Raleway;-inkscape-font-specification:Raleway;text-align:center;letter-spacing:0px;word-spacing:0px;text-anchor:middle;stroke-width:0.264583"
         transform="translate(-39.574926,-1.721946)" />
      <path
         d="m 107.93985,73.93363 c 0,-0.388938 -0.0333,-0.881592 -0.57414,-0.881592 -0.33708,0 -0.68527,0.214841 -0.84455,0.525992 v -0.496359 h -0.0741 v 1.922464 h 0.0741 v -1.214968 c 0.0963,-0.340783 0.45191,-0.663046 0.84455,-0.663046 0.45191,0 0.50006,0.403754 0.50006,0.807509 v 1.070505 h 0.0741 z"
         id="path52780"
         style="font-size:3.70417px;line-height:1.25;font-family:Raleway;-inkscape-font-specification:Raleway;text-align:center;letter-spacing:0px;word-spacing:0px;text-anchor:middle;stroke-width:0.264583"
         transform="translate(-39.574926,-1.721946)" />
      <path
         d="m 111.56624,74.322568 c 0,-0.300038 -0.18891,-0.577851 -0.48895,-0.666751 0.22966,-0.103717 0.37783,-0.344488 0.37783,-0.611188 0,-0.329671 -0.22966,-0.670455 -0.60008,-0.670455 h -1.16311 v 2.629961 h 1.21867 c 0.35931,0 0.64083,-0.318558 0.65564,-0.681567 z m -0.0741,0 c 0,0.303742 -0.25559,0.607484 -0.58156,0.607484 H 109.766 v -1.214968 h 1.17051 c 0.31856,0 0.55563,0.292629 0.55563,0.607484 z m -0.63712,-1.87431 c 0.31115,0.0074 0.52599,0.281517 0.52599,0.596371 0,0.29263 -0.22595,0.596372 -0.54821,0.596372 h -1.0668 v -1.192743 z"
         id="path52782"
         style="font-size:3.70417px;line-height:1.25;font-family:Raleway;-inkscape-font-specification:Raleway;text-align:center;letter-spacing:0px;word-spacing:0px;text-anchor:middle;stroke-width:0.264583"
         transform="translate(-39.574926,-1.721946)" />
      <path
         d="m 112.09965,74.718914 c 0,0.162984 0.10742,0.303742 0.29262,0.303742 0.12965,0 0.2593,-0.02963 0.263,-0.03334 l -0.0333,-0.07038 c -0.004,0 -0.12594,0.03334 -0.22595,0.03334 -0.14446,0 -0.22225,-0.125942 -0.22225,-0.233363 V 72.30009 h -0.0741 z"
         id="path52784"
         style="font-size:3.70417px;line-height:1.25;font-family:Raleway;-inkscape-font-specification:Raleway;text-align:center;letter-spacing:0px;word-spacing:0px;text-anchor:middle;stroke-width:0.264583"
         transform="translate(-39.574926,-1.721946)" />
      <path
         d="m 113.77393,75.041177 c 0.51488,-0.01111 0.91493,-0.466726 0.91493,-0.992718 0,-0.477838 -0.36301,-0.996421 -0.91493,-0.996421 -0.50377,0 -0.91493,0.459317 -0.91493,0.996421 0,0.500063 0.37412,0.981605 0.91493,0.992718 z m -0.84085,-0.992718 c 0,-0.437092 0.33338,-0.922338 0.84085,-0.922338 0.47413,0 0.84085,0.4445 0.84085,0.922338 0,0.437092 -0.33338,0.918634 -0.84085,0.918634 -0.48895,0 -0.82233,-0.440796 -0.84085,-0.918634 z"
         id="path52786"
         style="font-size:3.70417px;line-height:1.25;font-family:Raleway;-inkscape-font-specification:Raleway;text-align:center;letter-spacing:0px;word-spacing:0px;text-anchor:middle;stroke-width:0.264583"
         transform="translate(-39.574926,-1.721946)" />
      <path
         d="m 115.09632,74.737435 c 0.16669,0.166688 0.41116,0.303742 0.72972,0.303742 0.31485,0 0.72602,-0.137054 0.72602,-0.525992 0,-0.388938 -0.39264,-0.503767 -0.74084,-0.503767 -0.28892,0 -0.61489,-0.09261 -0.61489,-0.448205 0,-0.318559 0.31856,-0.437092 0.60749,-0.437092 0.18891,0 0.4482,0.04075 0.54451,0.233363 l 0.0667,-0.02963 c -0.12223,-0.1778 -0.28522,-0.277812 -0.61118,-0.277812 -0.31115,0 -0.68157,0.137054 -0.68157,0.511175 0,0.388938 0.32226,0.522288 0.68897,0.522288 0.27782,0 0.66675,0.07038 0.66675,0.429684 0,0.329671 -0.3593,0.451908 -0.65193,0.451908 -0.24447,0 -0.47413,-0.0926 -0.67416,-0.277812 z"
         id="path52788"
         style="font-size:3.70417px;line-height:1.25;font-family:Raleway;-inkscape-font-specification:Raleway;text-align:center;letter-spacing:0px;word-spacing:0px;text-anchor:middle;stroke-width:0.264583"
         transform="translate(-39.574926,-1.721946)" />
      <path
         d="m 116.93359,74.737435 c 0.16669,0.166688 0.41116,0.303742 0.72972,0.303742 0.31485,0 0.72602,-0.137054 0.72602,-0.525992 0,-0.388938 -0.39265,-0.503767 -0.74084,-0.503767 -0.28892,0 -0.61489,-0.09261 -0.61489,-0.448205 0,-0.318559 0.31856,-0.437092 0.60748,-0.437092 0.18892,0 0.44821,0.04075 0.54452,0.233363 l 0.0667,-0.02963 c -0.12224,-0.1778 -0.28522,-0.277812 -0.61119,-0.277812 -0.31115,0 -0.68156,0.137054 -0.68156,0.511175 0,0.388938 0.32226,0.522288 0.68897,0.522288 0.27782,0 0.66675,0.07038 0.66675,0.429684 0,0.329671 -0.3593,0.451908 -0.65193,0.451908 -0.24448,0 -0.47413,-0.0926 -0.67416,-0.277812 z"
         id="path52790"
         style="font-size:3.70417px;line-height:1.25;font-family:Raleway;-inkscape-font-specification:Raleway;text-align:center;letter-spacing:0px;word-spacing:0px;text-anchor:middle;stroke-width:0.264583"
         transform="translate(-39.574926,-1.721946)" />
      <path
         d="m 119.58207,75.004135 0.83714,-1.922464 h -0.0815 l -0.78899,1.815043 -0.78899,-1.815043 h -0.0815 l 0.83714,1.922464 z"
         id="path52792"
         style="font-size:3.70417px;line-height:1.25;font-family:Raleway;-inkscape-font-specification:Raleway;text-align:center;letter-spacing:0px;word-spacing:0px;text-anchor:middle;stroke-width:0.264583"
         transform="translate(-39.574926,-1.721946)" />
      <path
         d="m 122.2676,74.930052 c -0.0408,0 -0.0519,-0.02963 -0.0593,-0.07408 v -1.063096 c 0,-0.414867 -0.24077,-0.740834 -0.70379,-0.740834 -0.23707,0 -0.46672,0.114829 -0.66675,0.251883 l 0.0444,0.05927 c 0.21484,-0.151871 0.43709,-0.237067 0.6223,-0.237067 0.38153,0 0.62971,0.274109 0.62971,0.666751 v 0.218546 c -0.10001,-0.03704 -0.32967,-0.107421 -0.64453,-0.107421 -0.33337,0 -0.79269,0.13335 -0.79269,0.548217 0,0.329671 0.27411,0.588963 0.6223,0.588963 0.30004,0 0.6186,-0.111125 0.81492,-0.363009 v 0.1778 c 0,0.07779 0.0482,0.144463 0.13335,0.148167 z m -0.18891,-0.303742 c -0.15187,0.237067 -0.47784,0.340783 -0.75936,0.340783 -0.28522,0 -0.54822,-0.203729 -0.54822,-0.514879 0,-0.359305 0.40376,-0.474134 0.71861,-0.474134 0.21485,0 0.43339,0.03334 0.64453,0.114829 v 0.38153 c 0,0.04445 -0.0185,0.09631 -0.0556,0.151871 z"
         id="path52794"
         style="font-size:3.70417px;line-height:1.25;font-family:Raleway;-inkscape-font-specification:Raleway;text-align:center;letter-spacing:0px;word-spacing:0px;text-anchor:middle;stroke-width:0.264583"
         transform="translate(-39.574926,-1.721946)" />
      <path
         d="m 122.83804,74.718914 c 0,0.162984 0.10742,0.303742 0.29263,0.303742 0.12965,0 0.25929,-0.02963 0.263,-0.03334 l -0.0333,-0.07038 c -0.004,0 -0.12594,0.03334 -0.22595,0.03334 -0.14447,0 -0.22225,-0.125942 -0.22225,-0.233363 V 72.30009 h -0.0741 z"
         id="path52796"
         style="font-size:3.70417px;line-height:1.25;font-family:Raleway;-inkscape-font-specification:Raleway;text-align:center;letter-spacing:0px;word-spacing:0px;text-anchor:middle;stroke-width:0.264583"
         transform="translate(-39.574926,-1.721946)" />
      <path
         d="m 123.5974,74.048459 c 0,0.492655 0.38894,0.992718 0.92604,0.992718 0.28893,0 0.64453,-0.159279 0.76306,-0.459317 l -0.0704,-0.01852 c -0.11483,0.251883 -0.41116,0.403754 -0.69268,0.403754 -0.47043,0 -0.81862,-0.414867 -0.85196,-0.881592 h 1.75948 v -0.04075 c -0.007,-0.525992 -0.37782,-0.992717 -0.94086,-0.992717 -0.5371,0 -0.87789,0.481542 -0.8927,0.996421 z m 0.0741,-0.03704 c 0.0222,-0.422276 0.31115,-0.885297 0.81862,-0.885297 0.49266,0 0.82974,0.385234 0.86307,0.885297 z"
         id="path52798"
         style="font-size:3.70417px;line-height:1.25;font-family:Raleway;-inkscape-font-specification:Raleway;text-align:center;letter-spacing:0px;word-spacing:0px;text-anchor:middle;stroke-width:0.264583"
         transform="translate(-39.574926,-1.721946)" />
      <path
         d="m 125.7273,75.126373 c 0.0259,0 0.0482,-0.0074 0.0667,-0.01482 0.0259,-0.01852 0.0408,-0.04445 0.0481,-0.06297 0.007,-0.01852 0.007,-0.03704 0.007,-0.04445 v -0.237067 h -0.0741 v 0.237067 c 0,0.0037 0,0.01852 -0.007,0.02963 l -0.0111,0.01111 c -0.007,0.0037 -0.0148,0.0074 -0.0296,0.0074 z"
         id="path52800"
         style="font-size:3.70417px;line-height:1.25;font-family:Raleway;-inkscape-font-specification:Raleway;text-align:center;letter-spacing:0px;word-spacing:0px;text-anchor:middle;stroke-width:0.264583"
         transform="translate(-39.574926,-1.721946)" />
      <path
         d="m 129.57963,75.004135 h 0.0852 v -2.626256 h -0.0741 v 2.518835 l -2.01137,-2.52254 h -0.0556 v 2.629961 h 0.0741 v -2.485498 z"
         id="path52802"
         style="font-size:3.70417px;line-height:1.25;font-family:Raleway;-inkscape-font-specification:Raleway;text-align:center;letter-spacing:0px;word-spacing:0px;text-anchor:middle;stroke-width:0.264583"
         transform="translate(-39.574926,-1.721946)" />
      <path
         d="m 130.03154,72.374174 1.0631,1.603906 v 1.026055 h 0.0741 v -1.018647 l 1.0668,-1.611314 h -0.0852 l -1.01864,1.526118 -1.01495,-1.526118 z"
         id="path52804"
         style="font-size:3.70417px;line-height:1.25;font-family:Raleway;-inkscape-font-specification:Raleway;text-align:center;letter-spacing:0px;word-spacing:0px;text-anchor:middle;stroke-width:0.264583"
         transform="translate(-39.574926,-1.721946)" />
      <path
         d="m 92.815722,78.678672 c 0,-0.474134 -0.329671,-0.996422 -0.892704,-0.996422 -0.33708,0 -0.588964,0.200025 -0.785285,0.477838 v -1.229784 h -0.07408 v 2.704044 h 0.07408 v -0.400051 c 0.151871,0.244475 0.448205,0.437092 0.751947,0.437092 0.522288,0 0.911226,-0.470429 0.926042,-0.992717 z m -0.07408,0 c 0,0.455613 -0.3556,0.918634 -0.851959,0.918634 -0.300038,0 -0.751947,-0.274109 -0.751947,-0.588963 v -0.69268 c 0.144463,-0.292629 0.418572,-0.55933 0.785285,-0.55933 0.485246,0 0.818621,0.448205 0.818621,0.922339 z"
         id="path52806"
         style="font-size:3.70417px;line-height:1.25;font-family:Raleway;-inkscape-font-specification:Raleway;text-align:center;letter-spacing:0px;word-spacing:0px;text-anchor:middle;stroke-width:0.264583"
         transform="translate(-39.574926,-1.721946)" />
      <path
         d="m 94.664102,77.711883 -0.803805,1.82986 -0.848255,-1.82986 h -0.08149 l 0.892705,1.922465 c -0.29263,0.66675 -0.303742,0.688975 -0.322263,0.7112 -0.02593,0.02593 -0.05556,0.04075 -0.174096,0.04075 v 0.07408 c 0.137054,0 0.211138,-0.02963 0.248179,-0.09261 l 0.02593,-0.04445 1.144589,-2.61144 z"
         id="path52808"
         style="font-size:3.70417px;line-height:1.25;font-family:Raleway;-inkscape-font-specification:Raleway;text-align:center;letter-spacing:0px;word-spacing:0px;text-anchor:middle;stroke-width:0.264583"
         transform="translate(-39.574926,-1.721946)" />
      <path
         d="m 96.182817,78.323071 c 0,0.64823 0.511175,1.333502 1.240896,1.333502 0.370417,0 0.881593,-0.225955 1.022351,-0.611188 l -0.07038,-0.01852 c -0.118533,0.314854 -0.629709,0.555625 -0.951972,0.555625 -0.648229,0 -1.166813,-0.600075 -1.166813,-1.259418 0,-0.618596 0.429684,-1.259417 1.122363,-1.259417 0.407459,0 0.733426,0.151871 0.933451,0.522288 l 0.07038,-0.02223 c -0.166687,-0.333376 -0.459317,-0.574147 -1.00383,-0.574147 -0.700088,0 -1.196446,0.64823 -1.196446,1.333501 z"
         id="path52810"
         style="font-size:3.70417px;line-height:1.25;font-family:Raleway;-inkscape-font-specification:Raleway;text-align:center;letter-spacing:0px;word-spacing:0px;text-anchor:middle;stroke-width:0.264583"
         transform="translate(-39.574926,-1.721946)" />
      <path
         d="m 99.7203,79.671389 c 0.51488,-0.01111 0.91493,-0.466725 0.91493,-0.992717 0,-0.477838 -0.36301,-0.996422 -0.91493,-0.996422 -0.503768,0 -0.91493,0.459317 -0.91493,0.996422 0,0.500063 0.374121,0.981605 0.91493,0.992717 z m -0.840847,-0.992717 c 0,-0.437092 0.333375,-0.922339 0.840847,-0.922339 0.47413,0 0.84085,0.444501 0.84085,0.922339 0,0.437092 -0.33338,0.918634 -0.84085,0.918634 -0.488951,0 -0.822326,-0.440796 -0.840847,-0.918634 z"
         id="path52812"
         style="font-size:3.70417px;line-height:1.25;font-family:Raleway;-inkscape-font-specification:Raleway;text-align:center;letter-spacing:0px;word-spacing:0px;text-anchor:middle;stroke-width:0.264583"
         transform="translate(-39.574926,-1.721946)" />
      <path
         d="m 102.5651,76.967345 c 0.18892,0 0.22966,0.05186 0.27411,0.09631 l 0.0593,-0.04445 c 0,-0.01111 -0.0667,-0.125942 -0.33338,-0.125942 -0.22225,0 -0.37041,0.103717 -0.46302,0.244475 -0.0556,-0.04075 -0.1815,-0.09631 -0.37782,-0.09631 -0.37413,0 -0.526,0.374121 -0.526,0.703792 v 0.192617 h -0.27781 v 0.07408 h 0.27781 v 1.622427 h 0.0741 v -1.622427 h 0.69268 v 1.622427 h 0.0741 v -1.622427 h 0.68527 v -0.07408 h -0.68527 v -0.303742 c 0,-0.303742 0.14446,-0.666751 0.52599,-0.666751 z m -0.60007,0.666751 v 0.303742 h -0.69268 v -0.192617 c 0,-0.240771 0.10001,-0.629709 0.45191,-0.629709 0.10371,0 0.25188,0.01482 0.34078,0.0889 -0.0704,0.13335 -0.10001,0.29263 -0.10001,0.429684 z"
         id="path52814"
         style="font-size:3.70417px;line-height:1.25;font-family:Raleway;-inkscape-font-specification:Raleway;text-align:center;letter-spacing:0px;word-spacing:0px;text-anchor:middle;stroke-width:0.264583"
         transform="translate(-39.574926,-1.721946)" />
      <path
         d="m 102.93182,78.678672 c 0,0.492654 0.38894,0.992717 0.92604,0.992717 0.28893,0 0.64453,-0.159279 0.76306,-0.459317 l -0.0704,-0.01852 c -0.11483,0.251884 -0.41116,0.403755 -0.69268,0.403755 -0.47043,0 -0.81862,-0.414867 -0.85196,-0.881593 h 1.75948 v -0.04074 c -0.007,-0.525993 -0.37782,-0.992718 -0.94086,-0.992718 -0.5371,0 -0.87789,0.481542 -0.8927,0.996422 z m 0.0741,-0.03704 c 0.0222,-0.422275 0.31115,-0.885297 0.81862,-0.885297 0.49266,0 0.82974,0.385234 0.86307,0.885297 z"
         id="path52816"
         style="font-size:3.70417px;line-height:1.25;font-family:Raleway;-inkscape-font-specification:Raleway;text-align:center;letter-spacing:0px;word-spacing:0px;text-anchor:middle;stroke-width:0.264583"
         transform="translate(-39.574926,-1.721946)" />
      <path
         d="m 105.08024,78.678672 c 0,0.492654 0.38893,0.992717 0.92604,0.992717 0.28892,0 0.64452,-0.159279 0.76306,-0.459317 l -0.0704,-0.01852 c -0.11483,0.251884 -0.41116,0.403755 -0.69268,0.403755 -0.47043,0 -0.81862,-0.414867 -0.85196,-0.881593 h 1.75948 v -0.04074 c -0.007,-0.525993 -0.37783,-0.992718 -0.94086,-0.992718 -0.5371,0 -0.87789,0.481542 -0.8927,0.996422 z m 0.0741,-0.03704 c 0.0222,-0.422275 0.31115,-0.885297 0.81862,-0.885297 0.49266,0 0.82973,0.385234 0.86307,0.885297 z"
         id="path52818"
         style="font-size:3.70417px;line-height:1.25;font-family:Raleway;-inkscape-font-specification:Raleway;text-align:center;letter-spacing:0px;word-spacing:0px;text-anchor:middle;stroke-width:0.264583"
         transform="translate(-39.574926,-1.721946)" />
      <path
         d="m 108.44362,78.323071 c 0,0.64823 0.51118,1.333502 1.2409,1.333502 0.37042,0 0.88159,-0.225955 1.02235,-0.611188 l -0.0704,-0.01852 c -0.11853,0.314854 -0.62971,0.555625 -0.95197,0.555625 -0.64823,0 -1.16681,-0.600075 -1.16681,-1.259418 0,-0.618596 0.42968,-1.259417 1.12236,-1.259417 0.40746,0 0.73343,0.151871 0.93345,0.522288 l 0.0704,-0.02223 c -0.16669,-0.333376 -0.45932,-0.574147 -1.00383,-0.574147 -0.70009,0 -1.19645,0.64823 -1.19645,1.333501 z"
         id="path52820"
         style="font-size:3.70417px;line-height:1.25;font-family:Raleway;-inkscape-font-specification:Raleway;text-align:center;letter-spacing:0px;word-spacing:0px;text-anchor:middle;stroke-width:0.264583"
         transform="translate(-39.574926,-1.721946)" />
      <path
         d="m 112.72935,79.560264 c -0.037,0 -0.0556,-0.02963 -0.0593,-0.07408 v -1.774298 h -0.0741 v 1.222376 c -0.0963,0.340784 -0.43339,0.663047 -0.82603,0.663047 -0.45932,0 -0.55563,-0.374121 -0.55563,-0.807509 v -1.077914 h -0.0741 V 78.7898 c 0,0.425979 0.0926,0.881592 0.62971,0.881592 0.33708,0 0.66675,-0.214842 0.82603,-0.525992 v 0.340784 c 0,0.07408 0.0481,0.144462 0.13335,0.148167 z"
         id="path52822"
         style="font-size:3.70417px;line-height:1.25;font-family:Raleway;-inkscape-font-specification:Raleway;text-align:center;letter-spacing:0px;word-spacing:0px;text-anchor:middle;stroke-width:0.264583"
         transform="translate(-39.574926,-1.721946)" />
      <path
         d="m 113.3035,79.349127 c 0,0.162983 0.10742,0.303741 0.29263,0.303741 0.12964,0 0.25929,-0.02963 0.26299,-0.03334 l -0.0333,-0.07038 c -0.004,0 -0.12594,0.03334 -0.22595,0.03334 -0.14446,0 -0.22225,-0.125942 -0.22225,-0.233362 v -2.418823 h -0.0741 z"
         id="path52824"
         style="font-size:3.70417px;line-height:1.25;font-family:Raleway;-inkscape-font-specification:Raleway;text-align:center;letter-spacing:0px;word-spacing:0px;text-anchor:middle;stroke-width:0.264583"
         transform="translate(-39.574926,-1.721946)" />
      <path
         d="m 114.85554,79.486181 c -0.007,0.0037 -0.14076,0.0926 -0.31115,0.0926 -0.12964,0 -0.24818,-0.07779 -0.25929,-0.22225 v -1.570568 h 0.46302 v -0.07408 h -0.46302 v -0.670454 h -0.0741 v 0.670454 h -0.27782 v 0.07408 h 0.27782 v 1.570568 c 0,0.1778 0.15557,0.296333 0.33337,0.296333 0.20373,0 0.34819,-0.103716 0.3519,-0.10742 z"
         id="path52826"
         style="font-size:3.70417px;line-height:1.25;font-family:Raleway;-inkscape-font-specification:Raleway;text-align:center;letter-spacing:0px;word-spacing:0px;text-anchor:middle;stroke-width:0.264583"
         transform="translate(-39.574926,-1.721946)" />
      <path
         d="m 116.80024,79.560264 c -0.0371,0 -0.0556,-0.02963 -0.0593,-0.07408 v -1.774298 h -0.0741 v 1.222376 c -0.0963,0.340784 -0.43339,0.663047 -0.82603,0.663047 -0.45932,0 -0.55563,-0.374121 -0.55563,-0.807509 v -1.077914 h -0.0741 V 78.7898 c 0,0.425979 0.0926,0.881592 0.62971,0.881592 0.33708,0 0.66675,-0.214842 0.82603,-0.525992 v 0.340784 c 0,0.07408 0.0482,0.144462 0.13335,0.148167 z"
         id="path52828"
         style="font-size:3.70417px;line-height:1.25;font-family:Raleway;-inkscape-font-specification:Raleway;text-align:center;letter-spacing:0px;word-spacing:0px;text-anchor:middle;stroke-width:0.264583"
         transform="translate(-39.574926,-1.721946)" />
      <path
         d="m 118.14115,77.711883 c -0.33708,0 -0.58897,0.185209 -0.74825,0.496359 v -0.496359 h -0.0741 v 1.922465 h 0.0741 V 78.41938 c 0.0963,-0.351896 0.3556,-0.618597 0.74825,-0.633413 z"
         id="path52830"
         style="font-size:3.70417px;line-height:1.25;font-family:Raleway;-inkscape-font-specification:Raleway;text-align:center;letter-spacing:0px;word-spacing:0px;text-anchor:middle;stroke-width:0.264583"
         transform="translate(-39.574926,-1.721946)" />
      <path
         d="m 118.3634,78.678672 c 0,0.492654 0.38894,0.992717 0.92604,0.992717 0.28893,0 0.64453,-0.159279 0.76306,-0.459317 l -0.0704,-0.01852 c -0.11483,0.251884 -0.41116,0.403755 -0.69268,0.403755 -0.47043,0 -0.81862,-0.414867 -0.85196,-0.881593 h 1.75948 v -0.04074 c -0.007,-0.525993 -0.37782,-0.992718 -0.94086,-0.992718 -0.5371,0 -0.87789,0.481542 -0.8927,0.996422 z m 0.0741,-0.03704 c 0.0222,-0.422275 0.31115,-0.885297 0.81862,-0.885297 0.49266,0 0.82974,0.385234 0.86307,0.885297 z"
         id="path52832"
         style="font-size:3.70417px;line-height:1.25;font-family:Raleway;-inkscape-font-specification:Raleway;text-align:center;letter-spacing:0px;word-spacing:0px;text-anchor:middle;stroke-width:0.264583"
         transform="translate(-39.574926,-1.721946)" />
      <path
         d="m 121.9157,79.634348 v -1.033464 h 0.9779 l 0.66675,1.033464 h 0.0889 l -0.66675,-1.033464 c 0.39635,-0.02963 0.67045,-0.392642 0.67045,-0.800101 0,-0.392642 -0.31115,-0.796396 -0.74083,-0.796396 h -1.0705 v 2.629961 z m 0,-2.555878 h 0.99642 c 0.37042,0 0.66675,0.348192 0.66675,0.722313 0,0.363009 -0.24447,0.726018 -0.64082,0.726018 h -1.02235 z"
         id="path52834"
         style="font-size:3.70417px;line-height:1.25;font-family:Raleway;-inkscape-font-specification:Raleway;text-align:center;letter-spacing:0px;word-spacing:0px;text-anchor:middle;stroke-width:0.264583"
         transform="translate(-39.574926,-1.721946)" />
      <path
         d="m 124.0419,78.678672 c 0,0.492654 0.38893,0.992717 0.92604,0.992717 0.28892,0 0.64452,-0.159279 0.76306,-0.459317 l -0.0704,-0.01852 c -0.11483,0.251884 -0.41117,0.403755 -0.69268,0.403755 -0.47043,0 -0.81862,-0.414867 -0.85196,-0.881593 h 1.75948 v -0.04074 c -0.007,-0.525993 -0.37783,-0.992718 -0.94086,-0.992718 -0.5371,0 -0.87789,0.481542 -0.8927,0.996422 z m 0.0741,-0.03704 c 0.0222,-0.422275 0.31115,-0.885297 0.81862,-0.885297 0.49265,0 0.82973,0.385234 0.86307,0.885297 z"
         id="path52836"
         style="font-size:3.70417px;line-height:1.25;font-family:Raleway;-inkscape-font-specification:Raleway;text-align:center;letter-spacing:0px;word-spacing:0px;text-anchor:middle;stroke-width:0.264583"
         transform="translate(-39.574926,-1.721946)" />
      <path
         d="m 127.03857,79.634348 0.83714,-1.922465 h -0.0815 l -0.78899,1.815044 -0.78899,-1.815044 h -0.0815 l 0.83714,1.922465 z"
         id="path52838"
         style="font-size:3.70417px;line-height:1.25;font-family:Raleway;-inkscape-font-specification:Raleway;text-align:center;letter-spacing:0px;word-spacing:0px;text-anchor:middle;stroke-width:0.264583"
         transform="translate(-39.574926,-1.721946)" />
      <path
         d="m 128.24613,79.634348 v -1.915056 h -0.0741 v 1.915056 z m 0,-2.418823 v -0.237067 h -0.0741 v 0.237067 z"
         id="path52840"
         style="font-size:3.70417px;line-height:1.25;font-family:Raleway;-inkscape-font-specification:Raleway;text-align:center;letter-spacing:0px;word-spacing:0px;text-anchor:middle;stroke-width:0.264583"
         transform="translate(-39.574926,-1.721946)" />
      <path
         d="m 129.44628,79.634348 0.83714,-1.922465 h -0.0815 l -0.78899,1.815044 -0.78899,-1.815044 h -0.0815 l 0.83714,1.922465 z"
         id="path52842"
         style="font-size:3.70417px;line-height:1.25;font-family:Raleway;-inkscape-font-specification:Raleway;text-align:center;letter-spacing:0px;word-spacing:0px;text-anchor:middle;stroke-width:0.264583"
         transform="translate(-39.574926,-1.721946)" />
      <path
         d="m 132.13181,79.560264 c -0.0408,0 -0.0519,-0.02963 -0.0593,-0.07408 v -1.063097 c 0,-0.414867 -0.24077,-0.740834 -0.70379,-0.740834 -0.23707,0 -0.46673,0.114829 -0.66675,0.251884 l 0.0445,0.05927 c 0.21484,-0.151871 0.43709,-0.237067 0.6223,-0.237067 0.38153,0 0.62971,0.274109 0.62971,0.666751 v 0.218546 c -0.10002,-0.03704 -0.32968,-0.107421 -0.64453,-0.107421 -0.33338,0 -0.79269,0.13335 -0.79269,0.548217 0,0.329671 0.27411,0.588963 0.6223,0.588963 0.30004,0 0.61859,-0.111125 0.81492,-0.363008 v 0.1778 c 0,0.07779 0.0481,0.144462 0.13335,0.148167 z m -0.18892,-0.303742 c -0.15187,0.237067 -0.47784,0.340784 -0.75935,0.340784 -0.28522,0 -0.54822,-0.203729 -0.54822,-0.51488 0,-0.359304 0.40376,-0.474133 0.71861,-0.474133 0.21484,0 0.43339,0.03334 0.64453,0.114829 v 0.381529 c 0,0.04445 -0.0185,0.09631 -0.0556,0.151871 z"
         id="path52844"
         style="font-size:3.70417px;line-height:1.25;font-family:Raleway;-inkscape-font-specification:Raleway;text-align:center;letter-spacing:0px;word-spacing:0px;text-anchor:middle;stroke-width:0.264583"
         transform="translate(-39.574926,-1.721946)" />
      <path
         d="m 132.70225,79.349127 c 0,0.162983 0.10742,0.303741 0.29263,0.303741 0.12964,0 0.25929,-0.02963 0.26299,-0.03334 l -0.0333,-0.07038 c -0.004,0 -0.12594,0.03334 -0.22595,0.03334 -0.14446,0 -0.22225,-0.125942 -0.22225,-0.233362 v -2.418823 h -0.0741 z"
         id="path52846"
         style="font-size:3.70417px;line-height:1.25;font-family:Raleway;-inkscape-font-specification:Raleway;text-align:center;letter-spacing:0px;word-spacing:0px;text-anchor:middle;stroke-width:0.264583"
         transform="translate(-39.574926,-1.721946)" />
      <rect
         style="fill:none;fill-opacity:1;stroke:none;stroke-width:0.0540409;stroke-linecap:square;stroke-linejoin:bevel;stroke-dasharray:none;stroke-opacity:1;paint-order:stroke fill markers"
         id="rect19715"
         width="82.495956"
         height="69.795959"
         x="70.912781"
         y="15.455375"
         transform="translate(-39.574926,-1.721946)" />
    </g>
  </g>
</svg>
