<?xml version="1.0" encoding="UTF-8" standalone="no"?>
<!-- Created with Inkscape (http://www.inkscape.org/) -->

<svg
   width="31.8008mm"
   height="31.8008mm"
   viewBox="0 0 31.8008 31.8008"
   version="1.1"
   id="svg31243"
   inkscape:version="1.2.2 (b0a8486541, 2022-12-01)"
   sodipodi:docname="cap.svg"
   xmlns:inkscape="http://www.inkscape.org/namespaces/inkscape"
   xmlns:sodipodi="http://sodipodi.sourceforge.net/DTD/sodipodi-0.dtd"
   xmlns:xlink="http://www.w3.org/1999/xlink"
   xmlns="http://www.w3.org/2000/svg"
   xmlns:svg="http://www.w3.org/2000/svg">
  <sodipodi:namedview
     id="namedview31245"
     pagecolor="#ffffff"
     bordercolor="#eeeeee"
     borderopacity="1"
     inkscape:showpageshadow="0"
     inkscape:pageopacity="0"
     inkscape:pagecheckerboard="0"
     inkscape:deskcolor="#f0f0f0"
     inkscape:document-units="mm"
     showgrid="false"
     inkscape:zoom="2.2601823"
     inkscape:cx="27.431416"
     inkscape:cy="13.494487"
     inkscape:window-width="838"
     inkscape:window-height="1034"
     inkscape:window-x="1712"
     inkscape:window-y="36"
     inkscape:window-maximized="1"
     inkscape:current-layer="g19407" />
  <defs
     id="defs31240" />
  <g
     inkscape:label="Layer 1"
     inkscape:groupmode="layer"
     id="layer1"
     transform="translate(-46.347091,-50.651439)">
    <g
       id="g19407"
       transform="translate(30.034753,39.20798)">
      <g
         id="g14432"
         transform="matrix(0.79029718,0,0,0.78797515,3.4761517,2.5742105)">
        <circle
           style="fill:none;stroke:#000000;stroke-width:0.508;stroke-linecap:square;stroke-linejoin:bevel;stroke-dasharray:none;stroke-opacity:1;paint-order:stroke fill markers"
           id="path117"
           cy="-22.628927"
           cx="-42.405655"
           r="19.049999"
           transform="rotate(-167.24246)" />
        <text
           xml:space="preserve"
           style="font-style:normal;font-variant:normal;font-weight:normal;font-stretch:normal;font-size:7.40833px;line-height:1.25;font-family:Roboto;-inkscape-font-specification:Roboto;letter-spacing:4.23333px;word-spacing:0px;fill:#000000;fill-opacity:1;stroke:none;stroke-width:0.264583"
           id="text6585"><textPath
             xlink:href="#path117"
             id="textPath758"
             dy="6.5">COLLUM.COLLUM.<tspan
   id="tspan6583"
   style="font-style:normal;font-variant:normal;font-weight:normal;font-stretch:normal;font-size:7.40833px;font-family:Roboto;-inkscape-font-specification:Roboto;stroke-width:0.264583"
   rotate="0" /></textPath></text>
        <g
           style="opacity:1;fill:none;fill-rule:nonzero;stroke:none;stroke-width:0;stroke-linecap:butt;stroke-linejoin:miter;stroke-miterlimit:10;stroke-dasharray:none"
           transform="matrix(0.19591342,0,0,0.19591342,27.45797,24.173499)"
           id="g13521">
          <path
             d="M 11.596,27.637 C 5.202,27.637 0,22.436 0,16.042 0,9.648 5.202,4.445 11.596,4.445 H 45 c 0.552,0 1,0.448 1,1 0,0.552 -0.448,1 -1,1 H 11.596 C 6.305,6.445 2,10.75 2,16.042 c 0,5.291 4.305,9.596 9.596,9.596 0.552,0 1,0.448 1,1 0,0.552 -0.448,0.999 -1,0.999 z"
             style="opacity:1;fill:#000000;fill-rule:nonzero;stroke:none;stroke-width:1;stroke-linecap:butt;stroke-linejoin:miter;stroke-miterlimit:10;stroke-dasharray:none"
             stroke-linecap="round"
             id="path13487" />
          <path
             d="m 11.638,27.637 c -0.552,0 -1,-0.448 -1,-1 0,-0.552 0.448,-1 1,-1 4.574,0 8.295,-3.721 8.295,-8.294 0,-0.552 0.448,-1 1,-1 0.552,0 1,0.448 1,1 0,5.676 -4.619,10.294 -10.295,10.294 z"
             style="opacity:1;fill:#000000;fill-rule:nonzero;stroke:none;stroke-width:1;stroke-linecap:butt;stroke-linejoin:miter;stroke-miterlimit:10;stroke-dasharray:none"
             stroke-linecap="round"
             id="path13489" />
          <path
             d="M 69.067,18.343 H 20.933 c -0.552,0 -1,-0.448 -1,-1 0,-3.549 -2.887,-6.436 -6.436,-6.436 -0.552,0 -1,-0.448 -1,-1 0,-0.552 0.448,-1 1,-1 4.313,0 7.88,3.254 8.376,7.436 h 46.252 c 0.496,-4.182 4.064,-7.436 8.377,-7.436 0.553,0 1,0.448 1,1 0,0.552 -0.447,1 -1,1 -3.549,0 -6.436,2.887 -6.436,6.436 10e-4,0.552 -0.446,1 -0.999,1 z"
             style="opacity:1;fill:#000000;fill-rule:nonzero;stroke:none;stroke-width:1;stroke-linecap:butt;stroke-linejoin:miter;stroke-miterlimit:10;stroke-dasharray:none"
             stroke-linecap="round"
             id="path13491" />
          <path
             d="m 6.805,17.599 c -0.552,0 -1,-0.448 -1,-1 0,-4.242 3.451,-7.692 7.692,-7.692 0.552,0 1,0.448 1,1 0,0.552 -0.448,1 -1,1 -3.139,0 -5.692,2.554 -5.692,5.692 0,0.552 -0.448,1 -1,1 z"
             style="opacity:1;fill:#000000;fill-rule:nonzero;stroke:none;stroke-width:1;stroke-linecap:butt;stroke-linejoin:miter;stroke-miterlimit:10;stroke-dasharray:none"
             stroke-linecap="round"
             id="path13493" />
          <path
             d="m 9.091,21.9 c -0.192,0 -0.387,-0.055 -0.559,-0.171 -1.708,-1.154 -2.728,-3.071 -2.728,-5.13 0,-0.552 0.448,-1 1,-1 0.552,0 1,0.448 1,1 0,1.393 0.69,2.691 1.847,3.473 0.458,0.309 0.578,0.931 0.269,1.388 -0.193,0.286 -0.508,0.44 -0.829,0.44 z"
             style="opacity:1;fill:#000000;fill-rule:nonzero;stroke:none;stroke-width:1;stroke-linecap:butt;stroke-linejoin:miter;stroke-miterlimit:10;stroke-dasharray:none"
             stroke-linecap="round"
             id="path13495" />
          <path
             d="m 78.404,27.637 c -0.553,0 -1,-0.448 -1,-1 0,-0.552 0.447,-1 1,-1 5.291,0 9.596,-4.305 9.596,-9.596 0,-5.292 -4.305,-9.596 -9.596,-9.596 H 45 c -0.552,0 -1,-0.448 -1,-1 0,-0.552 0.448,-1 1,-1 H 78.404 C 84.798,4.445 90,9.647 90,16.042 90,22.437 84.798,27.637 78.404,27.637 Z"
             style="opacity:1;fill:#000000;fill-rule:nonzero;stroke:none;stroke-width:1;stroke-linecap:butt;stroke-linejoin:miter;stroke-miterlimit:10;stroke-dasharray:none"
             stroke-linecap="round"
             id="path13497" />
          <path
             d="m 78.362,27.637 c -5.677,0 -10.295,-4.618 -10.295,-10.294 0,-0.552 0.447,-1 1,-1 0.553,0 1,0.448 1,1 0,4.574 3.721,8.294 8.295,8.294 0.553,0 1,0.448 1,1 0,0.552 -0.447,1 -1,1 z"
             style="opacity:1;fill:#000000;fill-rule:nonzero;stroke:none;stroke-width:1;stroke-linecap:butt;stroke-linejoin:miter;stroke-miterlimit:10;stroke-dasharray:none"
             stroke-linecap="round"
             id="path13499" />
          <path
             d="m 83.195,17.599 c -0.553,0 -1,-0.448 -1,-1 0,-3.139 -2.554,-5.692 -5.692,-5.692 -0.553,0 -1,-0.448 -1,-1 0,-0.552 0.447,-1 1,-1 4.241,0 7.692,3.451 7.692,7.692 0,0.552 -0.447,1 -1,1 z"
             style="opacity:1;fill:#000000;fill-rule:nonzero;stroke:none;stroke-width:1;stroke-linecap:butt;stroke-linejoin:miter;stroke-miterlimit:10;stroke-dasharray:none"
             stroke-linecap="round"
             id="path13501" />
          <path
             d="m 80.909,21.9 c -0.321,0 -0.637,-0.154 -0.83,-0.44 -0.309,-0.458 -0.188,-1.079 0.27,-1.388 1.156,-0.781 1.847,-2.08 1.847,-3.473 0,-0.552 0.447,-1 1,-1 0.553,0 1,0.448 1,1 0,2.059 -1.02,3.976 -2.728,5.13 -0.172,0.116 -0.366,0.171 -0.559,0.171 z"
             style="opacity:1;fill:#000000;fill-rule:nonzero;stroke:none;stroke-width:1;stroke-linecap:butt;stroke-linejoin:miter;stroke-miterlimit:10;stroke-dasharray:none"
             stroke-linecap="round"
             id="path13503" />
          <path
             d="M 71.627,24.736 H 18.373 c -0.552,0 -1,-0.448 -1,-1 0,-0.552 0.448,-1 1,-1 h 53.254 c 0.553,0 1,0.448 1,1 0,0.552 -0.447,1 -1,1 z"
             style="opacity:1;fill:#000000;fill-rule:nonzero;stroke:none;stroke-width:1;stroke-linecap:butt;stroke-linejoin:miter;stroke-miterlimit:10;stroke-dasharray:none"
             stroke-linecap="round"
             id="path13505" />
          <path
             d="M 66.422,68.65 H 23.579 c -0.552,0 -1,-0.447 -1,-1 V 23.736 c 0,-0.552 0.448,-1 1,-1 h 42.843 c 0.553,0 1,0.448 1,1 V 67.65 c 0,0.553 -0.447,1 -1,1 z m -41.843,-2 H 65.422 V 24.736 H 24.579 Z"
             style="opacity:1;fill:#000000;fill-rule:nonzero;stroke:none;stroke-width:1;stroke-linecap:butt;stroke-linejoin:miter;stroke-miterlimit:10;stroke-dasharray:none"
             stroke-linecap="round"
             id="path13507" />
          <path
             d="M 74.49,76.378 H 15.509 c -0.552,0 -1,-0.447 -1,-1 0,-4.813 3.916,-8.728 8.728,-8.728 h 43.525 c 4.813,0 8.728,3.915 8.728,8.728 0,0.553 -0.447,1 -1,1 z m -57.907,-2 H 73.416 C 72.932,71.141 70.133,68.65 66.763,68.65 H 23.237 c -3.37,0 -6.169,2.491 -6.654,5.728 z"
             style="opacity:1;fill:#000000;fill-rule:nonzero;stroke:none;stroke-width:1;stroke-linecap:butt;stroke-linejoin:miter;stroke-miterlimit:10;stroke-dasharray:none"
             stroke-linecap="round"
             id="path13509" />
          <path
             d="M 78.362,85.555 H 11.638 c -0.552,0 -1,-0.447 -1,-1 v -9.177 c 0,-0.553 0.448,-1 1,-1 h 66.725 c 0.553,0 1,0.447 1,1 v 9.177 c -0.001,0.552 -0.448,1 -1.001,1 z m -65.724,-2 H 77.363 V 76.378 H 12.638 Z"
             style="opacity:1;fill:#000000;fill-rule:nonzero;stroke:none;stroke-width:1;stroke-linecap:butt;stroke-linejoin:miter;stroke-miterlimit:10;stroke-dasharray:none"
             stroke-linecap="round"
             id="path13511" />
          <path
             d="m 40.711,68.65 h -9.423 c -0.552,0 -1,-0.447 -1,-1 V 34.644 c 0,-3.149 2.562,-5.711 5.711,-5.711 3.149,0 5.711,2.562 5.711,5.711 V 67.65 c 10e-4,0.553 -0.446,1 -0.999,1 z m -8.422,-2 h 7.423 V 34.644 c 0,-2.046 -1.665,-3.711 -3.711,-3.711 -2.046,0 -3.711,1.665 -3.711,3.711 V 66.65 Z"
             style="opacity:1;fill:#000000;fill-rule:nonzero;stroke:none;stroke-width:1;stroke-linecap:butt;stroke-linejoin:miter;stroke-miterlimit:10;stroke-dasharray:none"
             stroke-linecap="round"
             id="path13513" />
          <path
             d="m 58.712,68.65 h -9.424 c -0.553,0 -1,-0.447 -1,-1 V 34.644 c 0,-3.149 2.563,-5.711 5.712,-5.711 3.149,0 5.712,2.562 5.712,5.711 V 67.65 c 0,0.553 -0.447,1 -1,1 z m -8.424,-2 h 7.424 V 34.644 c 0,-2.046 -1.665,-3.711 -3.712,-3.711 -2.047,0 -3.712,1.665 -3.712,3.711 z"
             style="opacity:1;fill:#000000;fill-rule:nonzero;stroke:none;stroke-width:1;stroke-linecap:butt;stroke-linejoin:miter;stroke-miterlimit:10;stroke-dasharray:none"
             stroke-linecap="round"
             id="path13515" />
          <circle
             cx="13.495"
             cy="16.305"
             r="1.265"
             style="opacity:1;fill:#000000;fill-rule:nonzero;stroke:none;stroke-width:1;stroke-linecap:butt;stroke-linejoin:miter;stroke-miterlimit:10;stroke-dasharray:none"
             id="circle13517" />
          <circle
             cx="76.495003"
             cy="16.305"
             r="1.265"
             style="opacity:1;fill:#000000;fill-rule:nonzero;stroke:none;stroke-width:1;stroke-linecap:butt;stroke-linejoin:miter;stroke-miterlimit:10;stroke-dasharray:none"
             id="circle13519" />
        </g>
        <g
           id="g13529"
           transform="matrix(0.05353665,0,0,0.05353665,59.202085,11.351571)"
           style="fill:none;fill-opacity:1;stroke:#000000;stroke-width:2.80181;stroke-dasharray:none;stroke-opacity:1">
          <path
             style="opacity:1;fill:none;fill-opacity:1;stroke:#000000;stroke-width:4.3371;stroke-linecap:round;stroke-linejoin:round;stroke-miterlimit:4;stroke-dasharray:none;stroke-dashoffset:0;stroke-opacity:1"
             d="m -502.72679,243.66457 a 33.838039,45.392488 57.156649 0 1 -1.20844,-2.08737 c 0.89063,-0.2218 2.51629,-1.87419 4.88925,-4.95131 7.62465,-9.88701 14.48353,-13.34802 24.75052,-12.48394 33.5475,2.82326 37.73685,1.84407 44.47819,-10.40654 2.91375,-5.29497 4.90655,-14.54574 4.32554,-17.65047 a 33.838039,45.392488 57.156649 0 1 -20.74589,51.39082 33.838039,45.392488 57.156649 0 1 -56.4892,-3.81117 z m -1.98541,-3.86599 a 33.838039,45.392488 57.156649 0 1 21.77076,-49.18161 33.838039,45.392488 57.156649 0 1 56.48878,3.81055 33.838039,45.392488 57.156649 0 1 0.36056,0.62258 c -0.18918,-0.0546 -0.41802,0.002 -0.69074,0.1887 -0.90529,0.62114 -2.90319,3.32736 -4.43836,6.01315 -5.57532,9.75431 -12.57971,11.98818 -33.45427,10.68133 -16.62459,-1.04081 -20.88396,-0.50842 -26.84933,3.3424 -5.53415,3.57248 -7.85697,6.83659 -10.58545,14.87763 -1.56643,4.61643 -2.43373,7.82153 -2.60213,9.64541 z"
             id="path13527"
             inkscape:connector-curvature="0" />
          <path
             style="opacity:1;fill:none;fill-opacity:1;stroke:#000000;stroke-width:4.3371;stroke-linecap:round;stroke-linejoin:round;stroke-miterlimit:4;stroke-dasharray:none;stroke-dashoffset:0;stroke-opacity:1"
             d="m -372.40099,255.39898 a 45.392488,33.838039 73.996786 0 1 -2.34796,0.5519 c 0.0457,-0.91669 -1.06485,-2.95132 -3.32256,-6.11399 -7.25413,-10.16196 -8.57968,-17.72938 -4.7783,-27.30575 12.42098,-31.29098 12.69744,-35.58435 2.92517,-45.58563 -4.22379,-4.32276 -12.50053,-8.91008 -15.64045,-9.25342 a 45.392488,33.838039 73.996786 0 1 43.17688,34.74427 45.392488,33.838039 73.996786 0 1 -20.01277,52.96266 z m -4.2754,0.78028 a 45.392488,33.838039 73.996786 0 1 -40.76549,-35.08518 45.392488,33.838039 73.996786 0 1 20.01207,-52.96243 45.392488,33.838039 73.996786 0 1 0.70033,-0.16475 c -0.10709,0.16525 -0.11995,0.40047 -0.0196,0.7158 0.33224,1.04642 2.34362,3.74263 4.46949,5.99005 7.72083,8.16208 7.82971,15.51326 0.53149,35.11405 -5.81235,15.61015 -6.53674,19.84111 -4.57924,26.66624 1.81602,6.33178 4.26722,9.50061 11.173,14.44159 3.96467,2.83666 6.78106,4.59529 8.47794,5.28485 z"
             id="path13531"
             inkscape:connector-curvature="0" />
        </g>
      </g>
      <circle
         style="fill:none;fill-opacity:1;stroke:none;stroke-width:0.0508;stroke-linecap:square;stroke-linejoin:bevel;stroke-dasharray:none;stroke-opacity:1;paint-order:stroke fill markers"
         id="path14436"
         cx="32.212738"
         cy="27.343859"
         r="15.875" />
    </g>
  </g>
</svg>
